<?xml version="1.0" encoding="utf-8"?>
<!DOCTYPE svg PUBLIC "-//W3C//DTD SVG 1.1//EN" "http://www.w3.org/Graphics/SVG/1.1/DTD/svg11.dtd">
<svg version="1.1" xmlns="http://www.w3.org/2000/svg" xmlns:xlink="http://www.w3.org/1999/xlink"  width="48px" height="48px" viewBox="0 0 48 48" xml:space="preserve">
  <defs/>
  <g id="1">
    <path stroke="none" fill="#594b35" d="M10.2 6.15 Q16.5 1.1 24.95 1.1 33.55 1.1 39.95 6.35 L41.8 8.05 Q46.3 12.55 47.9 18.25 L48.55 21.15 48.05 19.1 43.35 19.1 35.7 34.7 27.7 21.95 27.7 12.15 35.6 12.15 35.6 14.95 41.65 14.95 41.65 8.1 Q40.55 7.4 39.4 6.15 L10.2 6.15 M48.75 22.75 L48.8 24.95 Q48.8 34.85 41.8 41.8 39.25 44.35 36.35 45.95 L48.75 22.75 M35.8 46.25 Q30.9 48.8 24.95 48.8 18.75 48.8 13.7 46.05 L24.95 27.75 35.8 46.25 M13.1 45.75 Q10.4 44.15 8.05 41.8 4.45 38.2 2.75 33.85 1.1 29.75 1.1 24.95 L1.2 22.85 13.1 45.75 M1.25 22.5 Q1.4 20.3 2 18.25 3.6 12.55 8.05 8.05 L8.8 7.35 7.9 8.25 7.9 14.95 13.95 14.95 13.95 12.15 21.65 12.15 21.65 22.2 14.1 34.7 6.9 19.1 1.8 19.1 1.25 22.5"/>
    <path stroke="none" fill="#ffffff" d="M1.25 22.5 L1.8 19.1 6.9 19.1 14.1 34.7 21.65 22.2 21.65 12.15 13.95 12.15 13.95 14.95 7.9 14.95 7.9 8.25 8.8 7.35 9.55 6.55 9.95 6.15 10.2 6.15 39.4 6.15 Q40.55 7.4 41.65 8.1 L41.65 14.95 35.6 14.95 35.6 12.15 27.7 12.15 27.7 21.95 35.7 34.7 43.35 19.1 48.05 19.1 48.55 21.15 48.85 22.5 48.75 22.75 36.35 45.95 36 46.6 35.8 46.25 24.95 27.75 13.7 46.05 13.45 46.4 13.1 45.75 1.2 22.85 1.15 22.75 1.25 22.5"/>
    <path fill="none" stroke="#594b35" stroke-width="1" stroke-linecap="round" stroke-linejoin="round" d="M41.9 41.9 Q34.9 48.95 25 48.95 15.1 48.95 8.1 41.9 1.1 34.9 1.1 25 1.1 15.1 8.1 8.1 15.1 1.1 25 1.1 34.9 1.1 41.9 8.1 48.95 15.1 48.95 25 48.95 34.9 41.9 41.9"/>
  </g>
</svg>