<svg width="48.85px" height="48.85px" viewBox="0 0 48.85 48.85" xmlns="http://www.w3.org/2000/svg" xmlns:xlink="http://www.w3.org/1999/xlink">
  <defs/>
  <g id="10">
    <path fill="none" stroke="#594b35" stroke-width="1" stroke-linecap="round" stroke-linejoin="round" d="M41.8 7.9 Q48.85 14.9 48.85 24.8 48.85 34.7 41.8 41.7 34.8 48.75 24.9 48.75 15 48.75 8 41.7 1 34.7 1 24.8 1 14.9 8 7.9 15 0.9 24.9 0.9 34.8 0.9 41.8 7.9"/>
    <path fill="none" stroke="#594b35" stroke-width="1" stroke-linecap="round" stroke-linejoin="round" d="M17.85 3.75 L31.15 3.75 M20.25 45.25 L31.55 45.25 M17.2 24.15 L32.9 24.15 M20.25 31.85 L30.8 31.85 M19.65 15.6 L30.95 15.6"/>
    <path fill="none" stroke="#594b35" stroke-width="2" stroke-linecap="round" stroke-linejoin="round" d="M33.85 3.2 Q-0.15 21 33.6 46.45"/>
    <path fill="none" stroke="#594b35" stroke-width="1.5" stroke-linecap="round" stroke-linejoin="round" d="M15.2 3.15 Q51.45 21.3 17.35 46.95"/>
    <path stroke="none" fill="#594b35" d="M20.75 17.55 Q19.95 18.4 18.8 18.4 17.65 18.4 16.8 17.55 16 16.75 16 15.6 16 14.45 16.8 13.6 17.65 12.8 18.8 12.8 19.95 12.8 20.75 13.6 21.6 14.45 21.6 15.6 21.6 16.75 20.75 17.55"/>
    <path stroke="none" fill="#594b35" d="M31.05 13.2 Q32.2 13.2 33 14 33.85 14.85 33.85 16 33.85 17.15 33 17.95 32.2 18.8 31.05 18.8 29.9 18.8 29.05 17.95 28.25 17.15 28.25 16 28.25 14.85 29.05 14 29.9 13.2 31.05 13.2"/>
    <path stroke="none" fill="#594b35" d="M16.25 26.55 Q15.1 26.55 14.25 25.7 13.45 24.9 13.45 23.75 13.45 22.6 14.25 21.75 15.1 20.95 16.25 20.95 17.4 20.95 18.2 21.75 19.05 22.6 19.05 23.75 19.05 24.9 18.2 25.7 17.4 26.55 16.25 26.55"/>
    <path stroke="none" fill="#594b35" d="M35.8 26.3 Q35 27.15 33.85 27.15 32.7 27.15 31.85 26.3 31.05 25.5 31.05 24.35 31.05 23.2 31.85 22.35 32.7 21.55 33.85 21.55 35 21.55 35.8 22.35 36.65 23.2 36.65 24.35 36.65 25.5 35.8 26.3"/>
    <path stroke="none" fill="#594b35" d="M20.75 33.5 Q19.95 34.35 18.8 34.35 17.65 34.35 16.8 33.5 16 32.7 16 31.55 16 30.4 16.8 29.55 17.65 28.75 18.8 28.75 19.95 28.75 20.75 29.55 21.6 30.4 21.6 31.55 21.6 32.7 20.75 33.5"/>
    <path stroke="none" fill="#594b35" d="M31.05 29.55 Q32.2 29.55 33 30.35 33.85 31.2 33.85 32.35 33.85 33.5 33 34.3 32.2 35.15 31.05 35.15 29.9 35.15 29.05 34.3 28.25 33.5 28.25 32.35 28.25 31.2 29.05 30.35 29.9 29.55 31.05 29.55"/>
    <path stroke="none" fill="#594b35" d="M28.25 39.15 Q28.25 40.3 27.4 41.1 26.6 41.95 25.45 41.95 24.3 41.95 23.45 41.1 22.65 40.3 22.65 39.15 22.65 38 23.45 37.15 24.3 36.35 25.45 36.35 26.6 36.35 27.4 37.15 28.25 38 28.25 39.15"/>
    <path stroke="none" fill="#594b35" d="M17.05 47.4 Q16.25 46.6 16.25 45.45 16.25 44.3 17.05 43.45 17.9 42.65 19.05 42.65 20.2 42.65 21 43.45 21.85 44.3 21.85 45.45 21.85 46.6 21 47.4 20.2 48.25 19.05 48.25 17.9 48.25 17.05 47.4"/>
    <path stroke="none" fill="#594b35" d="M35.45 45.05 Q35.45 46.2 34.6 47 33.8 47.85 32.65 47.85 31.5 47.85 30.65 47 29.85 46.2 29.85 45.05 29.85 43.9 30.65 43.05 31.5 42.25 32.65 42.25 33.8 42.25 34.6 43.05 35.45 43.9 35.45 45.05"/>
    <path stroke="none" fill="#594b35" d="M27.2 8.65 Q27.2 9.8 26.35 10.6 25.55 11.45 24.4 11.45 23.25 11.45 22.4 10.6 21.6 9.8 21.6 8.65 21.6 7.5 22.4 6.65 23.25 5.85 24.4 5.85 25.55 5.85 26.35 6.65 27.2 7.5 27.2 8.65"/>
    <path stroke="none" fill="#594b35" d="M16.8 7.5 Q15.65 7.5 14.8 6.65 14 5.85 14 4.7 14 3.55 14.8 2.7 15.65 1.9 16.8 1.9 17.95 1.9 18.75 2.7 19.6 3.55 19.6 4.7 19.6 5.85 18.75 6.65 17.95 7.5 16.8 7.5"/>
    <path stroke="none" fill="#594b35" d="M32.85 7.5 Q31.7 7.5 30.85 6.65 30.05 5.85 30.05 4.7 30.05 3.55 30.85 2.7 31.7 1.9 32.85 1.9 34 1.9 34.8 2.7 35.65 3.55 35.65 4.7 35.65 5.85 34.8 6.65 34 7.5 32.85 7.5"/>
  </g>
</svg>