<svg width="48.85px" height="48.85px" viewBox="0 0 48.85 48.85" xmlns="http://www.w3.org/2000/svg" xmlns:xlink="http://www.w3.org/1999/xlink">
  <defs/>
  <g id="11">
    <path stroke="none" fill="#594b35" d="M38 36.75 L38.65 37.5 Q37.95 38.1 37.15 39.05 32.75 44.1 32.7 45.45 31.55 45.1 30.6 44.15 29.05 42.6 29.05 40.45 29.05 38.3 30.6 36.75 32.15 35.2 34.3 35.2 36.45 35.2 38 36.75"/>
    <path fill="none" stroke="#594b35" stroke-width="1" stroke-linecap="round" stroke-linejoin="round" d="M28.2 28.45 L20.55 36.1 M23.3 20.75 L8.3 35.7 M24.8 23.4 L9.8 38.35 M26.4 26.25 L11.4 41.2 M21.55 18.4 L6.55 33.35 M19.8 15.9 L4.8 30.85"/>
    <path fill="none" stroke="#594b35" stroke-width="1" stroke-linecap="round" stroke-linejoin="round" d="M1.95 17.35 Q10.95 -4.05 24.3 16.35 37.65 36.7 40.9 33.65 L41.15 33.45 Q44.25 30.7 46.35 33.35 M41.15 33.45 Q31.1 48.85 27.05 48.7"/>
    <path fill="none" stroke="#594b35" stroke-width="1" stroke-linecap="round" stroke-linejoin="round" d="M41.65 41.7 Q34.65 48.75 24.75 48.75 14.85 48.75 7.85 41.7 0.85 34.7 0.85 24.8 0.85 14.9 7.85 7.9 14.85 0.9 24.75 0.9 34.65 0.9 41.65 7.9 48.7 14.9 48.7 24.8 48.7 34.7 41.65 41.7"/>
    <path stroke="none" fill="#594b35" d="M43.45 31.9 Q41.55 32.1 41.05 33.1 L40.25 34.4 Q36.45 35.25 24.3 16.75 10.95 -3.65 1.95 17.75 3.6 12.45 7.85 8.25 14.8 1.3 24.6 1.3 34.45 1.3 41.4 8.25 48.35 15.2 48.35 25.05 48.35 29.7 46.8 33.75 L46.05 32.7 Q45.35 31.7 43.45 31.9"/>
  </g>
</svg>