<svg width="48.85px" height="48.85px" viewBox="0 0 48.85 48.85" xmlns="http://www.w3.org/2000/svg" xmlns:xlink="http://www.w3.org/1999/xlink">
  <defs/>
  <g id="12">
    <path fill="none" stroke="#594b35" stroke-width="1" stroke-linecap="round" stroke-linejoin="round" d="M2.1 17.45 Q11.1 -3.95 24.45 16.45 37.8 36.8 41.05 33.75 L41.3 33.55 Q44.4 30.8 46.5 33.45 M41.3 33.55 Q31.25 48.95 27.2 48.8"/>
    <path fill="none" stroke="#594b35" stroke-width="1" stroke-linecap="round" stroke-linejoin="round" d="M41.8 8 Q48.85 15 48.85 24.9 48.85 34.8 41.8 41.8 34.8 48.85 24.9 48.85 15 48.85 8 41.8 1 34.8 1 24.9 1 15 8 8 15 1 24.9 1 34.8 1 41.8 8"/>
    <path stroke="none" fill="#594b35" d="M24.75 1.4 Q34.6 1.4 41.55 8.35 48.5 15.3 48.5 25.15 48.5 29.8 46.95 33.85 L46.2 32.8 Q45.5 31.8 43.6 32 41.7 32.2 41.2 33.2 L40.4 34.5 Q36.6 35.35 24.45 16.85 11.1 -3.55 2.1 17.85 3.75 12.55 8 8.35 14.95 1.4 24.75 1.4"/>
    <path stroke="none" fill="#ffffff" d="M38.4 4.95 Q40.7 5.2 41.8 6.6 42.85 8.05 42.25 10.1 41.65 12.15 39.4 15.05 L26.95 31.6 24.1 35.35 23.7 35.2 20.1 34.85 17.95 35.3 17 29.4 31.8 10.45 33.8 7.5 Q36.05 4.7 38.4 4.95"/>
    <path fill="none" stroke="#594b35" stroke-width="1" stroke-linecap="round" stroke-linejoin="round" d="M17.8 35.4 L16.9 29.8 34 7.1 34.4 6.55 34.85 6 Q36.3 4.75 38.2 4.9 40.1 5.05 41.35 6.45 42.55 7.9 42.45 9.8 L41.95 11.65 41 12.9 24.95 34.7 18.75 35.45 M41 12.9 L40.9 12.95 Q39.45 14.25 37.55 14.1 35.8 13.95 34.65 12.8 L16.55 37.9 23.45 37.45 M20 32.15 L19.4 27.1 M13.3 42.3 L16.55 37.9"/>
  </g>
</svg>