<svg width="48.85px" height="48.85px" viewBox="0 0 48.85 48.85" xmlns="http://www.w3.org/2000/svg" xmlns:xlink="http://www.w3.org/1999/xlink">
  <defs/>
  <g id="13">
    <path fill="none" stroke="#594b35" stroke-width="1" stroke-linecap="round" stroke-linejoin="round" d="M8.45 7.7 L37.1 7.7 37.85 12.6 Q38.5 18.65 38 24.2 37.45 30.05 35.75 34.7 32.25 44.15 23.85 48.45 M27.3 9.45 Q25.95 10.25 27.3 12 L27.75 12.45 Q29.3 13.95 30.15 17.05 30.95 20.1 29.5 23.8 L31.2 24 31.9 26.5 35.4 26.45 35.45 26.4 33.45 23.35 M10.7 18.85 Q14.65 18.2 20.45 21.9 L26.7 12.85 26.25 12.35 M27.3 12 L26.7 12.85 Q27.95 14.35 28.65 16.95 29.45 20.05 28 23.7 L29.5 23.8 M3.8 13.2 L4.7 14.85 Q8.05 15.1 10.55 18.6 M28.65 29.05 Q30.15 29.05 31.3 27.95 L31.9 26.5 20.3 26.6 21.2 26.95 21.2 27.6 26.95 28.7 28.65 29.05 Q30.95 36.55 22.3 42.65 L22 41.7 20.7 42.65 M20.45 21.9 Q22.25 23.05 25.8 24.6 25.5 23.7 28 23.7 M11.7 29.35 Q11.5 28.3 13.2 27.05 13.4 26.2 13.9 26 L14.55 25.8 14.85 25.6 Q10 25.2 6.95 22.75 L6.85 22.75 Q6.7 23.55 6.2 24.15 5.85 24.6 5.4 24.85 6.2 24.9 6.8 25.5 7.55 26.25 7.55 27.25 L7.3 28.35 Q7.8 29.05 7.8 29.95 L7.65 30.9 9.05 30.55 11.55 29.6 M14.85 25.6 L15.05 25.6 17.05 25.2 M15.05 25.6 L15.2 25.6 14.55 25.8 M17.2 25.45 L17.85 25.7 20.45 21.9 M21.2 27.6 Q21.05 29.2 20.05 30.1 L17.75 31.4 22 41.7 Q29.15 35.95 27.05 29.05 M17.05 27.1 L20.3 27.1 M17.85 25.7 L20.3 26.6 M9.95 20.6 L9.2 21.35 M5.4 24.85 L4.7 24.95 4.35 24.95 4.1 25 4.25 25.9 Q4.25 26.85 3.7 27.55 4.3 27.2 5.05 27.2 6.2 27.2 7 28 L7.3 28.35 M6.85 22.75 L3.35 21.95 2.7 23.2 2.7 23.25 2.75 23.4 3.4 23.9 4.05 24.85 4.35 24.95 5.1 24.8 5.4 24.85 M0.95 24.7 L2.6 23.35 2.7 23.2 2.7 23.15 3.25 21.9 3.35 21.95 Q2.45 20.7 2.95 18.95 3.45 17.15 2.95 15.65 M2.7 23.25 L2.6 23.35 2.75 23.4 M3.7 27.55 L3.4 27.85 2.9 28.3 2.85 28.35 3.05 29.55 Q3.05 30.85 2.3 31.75 M2.9 28.3 L2.85 28.3 2.85 28.35 2.8 28.35 2.85 28.3 2.3 27.3 Q1.8 26.65 1.1 26.45 M7.65 30.9 L5.4 31.35 Q4 31.6 3.25 32.05 2.75 32.35 2.55 32.75 M17.75 31.4 L13.55 32.1 11.05 35.65 Q11.7 36.3 11.7 37.2 11.7 38.1 11.05 38.7 L10.45 39.2 Q10.85 39.3 10.55 41.1 L10.25 43.5 9.7 43.35 M7.6 40.95 L7.8 40.2 8.4 39.7 8.8 39.25 9.15 37.95 9.1 37.45 7.7 38.3 5.7 39 M10.45 39.2 L9.55 39.35 8.8 39.25 M11.05 35.65 L9.1 37.45 M4.05 24.85 L4.1 25 M21.8 45.45 Q20.6 43.7 22.05 42.85 M35.45 26.4 L35.45 26.45 35.4 26.45 33.15 29.3"/>
    <path fill="none" stroke="#594b35" stroke-width="1" stroke-linecap="round" stroke-linejoin="round" d="M24.75 1 Q34.65 1 41.65 8 48.7 15 48.7 24.9 48.7 34.8 41.65 41.8 34.65 48.85 24.75 48.85 14.85 48.85 7.85 41.8 0.85 34.8 0.85 24.9 0.85 15 7.85 8 14.85 1 24.75 1"/>
    <path stroke="none" fill="#594b35" d="M37.85 11.35 Q37.5 6.35 35.9 7.9 L7.85 7.9 Q11.4 4.35 15.75 2.65 19.9 1 24.7 1 29.5 1 33.65 2.65 38 4.4 41.55 7.95 48.55 14.95 48.55 24.85 48.55 34.75 41.55 41.7 34.6 48.7 24.7 48.7 L18.85 48.05 23.25 48.25 Q35.05 42.55 36.8 29.65 38 28.8 38 25.2 L38 24.55 38.1 21.6 Q38.15 16.3 37.85 11.35"/>
  </g>
  <g id="13">
    <path fill="none" stroke="#594b35" stroke-width="1" stroke-linecap="round" stroke-linejoin="round" d="M8.45 7.7 L37.1 7.7 37.85 12.6 Q38.5 18.65 38 24.2 37.45 30.05 35.75 34.7 32.25 44.15 23.85 48.45 M27.3 9.45 Q25.95 10.25 27.3 12 L27.75 12.45 Q29.3 13.95 30.15 17.05 30.95 20.1 29.5 23.8 L31.2 24 31.9 26.5 35.4 26.45 35.45 26.4 33.45 23.35 M10.7 18.85 Q14.65 18.2 20.45 21.9 L26.7 12.85 26.25 12.35 M27.3 12 L26.7 12.85 Q27.95 14.35 28.65 16.95 29.45 20.05 28 23.7 L29.5 23.8 M3.8 13.2 L4.7 14.85 Q8.05 15.1 10.55 18.6 M28.65 29.05 Q30.15 29.05 31.3 27.95 L31.9 26.5 20.3 26.6 21.2 26.95 21.2 27.6 26.95 28.7 28.65 29.05 Q30.95 36.55 22.3 42.65 L22 41.7 20.7 42.65 M20.45 21.9 Q22.25 23.05 25.8 24.6 25.5 23.7 28 23.7 M11.7 29.35 Q11.5 28.3 13.2 27.05 13.4 26.2 13.9 26 L14.55 25.8 14.85 25.6 Q10 25.2 6.95 22.75 L6.85 22.75 Q6.7 23.55 6.2 24.15 5.85 24.6 5.4 24.85 6.2 24.9 6.8 25.5 7.55 26.25 7.55 27.25 L7.3 28.35 Q7.8 29.05 7.8 29.95 L7.65 30.9 9.05 30.55 11.55 29.6 M14.85 25.6 L15.05 25.6 17.05 25.2 M15.05 25.6 L15.2 25.6 14.55 25.8 M17.2 25.45 L17.85 25.7 20.45 21.9 M21.2 27.6 Q21.05 29.2 20.05 30.1 L17.75 31.4 22 41.7 Q29.15 35.95 27.05 29.05 M17.05 27.1 L20.3 27.1 M17.85 25.7 L20.3 26.6 M9.95 20.6 L9.2 21.35 M5.4 24.85 L4.7 24.95 4.35 24.95 4.1 25 4.25 25.9 Q4.25 26.85 3.7 27.55 4.3 27.2 5.05 27.2 6.2 27.2 7 28 L7.3 28.35 M6.85 22.75 L3.35 21.95 2.7 23.2 2.7 23.25 2.75 23.4 3.4 23.9 4.05 24.85 4.35 24.95 5.1 24.8 5.4 24.85 M0.95 24.7 L2.6 23.35 2.7 23.2 2.7 23.15 3.25 21.9 3.35 21.95 Q2.45 20.7 2.95 18.95 3.45 17.15 2.95 15.65 M2.7 23.25 L2.6 23.35 2.75 23.4 M3.7 27.55 L3.4 27.85 2.9 28.3 2.85 28.35 3.05 29.55 Q3.05 30.85 2.3 31.75 M2.9 28.3 L2.85 28.3 2.85 28.35 2.8 28.35 2.85 28.3 2.3 27.3 Q1.8 26.65 1.1 26.45 M7.65 30.9 L5.4 31.35 Q4 31.6 3.25 32.05 2.75 32.35 2.55 32.75 M17.75 31.4 L13.55 32.1 11.05 35.65 Q11.7 36.3 11.7 37.2 11.7 38.1 11.05 38.7 L10.45 39.2 Q10.85 39.3 10.55 41.1 L10.25 43.5 9.7 43.35 M7.6 40.95 L7.8 40.2 8.4 39.7 8.8 39.25 9.15 37.95 9.1 37.45 7.7 38.3 5.7 39 M10.45 39.2 L9.55 39.35 8.8 39.25 M11.05 35.65 L9.1 37.45 M4.05 24.85 L4.1 25 M21.8 45.45 Q20.6 43.7 22.05 42.85 M35.45 26.4 L35.45 26.45 35.4 26.45 33.15 29.3"/>
    <path fill="none" stroke="#594b35" stroke-width="1" stroke-linecap="round" stroke-linejoin="round" d="M24.75 1 Q34.65 1 41.65 8 48.7 15 48.7 24.9 48.7 34.8 41.65 41.8 34.65 48.85 24.75 48.85 14.85 48.85 7.85 41.8 0.85 34.8 0.85 24.9 0.85 15 7.85 8 14.85 1 24.75 1"/>
    <path stroke="none" fill="#594b35" d="M37.85 11.35 Q37.5 6.35 35.9 7.9 L7.85 7.9 Q11.4 4.35 15.75 2.65 19.9 1 24.7 1 29.5 1 33.65 2.65 38 4.4 41.55 7.95 48.55 14.95 48.55 24.85 48.55 34.75 41.55 41.7 34.6 48.7 24.7 48.7 L18.85 48.05 23.25 48.25 Q35.05 42.55 36.8 29.65 38 28.8 38 25.2 L38 24.55 38.1 21.6 Q38.15 16.3 37.85 11.35"/>
  </g>
</svg>