<svg width="48px" height="48px" viewBox="0 0 48 48" xmlns="http://www.w3.org/2000/svg" xmlns:xlink="http://www.w3.org/1999/xlink">
  <defs/>
  <g id="14">
    <path stroke="none" fill="#594b35" d="M31.1 2.2 L31.15 2.25 31.5 2.3 31.15 2.35 Q22.15 3.1 19.1 7.7 20.8 3.6 31.1 2.2 20.8 3.6 19.1 7.7 L18.85 8.45 18.3 9.15 18 9.3 15.1 9.8 7.6 11.05 Q11.35 9.65 15.1 9.8 11.35 9.65 7.6 11.05 L7.15 11.1 Q3.65 10.9 14 3.3 22.55 -0.45 31.1 2.2 M38.95 38.65 L38.75 38.05 39.75 37.5 47 33.55 41.75 41.3 40.75 41.3 39.8 40.1 39.1 39.15 39.8 40.1 40.75 41.3 39.75 41.3 39.4 40.2 39.1 39.15 38.95 38.65 39 38.6 39.75 37.5 39 38.6 38.95 38.65 M40.45 41.7 Q42 41.35 38.55 44.55 25.75 50 18 47.55 L17.25 47.3 39.25 42.05 39.25 42.1 Q40 41.75 40.45 41.7 M39.25 42.1 L18 47.55 39.25 42.1 M39.4 40.2 L39.8 40.1 39.4 40.2 M10.75 43.3 Q6.85 42.4 3.9 35.55 -0.1 26.05 1.75 24.3 L10.75 43.3"/>
    <path fill="none" stroke="#594b35" stroke-width="1" stroke-linecap="round" stroke-linejoin="round" d="M31.1 2.2 Q20.8 3.6 19.1 7.7 L18.85 8.45 18.3 9.15 17.75 10.05 17.05 9.75 16.95 9.85 16.75 9.9 15.1 9.8 Q11.35 9.65 7.6 11.05 6.15 11.55 4.7 12.3 M39.75 37.5 L40.05 37.15 Q42.65 34.1 46.45 33.3 M40.75 41.3 L40.95 41.6 41.25 41.55 M38.75 38.7 L38.8 38.75 38.95 38.65 38.75 38.7 15.2 44.8 M38.8 38.75 L39.1 39.15 39.8 40.1 40.75 41.3 M38.95 38.65 L39 38.6 39.75 37.5 M39.25 42.1 Q40 41.75 40.45 41.7 M39.4 40.2 L15.95 46.3 M39.8 40.1 L39.4 40.2 M18 47.55 L39.25 42.1 M1.2 23.05 L11.95 44.8 M1.7 19.55 L14.75 44.55"/>
    <path fill="none" stroke="#594b35" stroke-width="1" stroke-linecap="round" stroke-linejoin="round" d="M41.35 8.25 Q48.2 15.15 48.2 24.9 48.2 34.65 41.35 41.55 34.45 48.4 24.7 48.4 14.95 48.4 8.05 41.55 1.2 34.65 1.2 24.9 1.2 15.15 8.05 8.25 14.95 1.4 24.7 1.4 34.45 1.4 41.35 8.25"/>
    <path stroke="none" fill="#594b35" d="M42.05 24.25 Q42.55 25.9 41.8 27.1 42.65 27.1 43.4 27.75 L44.3 29.3 44.35 31.05 Q44.05 31.95 43.25 32.45 L42.45 32.85 Q40.85 33.2 39.9 32.45 L39.4 33.7 38.5 34.65 Q37.15 35.55 35.7 35.15 34.45 34.75 33.7 33.55 32.95 32.25 33.2 31 33.55 29.55 35.05 28.8 L34.4 28.8 33.75 28.85 33.5 28.55 33.3 28.1 32.8 28.5 32.1 28.5 31.65 28.15 Q31.45 27.8 31.6 27.4 L7.4 18.6 7.3 18.35 7.35 18.05 5.75 17.95 5.5 17.55 Q5.35 17.1 5.65 16.75 5.85 16.35 6.3 16.25 L7.15 16.35 Q7.55 16.55 7.6 17.1 L8.8 17 9.45 17.35 10.2 17.5 Q10.2 17.25 10.35 17.05 10.1 16.7 9.25 16.45 L8 16 8.3 15.45 8.5 14.9 8.9 14.9 9.25 14.75 Q9.4 14.5 9.15 14.3 L8.8 13.95 9.3 12.65 9.8 11.35 10.8 11.7 11.8 12.2 11.4 13.1 11.1 14.05 11.55 14.15 12.05 14.35 12.35 13.4 12.75 12.5 13.6 12.75 14.35 13.05 Q14.45 13.25 13.95 14.05 13.55 14.8 13.7 15 L14.15 15.15 14.6 15.2 14.9 14.2 Q15.1 13.45 15.25 13.4 15.5 13.3 16.3 13.7 L17.25 14.15 16.8 15.45 16.25 16.75 15.8 16.75 Q15.6 16.8 15.55 17 15.4 17.45 16 17.6 L15.8 18.25 15.55 18.8 14.35 18.35 Q13.4 17.85 13.2 18.05 L13 18.55 32.3 25.65 Q32.4 25.1 32.95 25.05 L33.8 25.35 33.9 25.85 34 26.15 34.45 26 34.8 25.9 35.25 26.45 35.75 26.85 Q35.1 25.6 35.6 24.35 36.1 23.25 37.3 22.6 38.45 21.95 39.65 22.1 41 22.3 41.65 23.4 L42.05 24.25 M41.7 28.4 Q41.1 28.4 40.45 28.75 L40.1 28.15 39.75 27.5 Q40.6 27.05 40.9 26.15 41.2 25.35 40.9 24.65 40.55 23.75 39.65 23.5 L38 23.55 Q37.15 23.9 36.8 24.65 36.45 25.45 36.95 26.45 L37.3 26.95 37.85 27.4 37.8 27.65 37.85 27.9 39 27.95 Q39.3 28.35 39.05 29.1 38.85 29.85 38.45 29.95 37.85 30.15 37.35 29.25 L37.15 29.45 37 29.75 Q36.05 29.55 35.3 30.05 34.65 30.55 34.5 31.35 34.3 32.2 34.65 32.9 35.05 33.7 35.95 33.95 37.25 34.35 38.15 33.25 39.05 32.15 38.55 30.85 L39.3 30.5 39.95 30.4 Q40.2 31.4 41 31.6 L42.4 31.35 Q43.05 30.9 43.15 30.15 43.3 29.35 42.55 28.7 42.2 28.35 41.7 28.4"/>
  </g>
</svg>