<svg width="48.85px" height="49.8px" viewBox="0 0 48.85 49.8" xmlns="http://www.w3.org/2000/svg" xmlns:xlink="http://www.w3.org/1999/xlink">
  <defs/>
  <g id="15">
    <path stroke="none" fill="#ffffff" d="M33.6 26.7 L33.75 26.65 33.8 26.6 33.95 26.55 34.2 26.4 34.3 26.4 34.35 26.4 Q34.8 26.4 35.05 26.7 35.4 27.05 35.4 27.5 L35.05 28.25 Q34.8 28.55 34.35 28.55 33.95 28.55 33.55 28.25 L33.35 27.9 33.25 27.5 31.8 28.6 33.25 27.3 33.35 26.85 33.5 26.75 33.55 26.7 33.6 26.7 M33.35 27.9 L33.5 28 34.2 28.25 34.8 28 35.05 27.3 34.8 26.7 34.3 26.4 34.8 26.7 35.05 27.3 34.8 28 34.2 28.25 33.5 28 33.35 27.9"/>
    <path fill="none" stroke="#594b35" stroke-width="1" stroke-linecap="round" stroke-linejoin="round" d="M24.1 13.75 L26.25 13.85 26.5 14.65 29.4 15.4 30.3 14.7 Q32.8 16.8 35.65 16.95 L34.9 15.95 M35.65 16.95 L36.4 16.95 36.6 18.5 M35 19.1 L33.2 19.2 Q32.6 22.85 31.6 20.5 32.5 22.95 33.8 22.25 L36.05 19.25 35.15 17.95 M33.2 19.2 L28.2 17.1 Q31.3 20.1 29.3 22.15 L31.6 20.5 M33.6 26.7 L33.75 26.65 33.8 26.6 M34.2 26.4 L33.8 26.55 33.75 26.6 33.5 26.7 33.55 26.7 M33.8 22.25 L31.65 25.1 29.7 25.1 29.6 26 29.7 26.4 30.3 28.25 33.4 26.8 33.5 26.75 33.5 26.7 M33.4 26.8 L33.35 26.85 M29.7 25.1 L29.45 25.1 29.6 26 M26.4 35.05 L30.3 36.25 30.55 29.2 30.3 28.25 M33.35 27.9 Q32.95 27.8 31.8 28.6 L31.5 28.8 M31.8 28.6 L33.25 27.3 33.35 26.85 M34.3 26.4 L34.8 26.7 35.05 27.3 34.8 28 34.2 28.25 33.5 28 33.35 27.9 M34.2 26.4 L34.3 26.4 M31 40.05 L28.2 39 24.3 39.35 Q22.5 38.55 21 37.6 21.8 41.9 18.9 41.4 L19.8 42.15 21.65 42.15 Q23.75 41.7 24.7 42.6 23.8 41.05 27.95 41.4 L31 40.85 31 40.05 30.55 29.2 M4.9 6.3 L6.2 6.8 7.15 7.15 8.05 7.55 Q15.05 0.65 24.85 0.65 34.75 0.65 41.75 7.65 48.8 14.65 48.8 24.55 48.8 34.45 41.75 41.45 37.9 45.35 33.15 47.1 33.75 47.8 30.95 47.8 L24.85 48.5 19.25 47.9 20 49 Q19.25 50.4 15.2 47.3 L14.45 46.15 14.45 46.2 Q10.95 44.45 7.95 41.45 L7 40.45 6.85 40.3 Q0.95 33.65 0.95 24.55 0.95 14.9 7.6 8.05 L6.65 7.6 4.75 6.75 M30.7 28.5 L31.35 30.95 M27.95 41.4 L27.6 44.85 32.75 46.8 32.8 46.8 33.15 47.1 M7.6 8.05 L7.95 7.65 8.05 7.55 7.1 7.2 6.65 7.6 M6.2 6.8 L7.1 7.2 7.15 7.15 M18.25 8.8 L17.75 8.25 15.7 6.05 18.25 3.2 Q22.4 2.9 26.9 4.5 L27.25 5.15 27.55 5.35 28.05 6.55 28.05 6.6 Q28.2 7.4 27.65 9.2 L28.1 8.85 Q27.95 10.8 27.45 11.9 L28.4 11.5 Q29.25 10.95 29.35 10.2 M28.05 6.55 L27.85 6.15 25.4 5.75 Q22.15 6.15 22.5 7.2 L22 7.55 21.35 7.85 Q21.35 8.5 21.9 10.3 22.45 11.05 22.65 12 L22.95 12.35 Q23.85 13.4 25 13.4 26.2 13.4 27 12.35 L27.45 11.9 26.25 12 24.1 11.5 23.5 10.95 M24.05 8.2 L25.4 8.2 M24.45 9.05 L24.95 8.75 M28.05 6.6 Q25.25 8.3 27.15 11.15 M27.25 8.4 Q27.7 8.55 27.65 9.2 M25.4 11.05 L26.6 11.55 M21.9 10.3 L19.3 9.35 Q18.9 9.2 18.75 9.05 18.05 8.6 20.45 8.25 L21.25 7.85 21.35 7.85 M21.5 13.4 L22.65 12 M20 13.75 L16.9 15.55 Q14.2 20.5 14.8 25.4 L16.8 25.9 17.7 27.35 Q18.4 28.15 18.3 22.4 L18.9 23.3 Q20.2 24.1 20.55 14.15 L20.6 14 20 13.75 8.5 9.05 M20 13.75 L20.65 13.6 21.1 13.65 20.7 14.05 Q21.5 16.05 24.5 15.55 L24.6 15.6 Q26.5 15.1 27 16.65 L26.5 14.7 26.5 14.65 M20.65 13.6 L20.6 14 20.7 14.05 20.55 14.15 M27 16.65 L28.2 17.1 27.4 15.35 M27.85 6.15 L27.25 5.15 M17.75 8.25 L19.45 6.05 M18.75 9.05 L20.45 8.25 M16.85 6.75 L18.35 5.05 M21.65 12.7 L8.05 7.55 M7.6 8.05 L10.3 9.2 M22.8 20.1 L24.95 20.1 24.8 18.15 22.35 18.15 M24.6 15.6 L24.8 18.15 26.5 18.15 M26.9 21.85 L25.05 21.85 25.2 24 26.9 24 M26.7 20.1 L24.95 20.1 25.05 21.85 23.05 21.85 M19.85 28.75 L20.55 29.5 21.8 28.55 M21.7 27.5 L24.6 29 25.15 24.1 23.45 24 M18.9 23.3 L21.5 27.05 18.75 29.2 17.7 27.35 M25.15 24.1 L25.2 24 26.1 34.85 M16.8 25.9 Q15 31.45 11.75 32.75 L15.2 34.1 17.9 35.15 22.35 33.55 23 31.2 22.3 31.25 20.55 29.5 M15.2 34.1 L14.65 36.25 14.7 36.15 14.8 36.1 14.2 37.95 14.4 37.1 14.65 36.25 Q10.95 40 6.85 40.3 M17.65 34.4 L18.6 31.95 M14.45 46.2 L14.35 45.95 14.45 46.15 15.35 41.3 13.3 41.4 14.05 38.1 Q10.9 41 7 40.45 M14.7 36.15 L14.4 37.1 M24.65 30.8 L24.6 29 23 31.2 24.65 30.8 M21 37.6 L17.9 35.15 M15.35 41.3 L18.9 41.4 17.2 45.2 19.25 47.9 M24.7 42.6 L25.05 43.1 25.15 43.2 25.2 43.4 25.25 43.7 25.25 43.75 25.35 44.25 25.35 44.35 25.9 47.4 28.8 47.9 30.95 47.8 M25.35 44.25 L25.3 44.15 25.2 43.9 24.95 43.15 25 43.25 25.1 43.2 25.05 43.1 M25.25 43.75 L25.3 44.15 M25 43.25 L25.2 43.9 M25.15 43.2 L25.1 43.2 25.2 43.4 M17.2 45.2 L17.15 46.75 M27 16.65 Q29.5 20.1 29.45 25.1 M29.7 26.4 Q29.95 27.65 28.6 32.05"/>
    <path stroke="none" fill="#594b35" d="M4.5 22.3 L3.55 22.3 3.55 20.9 6.15 20.9 6.15 27.15 4.5 27.15 4.5 22.3"/>
    <path stroke="none" fill="#594b35" d="M9.15 22.35 L8.9 23.05 8.9 25 9.1 25.7 Q9.3 26.05 9.65 26.05 10 26.05 10.2 25.7 L10.4 25 10.4 23.05 10.2 22.35 Q10 22 9.65 22 9.3 22 9.15 22.35 M7.25 24 L7.35 23 7.65 21.95 8.35 21.05 Q8.85 20.7 9.65 20.7 10.45 20.7 10.95 21.05 L11.7 21.95 12 23 12 25.05 11.7 26.1 10.95 27 9.65 27.3 8.35 27 7.65 26.1 7.35 25.05 7.25 24"/>
    <path stroke="none" fill="#594b35" d="M37.2 21.05 Q37.7 20.7 38.5 20.7 39.3 20.7 39.8 21.05 L40.55 21.95 40.85 23 40.85 25.05 40.55 26.1 39.8 27 38.5 27.3 37.2 27 36.5 26.1 36.2 25.05 36.1 24 36.2 23 36.5 21.95 37.2 21.05 M38.5 22 Q38.15 22 38 22.35 L37.75 23.05 37.75 25 37.95 25.7 Q38.15 26.05 38.5 26.05 L39.05 25.7 39.25 25 39.25 23.05 39.05 22.35 38.5 22"/>
    <path stroke="none" fill="#594b35" d="M42.8 21.05 Q43.3 20.7 44.1 20.7 44.9 20.7 45.4 21.05 L46.15 21.95 46.45 23 46.45 25.05 46.15 26.1 45.4 27 44.1 27.3 42.8 27 42.1 26.1 41.8 25.05 41.7 24 41.8 23 42.1 21.95 42.8 21.05 M44.1 22 Q43.75 22 43.6 22.35 L43.35 23.05 43.35 25 43.55 25.7 Q43.75 26.05 44.1 26.05 L44.65 25.7 44.85 25 44.85 23.05 44.65 22.35 Q44.45 22 44.1 22"/>
  </g>
</svg>