<svg width="48.85px" height="48.85px" viewBox="0 0 48.85 48.85" xmlns="http://www.w3.org/2000/svg" xmlns:xlink="http://www.w3.org/1999/xlink">
  <defs/>
  <g id="16">
    <path fill="none" stroke="#594b35" stroke-width="1" stroke-linecap="round" stroke-linejoin="round" d="M33.2 24.6 L31.25 24.95 36.5 30 36.4 29.4 41.8 26.9 37.15 17.4 33.9 18.8 Q30.3 18.25 29.1 17.2 26.45 15.55 23.15 15.9 L22.9 16 22.25 16.2 22.05 16.3 21.75 16.7 19.4 19.8 Q18.95 20.25 18.95 20.85 18.95 21.45 19.45 21.85 19.9 22.25 20.7 22.2 L22.15 21.9 23.35 20.8 26.35 20.65 26.3 21 Q26.3 22.55 27.7 23.65 29.05 24.75 30.9 24.8 L31.1 24.8 31.25 24.95 M22.25 16.2 L23.15 15.9 M37.15 17.4 L39.4 16.4 42.8 26.4 48.8 27 M39.2 16.2 L39.3 14.7 45.15 12.4 M6.95 9.8 L11.95 13.4 11.85 15.75 11.95 15.6 12.85 16.15 15.95 18.1 Q18.65 18.55 22.05 16.3 M12.85 16.15 L11.95 18 Q12.25 18.15 12.55 18.45 13.45 19.35 13.45 20.6 13.45 21.85 12.55 22.7 11.7 23.6 10.45 23.6 L9.3 23.4 8.25 25.5 M9.3 23.4 L8.3 22.7 7.65 21.65 5.85 24.1 13.25 29.6 Q13.25 29.55 15.05 28.25 L15.2 28.25 Q15.85 28.3 16.4 28.65 16.95 29 16.95 29.5 L16.8 30.05 Q17.7 29 18.3 28.95 19 28.85 19.75 29.8 L20.25 30.6 20.55 30.45 Q21.4 30.05 22.1 31.1 L22.45 31.75 22.9 31.8 Q23.8 32 23.85 32.7 L23.45 34.35 Q23.05 35.3 24 35.85 L26.4 37.75 Q29.25 38.15 28.6 35.9 L25.2 32.6 M7.65 21.65 L10.5 17.6 11.85 15.75 M20.25 30.6 L18.9 31.7 Q18.05 32.55 17.95 33.3 L17.95 34.5 17.95 34.45 18.25 35.45 18.55 36.1 18.95 36.55 Q19.55 37.05 20.5 36.35 20.2 35.6 20.55 34.4 20.85 33.2 21.4 32.35 21.85 31.75 22.45 31.75 M18.25 35.45 L18.2 35.45 18.55 36.1 M18.2 35.45 L17.95 34.5 16.85 35.2 Q16.25 35.35 15.85 34.9 L15.35 33.8 14.7 33.85 Q13.8 33.95 13.15 31.4 L13.25 29.6 M16.8 30.05 L16.35 30.65 16.1 30.9 Q15.1 32.25 15.25 32.95 L15.35 33.8 15.25 33.55 15.2 33.7 14.7 33.85 M16.1 30.9 L16.35 30.6 16.8 30.05 M24 35.85 L23.5 36.95 22.65 37.85 22.15 37.95 Q21.4 37.95 20.85 37.1 L20.35 37.15 Q19.55 37.15 18.95 36.55 M20.85 37.1 L20.75 36.95 20.5 36.35 M10.65 20.8 L12.85 20.2 M10.5 17.6 L11.95 18 M5.55 24.3 L1.15 24.7 M36.5 30 L36.5 30.2 Q36.65 32.95 33.8 31.8 L33.85 32 Q34.6 35.1 31.8 34.65 L31.8 34.75 Q31.85 37.1 29.1 36.05 L28.9 35.95 28.85 35.95 28.6 35.9 28.6 35.85 28.85 35.95 M29.6 27.9 L33.85 32 M31.8 34.75 L26.9 30 M42.8 26.4 L41.8 26.9"/>
    <path fill="none" stroke="#594b35" stroke-width="1" stroke-linecap="round" stroke-linejoin="round" d="M41.85 8.15 Q48.9 15.15 48.9 25.05 48.9 34.95 41.85 41.95 34.85 49 24.95 49 15.05 49 8.05 41.95 1.05 34.95 1.05 25.05 1.05 15.15 8.05 8.15 15.05 1.15 24.95 1.15 34.85 1.15 41.85 8.15"/>
  </g>
</svg>