<svg width="48.85px" height="48.85px" viewBox="0 0 48.85 48.85" xmlns="http://www.w3.org/2000/svg" xmlns:xlink="http://www.w3.org/1999/xlink">
  <defs/>
  <g id="17">
    <path stroke="none" fill="#594b35" d="M24.4 5.75 L23.95 6 21.15 7.45 Q16.35 9.8 15.5 10.35 L10.4 13.15 9.1 13.95 8.05 13.95 Q7.55 13.9 7.25 14.35 L7.05 14.85 6.75 14.85 Q5.9 14.65 5.4 15.1 5.05 15.4 5.05 15.85 L5.05 15.95 Q5.05 16.95 6.1 16.95 L6.6 16.85 6.7 16.85 Q6.8 17.55 7.65 17.55 L8.5 18.4 Q9.95 19.65 10.05 21.1 10.1 21.5 11.15 22.3 L12.45 23.55 12.75 24.75 13.05 26.05 13.05 29.65 12.3 29.65 9.75 29.65 9.4 29.75 2.35 29.75 Q1.85 29.7 1.55 30.15 L1.5 30.3 Q0.95 27.75 0.95 25 L1.05 22.7 Q1.25 20.4 1.85 18.3 3.45 12.6 7.9 8.1 L9.8 6.4 Q16.2 1.15 24.8 1.15 33.4 1.15 39.8 6.4 L41.65 8.1 Q46.15 12.6 47.75 18.3 48.65 21.45 48.65 25 48.65 27.7 48.15 30.15 47.9 29.7 47.25 29.65 L38.35 29.65 38.35 29.45 38.15 26.2 38.1 24.95 Q38.1 24.25 38.4 23.85 L39.8 22.55 40.85 21.35 40.95 20.1 Q41 19.35 41.35 18.95 41.55 18.75 42.8 18.25 43.9 17.65 43.95 16.7 44.45 16.45 44.45 15.85 44.45 14.95 43.45 14.85 L43.3 14.85 Q42.65 13.65 35.1 10.55 L29.55 7.35 28 6.75 Q25.65 4 24.4 5.75"/>
    <path stroke="none" fill="#cccccc" d="M36.35 23.05 L36.3 23 36.45 22.95 36.35 23.05 M30.85 10.85 L30.65 10.5 34.1 12.35 30.85 10.85"/>
    <path fill="none" stroke="#594b35" stroke-width="1" stroke-linecap="round" stroke-linejoin="round" d="M11.95 35.05 L3.55 35.05 M2.3 32.45 L12 32.45 M1.65 29.85 L12.45 29.85 M9.35 38.45 L12.55 36.05 M25.15 5.25 L4.55 15.85 9.35 19.05 M9.95 21.45 L12.35 23.85 M38.35 35.05 L46.35 35.05 M38.55 32.45 L47.65 32.45 M38.7 29.85 L48.15 29.85 M38.25 36.45 L40.55 38.25 M38.15 23.85 L40.75 21.65 M40.95 19.25 L45.35 16.05 M25.75 5.15 L45.35 15.65"/>
    <path fill="none" stroke="#594b35" stroke-width="1" stroke-linecap="round" stroke-linejoin="round" d="M23.75 16.05 L23.75 11.85 Q25.55 9.85 27.35 11.85 L27.35 16.05 M32.1 47.7 Q31.75 47.2 31.75 46.55 31.75 45.7 32.35 45.05 33 44.45 33.85 44.45 34.7 44.45 35.3 45.05 35.8 45.55 35.9 46.15 M23.55 48.65 L23.55 44.45 27.15 44.45 27.15 48.65 M14.55 46.5 Q14.55 45.7 15.15 45.05 15.8 44.45 16.65 44.45 17.5 44.45 18.1 45.05 18.75 45.7 18.75 46.55 18.75 47.4 18.1 48"/>
    <path fill="none" stroke="#594b35" stroke-width="1" stroke-linecap="round" stroke-linejoin="round" d="M8.15 8 Q15.15 1 25.05 1 34.95 1 41.95 8 49 15 49 24.9 49 34.8 41.95 41.8 34.95 48.85 25.05 48.85 15.15 48.85 8.15 41.8 1.15 34.8 1.15 24.9 1.15 15 8.15 8"/>
    <path fill="none" stroke="#594b35" stroke-width="1" stroke-linecap="round" stroke-linejoin="round" d="M9.75 18.2 L40.95 18.2 40.95 21.5 9.75 21.5 9.75 18.2 M12.55 23.3 L16.2 23.3 16.2 36.5 12.55 36.5 12.55 23.3 M31.05 23.3 L31.05 36.5 27.4 36.5 27.4 23.3 31.05 23.3 M23.45 23.3 L23.45 36.5 19.8 36.5 19.8 23.3 23.45 23.3 M34.7 36.5 L38.3 36.5 38.3 23.3 34.7 23.3 34.7 36.5 M25.45 7.75 L42.6 16.35 8.25 16.35 25.45 7.75 M9.4 38.45 L40.6 38.45 40.6 41.75 9.4 41.75 9.4 38.45"/>
  </g>
</svg>