<svg width="48.85px" height="48.85px" viewBox="0 0 48.85 48.85" xmlns="http://www.w3.org/2000/svg" xmlns:xlink="http://www.w3.org/1999/xlink">
  <defs/>
  <g id="18">
    <path fill="none" stroke="#594b35" stroke-width="1" stroke-linecap="round" stroke-linejoin="round" d="M48.85 24.9 Q48.85 34.8 41.8 41.8 34.8 48.85 24.9 48.85 15 48.85 8 41.8 1 34.8 1 24.9 1 15 8 8 15 1 24.9 1 34.8 1 41.8 8 48.85 15 48.85 24.9"/>
    <path stroke="none" fill="#594b35" d="M23.25 14.7 Q22.15 13.5 20.55 13.5 18.3 13.5 15.9 15.85 12.6 19.4 10.05 25.45 8.2 29.95 8.2 32.5 8.2 34.55 9.3 35.65 10.4 36.85 11.8 36.85 13.45 36.85 15.45 35.55 17.4 34.2 19.6 31.45 21.6 28.75 22.6 25.8 24.4 21.1 24.4 17.9 24.4 16 23.25 14.7 M30.4 2.05 L30.2 1.95 31 1.7 31.55 1.9 35 3 Q37.65 5.25 39.3 8.35 41.9 13.4 41.9 19 41.9 24.5 39.45 30.05 36.95 35.55 33.1 38.05 29.25 40.55 25.1 40.55 22.7 40.55 21.6 39.4 20.45 38.3 20.45 36.4 L21 31.9 Q16.6 37.3 13.75 38.95 10.95 40.6 8.95 40.6 6.7 40.6 5.1 38.6 3.4 36.7 3.4 33.45 3.4 28.95 6.25 23.5 9.1 18.1 13.9 14.6 17.6 12 20.25 12 22.25 12 23.65 13.15 24.95 14.15 25.45 16.25 L26.5 12.95 31.25 12.2 25.3 33.05 24.85 36 Q24.85 36.85 25.45 37.7 26.1 38.3 27.1 38.3 29.4 38.3 32.5 36.15 35.75 33.8 37.9 28.9 40.05 23.9 40.05 18.45 40.05 13.2 37.6 8.8 34.9 4.2 30.4 2.05"/>
  </g>
</svg>