<svg width="48.85px" height="48.85px" viewBox="0 0 48.85 48.85" xmlns="http://www.w3.org/2000/svg" xmlns:xlink="http://www.w3.org/1999/xlink">
  <defs/>
  <g id="19">
    <path stroke="none" fill="#594b35" d="M32.45 34.3 Q32.1 36.45 28.4 37.85 24.8 39.2 19.7 39.35 14.55 39.5 10.9 38.25 7.25 37.05 6.9 34.6 6.6 32.15 10.3 30.1 14 28.1 19.6 28 25.15 27.9 29.05 30.05 32.85 32.1 32.45 34.3"/>
    <path fill="none" stroke="#594b35" stroke-width="1" stroke-linecap="round" stroke-linejoin="round" d="M48.95 25 Q48.95 34.9 41.9 41.9 34.9 48.95 25 48.95 15.1 48.95 8.1 41.9 1.1 34.9 1.1 25 1.1 15.1 8.1 8.1 15.1 1.1 25 1.1 34.9 1.1 41.9 8.1 48.95 15.1 48.95 25"/>
    <path stroke="none" fill="#ffffff" d="M35.7 29.35 Q39.45 31.5 39 33.7 38.6 35.8 34.9 37.15 31.3 38.45 26.2 38.5 21 38.55 17.4 37.25 13.75 36 13.45 33.5 13.2 31.05 16.95 29.1 20.7 27.15 26.3 27.15 31.85 27.15 35.7 29.35"/>
    <path fill="none" stroke="#594b35" stroke-width="1" stroke-linecap="round" stroke-linejoin="round" d="M13.75 34.05 L13.75 31.95 13.65 31.55 13.7 31.35 Q13.9 29.75 17.3 28.5 21 27.2 26.05 27.15 31.25 27.1 34.9 28.4 38.4 29.5 38.6 31.1 L38.6 31.35 38.5 31.75 38.55 34.55 M13.7 31.35 L13.75 31.95 Q13.9 32.5 14.4 32.95 15.35 33.85 17.35 34.5 L18.1 34.75 18.15 34.75 Q21.6 35.75 26.15 35.65 L26.6 35.7 31 35.35 34.9 34.35 36.8 33.6 37.9 32.75 38.5 31.75 38.6 31.1 M14.3 34.35 L14.35 34 M22.35 35.9 L22.4 37.5 M18.15 36.9 L18.15 34.75 M36.8 33.6 L36.8 35.6 M38.1 34.55 L38.1 34.85"/>
    <path fill="none" stroke="#594b35" stroke-width="1.8" stroke-linecap="round" stroke-linejoin="round" d="M38.1 34.85 Q37.5 36.2 34.75 37.2 31.25 38.45 26.3 38.5 21.35 38.55 17.95 37.35 14.35 36.15 14.3 34.35"/>
    <path stroke="none" fill="#ffffff" d="M35.5 23.75 Q39.25 25.9 38.8 28.1 38.4 30.2 34.7 31.55 31.1 32.85 26 32.9 20.8 32.95 17.2 31.65 13.55 30.4 13.25 27.9 13 25.45 16.75 23.5 20.5 21.55 26.1 21.55 31.65 21.55 35.5 23.75"/>
    <path fill="none" stroke="#594b35" stroke-width="1" stroke-linecap="round" stroke-linejoin="round" d="M36.4 27.9 L37.5 27 38.15 26 38.2 25.35 Q38 23.75 34.55 22.65 30.85 21.35 25.7 21.4 20.6 21.45 16.9 22.75 13.5 24 13.35 25.6 L13.35 26.25 Q13.5 26.75 14 27.25 14.95 28.1 16.95 28.75 L17.75 29 Q21.2 30 25.8 29.95 L26.2 29.95 30.6 29.6 34.5 28.6 36.4 27.9 36.4 29.85 M13.9 28.65 L13.95 28.25 M17.75 31.15 L17.75 29 M21.95 30.15 L22 31.75 M38.15 26 L38.2 25.6 38.2 25.35 M38.15 28.8 L38.15 26 M37.7 28.8 L37.7 29.15 M13.35 28.3 L13.35 26.25 13.3 25.8 13.35 25.6"/>
    <path fill="none" stroke="#594b35" stroke-width="1.8" stroke-linecap="round" stroke-linejoin="round" d="M37.7 29.15 Q37.1 30.45 34.4 31.45 30.85 32.75 25.9 32.75 20.95 32.8 17.55 31.6 13.95 30.4 13.9 28.65"/>
    <path stroke="none" fill="#ffffff" d="M37.3 18 Q41.05 20.15 40.6 22.35 40.2 24.45 36.5 25.8 32.9 27.1 27.8 27.15 22.6 27.2 19 25.9 15.35 24.65 15.05 22.15 14.8 19.7 18.55 17.75 22.3 15.8 27.9 15.8 33.45 15.8 37.3 18"/>
    <path fill="none" stroke="#594b35" stroke-width="1" stroke-linecap="round" stroke-linejoin="round" d="M15.8 23 L15.85 22.6 M32.5 23.95 L36.4 22.95 38.3 22.25 39.4 21.35 40.05 20.35 40.1 19.7 Q39.9 18.1 36.45 17 32.75 15.7 27.6 15.75 22.5 15.8 18.8 17.1 15.4 18.35 15.25 19.95 L15.25 20.6 Q15.4 21.1 15.9 21.6 16.85 22.45 18.85 23.1 L19.65 23.35 Q23.1 24.35 27.7 24.3 L28.1 24.3 32.5 23.95 M23.85 24.5 L23.9 26.1 M19.65 25.5 L19.65 23.35 M40.1 19.7 L40.1 19.95 40.05 20.35 40.05 23.15 M38.3 22.25 L38.3 24.2 M39.6 23.15 L39.6 23.5 M15.25 22.65 L15.25 20.6 15.2 20.15 15.25 19.95"/>
    <path fill="none" stroke="#594b35" stroke-width="1.8" stroke-linecap="round" stroke-linejoin="round" d="M39.6 23.5 Q39 24.8 36.3 25.8 32.75 27.1 27.8 27.1 22.85 27.15 19.45 25.95 15.85 24.75 15.8 23"/>
    <path stroke="none" fill="#ffffff" d="M36.05 18.2 Q35.7 20.35 32 21.75 28.4 23.1 23.3 23.25 18.15 23.4 14.5 22.15 10.85 20.95 10.5 18.5 10.2 16.05 13.9 14 17.6 12 23.2 11.9 28.75 11.8 32.65 13.95 36.45 16 36.05 18.2"/>
    <path fill="none" stroke="#594b35" stroke-width="1" stroke-linecap="round" stroke-linejoin="round" d="M35.7 15.65 Q35.45 14.05 32 13 28.25 11.75 23.1 11.9 18 12.05 14.35 13.4 10.95 14.7 10.85 16.3 L10.85 16.95 11.55 17.95 Q12.5 18.8 14.5 19.4 L15.3 19.65 Q18.8 20.6 23.35 20.45 L23.75 20.45 28.15 20 32.05 18.95 33.95 18.2 35 17.3 35.65 16.3 35.7 15.65 35.7 15.9 35.65 16.3 35.7 19.1 M11.45 19.35 L11.5 18.95 M35.25 19.1 L35.25 19.45 M33.95 18.2 L33.95 20.15 M19.55 20.7 L19.6 22.3 M15.35 21.8 L15.3 19.65 M10.9 19 L10.85 16.95 10.8 16.5 10.85 16.3"/>
    <path fill="none" stroke="#594b35" stroke-width="1.8" stroke-linecap="round" stroke-linejoin="round" d="M35.25 19.45 Q34.7 20.75 32 21.8 28.45 23.15 23.5 23.25 18.6 23.4 15.15 22.25 11.55 21.1 11.45 19.35"/>
    <path fill="none" stroke="#594b35" stroke-width="1" stroke-linecap="round" stroke-linejoin="round" d="M25.45 20.3 L14.65 13.5"/>
  </g>
</svg>