<svg width="48px" height="48px" viewBox="0 0 48 48" xmlns="http://www.w3.org/2000/svg" xmlns:xlink="http://www.w3.org/1999/xlink">
  <defs/>
  <g id="2">
    <path stroke="none" fill="#594b35" d="M18.35 9.4 L18.25 9.45 17.95 9.5 15.35 9.95 7.85 11.2 7.4 11.25 Q3.9 11.05 14.25 3.45 22.8 -0.3 31.35 2.35 22.95 3.9 19.1 8.6 L18.55 9.3 18.35 9.4 17.95 9.5 18.35 9.4 M39.2 38.8 L39 38.2 40 37.65 40.15 37.45 40.3 37.3 Q42.5 34.75 47.05 33.1 46.65 33.55 47.25 33.7 L42 41.45 41 41.45 40.95 41.4 40.9 41.35 41 41.25 40.85 41.3 40.75 41.15 40.85 41.3 41 41.25 40.9 41.35 40.95 41.4 38.8 44.7 Q26 50.15 18.25 47.7 L27.95 44.95 18.25 47.7 17.5 47.45 27.95 44.95 39.5 42.2 39.9 42 39.95 41.95 40.35 41.7 40.65 41.5 40.9 41.35 40.85 41.3 40.65 41.5 40.4 41.6 40.65 41.5 40.85 41.3 40.9 41.35 40.65 41.5 40.35 41.7 40.4 41.6 40.75 41.15 40.05 40.25 39.65 40.35 39.55 39.95 39.35 39.3 39.2 38.8 39.25 38.75 40 37.65 39.25 38.75 39.2 38.8 M15.35 9.95 Q11.6 9.8 7.85 11.2 11.6 9.8 15.35 9.95 M2 24.45 L11 43.45 Q7.1 42.55 4.15 35.7 0.15 26.2 2 24.45 M39.35 39.3 L40.05 40.25 39.35 39.3"/>
    <path fill="none" stroke="#594b35" stroke-width="1" stroke-linecap="round" stroke-linejoin="round" d="M17.95 9.5 L15.35 9.95 M7.85 11.2 Q6.4 11.7 4.95 12.45 M18.35 9.4 L18.75 9.3 17.3 9.95 18.5 10 18.85 10 19 10.2 39 38.85 39.2 38.8 39.05 38.9 39 38.85 15.45 44.95 M40 37.65 L40.15 37.45 40.3 37.3 Q42.5 34.75 47.05 33.1 M41 41.45 L41.2 41.75 41.5 41.7 M18.55 9.3 L19.1 8.6 Q22.95 3.9 31.35 2.35 M7.85 11.2 Q11.6 9.8 15.35 9.95 M17.3 9.95 L17.2 10 18.5 10 M17.2 10 L17.3 9.9 17.3 9.95 M17.95 9.5 L18.35 9.4 M39.35 39.3 L39.05 38.9 M39.2 38.8 L39.25 38.75 40 37.65 M16.2 46.45 L39.45 40.4 39.55 39.95 M39.65 40.35 L40.05 40.25 39.35 39.3 M40.75 41.15 L40.85 41.3 41 41.25 40.9 41.35 40.95 41.4 41 41.45 M40.4 41.6 L40.65 41.5 40.85 41.3 40.9 41.35 40.65 41.5 40.35 41.7 40.25 41.75 39.95 41.95 39.9 42 39.5 42.2 M27.95 44.95 L18.25 47.7 M40.75 41.15 L40.05 40.25 M40.4 41.6 L40.25 41.75 27.95 44.95 M39.65 40.35 L39.45 40.4 M4.8 12.8 Q13.6 9.35 19 10.2 M1.95 19.7 L15 44.7 M1.45 23.2 L12.2 44.95"/>
    <path fill="none" stroke="#594b35" stroke-width="1" stroke-linecap="round" stroke-linejoin="round" d="M41.6 8.4 Q48.45 15.3 48.45 25.05 48.45 34.8 41.6 41.7 34.7 48.55 24.95 48.55 15.2 48.55 8.3 41.7 1.45 34.8 1.45 25.05 1.45 15.3 8.3 8.4 15.2 1.55 24.95 1.55 34.7 1.55 41.6 8.4"/>
  </g>
</svg>