<svg width="48.85px" height="48.85px" viewBox="0 0 48.85 48.85" xmlns="http://www.w3.org/2000/svg" xmlns:xlink="http://www.w3.org/1999/xlink">
  <defs/>
  <g id="20">
    <path fill="none" stroke="#594b35" stroke-width="1" stroke-linecap="round" stroke-linejoin="round" d="M14.05 14.35 L38.65 21.75 40.05 20.4 M38.65 21.75 L39.05 21.85 M14.05 15.85 L21.05 34.35 M21.55 37.4 L38.65 21.75"/>
    <path stroke="none" fill="#594b35" d="M42 18.9 Q43.55 20.45 43.55 22.6 43.55 24.75 42 26.3 40.45 27.85 38.3 27.85 36.15 27.85 34.6 26.3 33.05 24.75 33.05 22.6 33.05 20.45 34.6 18.9 36.15 17.35 38.3 17.35 40.45 17.35 42 18.9 M20.05 15.6 Q20.05 17.75 18.5 19.3 16.95 20.85 14.8 20.85 12.65 20.85 11.1 19.3 9.55 17.75 9.55 15.6 9.55 13.45 11.1 11.9 12.65 10.35 14.8 10.35 16.95 10.35 18.5 11.9 20.05 13.45 20.05 15.6 M25 40.3 Q23.45 41.85 21.3 41.85 19.15 41.85 17.6 40.3 16.05 38.75 16.05 36.6 16.05 34.45 17.6 32.9 19.15 31.35 21.3 31.35 23.45 31.35 25 32.9 26.55 34.45 26.55 36.6 26.55 38.75 25 40.3"/>
    <path fill="none" stroke="#594b35" stroke-width="1" stroke-linecap="round" stroke-linejoin="round" d="M48.95 24.85 Q48.95 34.75 41.9 41.75 34.9 48.8 25 48.8 15.1 48.8 8.1 41.75 1.1 34.75 1.1 24.85 1.1 14.95 8.1 7.95 15.1 0.95 25 0.95 34.9 0.95 41.9 7.95 48.95 14.95 48.95 24.85"/>
  </g>
</svg>