<svg width="48.85px" height="48.85px" viewBox="0 0 48.85 48.85" xmlns="http://www.w3.org/2000/svg" xmlns:xlink="http://www.w3.org/1999/xlink">
  <defs/>
  <g id="21">
    <path stroke="none" fill="#594b35" d="M26.35 39.45 L26.35 49.05 21.95 49.05 21.95 39.45 26.35 39.45 M26.75 1.2 L26.75 10.8 22.35 10.8 22.35 1.2 26.75 1.2"/>
    <path fill="none" stroke="#594b35" stroke-width="1" stroke-linecap="round" stroke-linejoin="round" d="M41.9 8.2 Q48.95 15.2 48.95 25.1 48.95 35 41.9 42 34.9 49.05 25 49.05 15.1 49.05 8.1 42 1.1 35 1.1 25.1 1.1 15.2 8.1 8.2 15.1 1.2 25 1.2 34.9 1.2 41.9 8.2"/>
    <path stroke="none" fill="#594b35" d="M10.25 25.75 Q10.25 20.9 11.7 17 13.2 13.15 16.1 11.05 19.05 8.9 23.1 8.9 28.95 8.9 31.35 12.75 L31.45 12.75 31.45 9.65 36.6 9.65 36.6 20.8 31.45 20.8 Q31.3 17.35 29.3 15.4 27.25 13.55 24.1 13.55 20 13.55 18.2 17.15 16.35 20.75 16.35 26.25 16.35 31.1 18.4 34.25 20.5 37.35 24.6 37.35 27.5 37.35 29.4 35.3 31.4 33.2 31.45 29.7 L27.45 29.7 27.45 25.1 39.5 25.1 39.5 29.7 36.8 29.7 36.8 41.35 31.7 41.35 31.7 37.8 31.6 37.8 Q29.5 41.95 24.3 41.95 17.4 41.95 13.85 37.55 10.25 32.95 10.25 25.75"/>
  </g>
</svg>