<svg width="48.85px" height="48.85px" viewBox="0 0 48.85 48.85" xmlns="http://www.w3.org/2000/svg" xmlns:xlink="http://www.w3.org/1999/xlink">
  <defs/>
  <g id="3">
    <path fill="none" stroke="#594b35" stroke-width="1" stroke-linecap="round" stroke-linejoin="round" d="M13.45 15.15 L38.45 22.65 M13.45 16.65 L20.45 35.15"/>
    <path stroke="none" fill="#594b35" d="M37.7 18.15 Q39.85 18.15 41.4 19.7 42.95 21.25 42.95 23.4 42.95 25.55 41.4 27.1 39.85 28.65 37.7 28.65 35.55 28.65 34 27.1 32.45 25.55 32.45 23.4 32.45 21.25 34 19.7 35.55 18.15 37.7 18.15 M8.95 16.4 Q8.95 14.25 10.5 12.7 12.05 11.15 14.2 11.15 16.35 11.15 17.9 12.7 19.45 14.25 19.45 16.4 19.45 18.55 17.9 20.1 16.35 21.65 14.2 21.65 12.05 21.65 10.5 20.1 8.95 18.55 8.95 16.4 M25.95 37.4 Q25.95 39.55 24.4 41.1 22.85 42.65 20.7 42.65 18.55 42.65 17 41.1 15.45 39.55 15.45 37.4 15.45 35.25 17 33.7 18.55 32.15 20.7 32.15 22.85 32.15 24.4 33.7 25.95 35.25 25.95 37.4"/>
    <path fill="none" stroke="#594b35" stroke-width="1" stroke-linecap="round" stroke-linejoin="round" d="M24.9 1.25 Q34.8 1.25 41.8 8.25 48.85 15.25 48.85 25.15 48.85 35.05 41.8 42.05 34.8 49.1 24.9 49.1 15 49.1 8 42.05 1 35.05 1 25.15 1 15.25 8 8.25 15 1.25 24.9 1.25"/>
  </g>
</svg>