<svg width="48.85px" height="48.85px" viewBox="0 0 48.85 48.85" xmlns="http://www.w3.org/2000/svg" xmlns:xlink="http://www.w3.org/1999/xlink">
  <defs/>
  <g id="4">
    <path fill="none" stroke="#594b35" stroke-width="1" stroke-linecap="round" stroke-linejoin="round" d="M24.95 0.95 Q34.85 0.95 41.85 7.95 48.9 14.95 48.9 24.85 48.9 34.75 41.85 41.75 34.85 48.8 24.95 48.8 15.05 48.8 8.05 41.75 1.05 34.75 1.05 24.85 1.05 14.95 8.05 7.95 15.05 0.95 24.95 0.95"/>
    <path fill="none" stroke="#594b35" stroke-width="1" stroke-linecap="round" stroke-linejoin="round" d="M15.65 21 L18.75 41.8"/>
    <path fill="none" stroke="#594b35" stroke-width="1" stroke-linecap="round" stroke-linejoin="round" d="M41.65 17.85 Q40.1 19.9 37.55 20.25 36.3 20.45 35.1 20.25 34.45 20.7 33.7 20.75 L32.3 20.75 32 21.1 31.25 21.6 Q31.05 22.4 31.15 24.1 31.3 26.85 28.6 26.95 L27.6 26.9 Q29.55 29.65 30.35 32.5 30.75 34.05 30.75 35.35 L30.75 35.55 30.25 37.5 29.5 40.4 29.25 41.4 Q29 42.2 28.35 42.75 26.15 44.85 21.35 42.95 16.6 41.15 12.1 36.45 7.55 31.75 5.85 26.95 4.2 22.25 6.4 20.15 7.35 19.25 8.8 19.1 L9.35 19.1 13.3 18.65 17.35 19.05 Q20.3 20.05 23.1 22.25 L23.15 21.35 Q23.45 18.65 26.25 19 L28.75 19 29.25 18.3 29.8 17.9 Q29.6 16.75 30.35 15.6 L30.35 15.15 Q29.95 12.65 31.4 10.6 32.95 8.55 35.5 8.1 38.1 7.8 40.2 9.25 42.3 10.75 42.7 13.2 43.1 15.8 41.65 17.85 M40.35 13.55 Q40.15 12.05 38.9 11.2 37.65 10.3 36.1 10.55 34.65 10.75 33.7 11.95 33 13 33 14.25 34.15 14.15 35.15 14.85 36.3 15.65 36.55 16.95 L36.55 17.8 37.3 17.65 Q38.85 17.5 39.75 16.25 40.65 15.05 40.35 13.55 M9.35 19.1 L11.45 19.35 13.4 19.95 Q18.2 21.8 22.75 26.5 27.25 31.2 28.9 35.95 29.4 37.4 29.5 38.6 L30.25 37.5 M30.35 15.6 L30.4 15.55 Q31.25 14.45 32.65 14.2 L33 14.25 M29.8 17.9 L30.65 17.75 Q31.5 17.75 32.05 18.35 32.65 18.95 32.6 19.75 L32.3 20.75 M36.55 17.8 L35.9 19.45 35.1 20.25 M27.6 26.9 L25.4 24.35 23.1 22.25 M29.5 38.6 L29.5 40.4"/>
  </g>
</svg>