<svg width="48.85px" height="48.85px" viewBox="0 0 48.85 48.85" xmlns="http://www.w3.org/2000/svg" xmlns:xlink="http://www.w3.org/1999/xlink">
  <defs/>
  <g id="6">
    <path fill="none" stroke="#594b35" stroke-width="1" stroke-linecap="round" stroke-linejoin="round" d="M16.5 14.6 L16.5 19.55 24.7 19.55 24.85 6.25 38.65 19.55 24.7 19.55 24.7 33.5 31.9 33.5 31.9 29.25 M31.9 33.5 L38.75 33.5 M24.7 33.5 L24.7 43.7 11.25 33.5 24.7 33.5 M31.9 38 L31.9 33.5 M11.05 19.55 L16.5 19.55 16.5 24.05"/>
    <path fill="none" stroke="#594b35" stroke-width="1" stroke-linecap="round" stroke-linejoin="round" d="M41.85 8.25 Q48.9 15.25 48.9 25.15 48.9 35.05 41.85 42.05 34.85 49.1 24.95 49.1 15.05 49.1 8.05 42.05 1.05 35.05 1.05 25.15 1.05 15.25 8.05 8.25 15.05 1.25 24.95 1.25 34.85 1.25 41.85 8.25"/>
  </g>
</svg>