<svg width="48.85px" height="48.85px" viewBox="0 0 48.85 48.85" xmlns="http://www.w3.org/2000/svg" xmlns:xlink="http://www.w3.org/1999/xlink">
  <defs/>
  <g id="7">
    <path fill="none" stroke="#594b35" stroke-width="1" stroke-linecap="round" stroke-linejoin="round" d="M41.75 41.95 Q34.75 49 24.85 49 14.95 49 7.95 41.95 0.95 34.95 0.95 25.05 0.95 15.15 7.95 8.15 11.25 4.85 15.2 3.1 19.65 1.15 24.85 1.15 30.1 1.15 34.5 3.1 38.45 4.85 41.75 8.15 48.8 15.15 48.8 25.05 48.8 34.95 41.75 41.95 M39.9 20.6 L38.5 21.95 38.9 22.05"/>
    <path stroke="none" fill="#594b35" d="M41.85 19.1 Q43.4 20.65 43.4 22.8 43.4 24.95 41.85 26.5 40.3 28.05 38.15 28.05 36 28.05 34.45 26.5 32.9 24.95 32.9 22.8 32.9 20.65 34.45 19.1 36 17.55 38.15 17.55 40.3 17.55 41.85 19.1 M18.35 12.1 Q19.9 13.65 19.9 15.8 19.9 17.95 18.35 19.5 16.8 21.05 14.65 21.05 12.5 21.05 10.95 19.5 9.4 17.95 9.4 15.8 9.4 13.65 10.95 12.1 12.5 10.55 14.65 10.55 16.8 10.55 18.35 12.1 M21.15 42.05 Q19 42.05 17.45 40.5 15.9 38.95 15.9 36.8 15.9 34.65 17.45 33.1 19 31.55 21.15 31.55 23.3 31.55 24.85 33.1 26.4 34.65 26.4 36.8 26.4 38.95 24.85 40.5 23.3 42.05 21.15 42.05"/>
    <path fill="none" stroke="#594b35" stroke-width="1" stroke-linecap="round" stroke-linejoin="round" d="M34.5 15.05 Q38.45 19 38.45 24.6 38.45 30.2 34.5 34.15 30.55 38.1 24.95 38.1 19.35 38.1 15.4 34.15 11.45 30.2 11.45 24.6 11.45 19 15.4 15.05 19.35 11.1 24.95 11.1 30.55 11.1 34.5 15.05"/>
  </g>
</svg>