<svg width="48.85px" height="48.85px" viewBox="0 0 48.85 48.85" xmlns="http://www.w3.org/2000/svg" xmlns:xlink="http://www.w3.org/1999/xlink">
  <defs/>
  <g id="8">
    <path stroke="none" fill="#594b35" d="M15.3 18.6 L13.8 18.6 13.8 23.65 16.6 23.65 16.6 25.9 Q17.7 24.9 18.65 25.9 L18.65 22.7 20.9 22.7 20.9 13.2 19.2 13.2 19.2 8.15 21.65 8.15 21.65 10.2 Q22.6 11.1 23.5 10.2 L23.5 8.15 25.95 8.15 25.95 10.2 Q26.9 11.15 27.8 10.2 L27.8 8.15 30.2 8.15 30.2 13.2 28.55 13.2 28.55 22.7 30.95 22.7 30.95 25.9 Q31.9 24.75 33.2 25.9 L33.2 23.65 35.85 23.65 35.85 18.4 34.35 18.4 34.35 14.5 36.55 14.5 36.55 16 Q37.6 16.85 38.45 16 L38.45 14.5 40.3 14.5 40.3 16 Q41.55 16.85 42.2 16 L42.2 14.5 44.05 14.5 44.05 18.4 42.55 18.4 42.55 23.65 46.1 23.65 46.1 25.9 Q47.45 24.7 48.65 25.9 L48.65 26.2 27.1 26.2 27.1 25.95 Q27.1 24.95 26.4 24.25 25.7 23.55 24.7 23.55 23.7 23.55 23 24.25 22.3 24.95 22.3 25.95 L22.3 26.2 1.1 26.2 1.1 25.9 Q2.5 24.9 3.7 25.9 L3.7 23.65 7.05 23.65 7.05 18.6 5.55 18.6 5.55 14.7 7.6 14.7 7.6 16 Q8.65 16.7 9.5 16 L9.5 14.7 11.75 14.7 11.75 16 Q12.75 16.75 13.6 16 L13.6 14.7 15.3 14.7 15.3 18.6 M5.5 38.9 Q4.45 37.6 3.95 36.4 L20.15 36.4 20.15 35.5 3.65 35.5 2.7 33.15 47.75 33.15 46.75 35.3 46.6 35.55 29.05 35.55 29.05 36.45 46.05 36.45 44.5 38.95 29.05 38.95 29.05 39.85 43.9 39.85 41.65 42.2 29.05 42.2 29.05 43.1 40.6 43.1 39.15 44.15 36.9 45.7 29.05 45.7 29.05 46.6 34.95 46.6 34.55 46.9 33.3 47.6 Q32.15 48 31.85 48.15 L28.5 48.9 28.45 35.95 Q24.45 33.7 20.85 35.95 L20.8 48.9 Q24.45 47.55 28.5 48.9 L28.2 48.95 26.85 49.15 22 49.15 18.95 48.7 17 48 15 46.95 14.4 46.55 20.15 46.55 20.15 45.65 12.15 45.65 Q12.1 45.05 11.55 44.65 L9.75 43.45 9.3 43.05 20.15 43.05 20.15 42.15 8.5 42.15 7.35 40.85 6.3 39.8 20.15 39.8 20.15 38.9 5.5 38.9 M1.35 27.85 L1.3 27.2 22.65 27.2 23 27.65 Q23.7 28.35 24.7 28.35 25.7 28.35 26.4 27.65 L26.75 27.2 48.85 27.2 48.75 29.3 1.7 29.3 1.35 27.85 M1.85 30.35 L1.85 30.15 48.65 30.15 48.5 31.1 Q48.2 31.35 48.05 31.85 L47.9 32.3 2.4 32.3 Q1.95 31.1 1.85 30.35 M11.15 18.4 Q10.2 17.45 9.25 18.4 L9.25 21.95 11.15 21.95 11.15 18.4 M40.1 18.4 Q39.25 17.35 38.2 18.4 L38.2 21.95 40.1 21.95 40.1 18.4 M25.75 13.4 Q24.75 12.5 23.7 13.4 L23.7 17.3 25.75 17.3 25.75 13.4"/>
    <path fill="none" stroke="#594b35" stroke-width="1" stroke-linecap="round" stroke-linejoin="round" d="M41.9 8.15 Q48.95 15.15 48.95 25.05 48.95 34.95 41.9 41.95 34.9 49 25 49 15.1 49 8.1 41.95 1.1 34.95 1.1 25.05 1.1 15.15 8.1 8.15 15.1 1.15 25 1.15 34.9 1.15 41.9 8.15"/>
  </g>
</svg>