<svg width="48.85px" height="48.85px" viewBox="0 0 48.85 48.85" xmlns="http://www.w3.org/2000/svg" xmlns:xlink="http://www.w3.org/1999/xlink">
  <defs/>
  <g id="9">
    <path stroke="none" fill="#594b35" d="M41.8 41.55 Q34.85 48.55 24.95 48.55 15.05 48.55 8.05 41.55 1.1 34.6 1.1 24.7 1.1 14.8 8.05 7.8 L9.95 6.1 Q16.35 0.85 24.95 0.85 33.55 0.85 39.95 6.1 L41.8 7.8 Q48.8 14.8 48.8 24.7 48.8 34.6 41.8 41.55"/>
    <path stroke="none" fill="#ffffff" d="M6.9 8.95 L14.65 8.95 14.65 9.9 Q11.65 10 11.65 11.7 11.65 12.6 12.9 15.8 L19.65 32.5 25.1 19.45 22.4 12.8 Q21.45 10.85 20.4 10.35 19.6 9.9 18 9.9 L18 8.95 34.65 8.95 34.65 9.9 32.85 10 Q31.75 10.2 31.3 10.75 31 11.2 31 11.75 31 12.5 32.15 15.3 L38.4 31.6 44.05 16.85 Q45.3 13.55 45.35 12.35 46.2 13.65 46.85 15.1 L35.65 44.1 34.7 44.1 26.1 21.95 16.75 44.1 15.8 44.1 4.5 16.1 3.55 13.75 Q4.9 11.2 6.9 8.95"/>
    <path fill="none" stroke="#ffffff" stroke-width="1" stroke-linecap="round" stroke-linejoin="round" d="M6.9 8.95 Q4.9 11.2 3.55 13.75 M46.85 15.1 Q46.2 13.65 45.35 12.35"/>
    <path fill="none" stroke="#594b35" stroke-width="1" stroke-linecap="round" stroke-linejoin="round" d="M24.85 0.85 Q34.75 0.85 41.75 7.85 48.8 14.85 48.8 24.75 48.8 34.65 41.75 41.65 34.75 48.7 24.85 48.7 14.95 48.7 7.95 41.65 0.95 34.65 0.95 24.75 0.95 14.85 7.95 7.85 14.95 0.85 24.85 0.85"/>
  </g>
</svg>