<?xml version="1.0" encoding="utf-8"?>
<!-- Generator: Adobe Illustrator 15.0.0, SVG Export Plug-In . SVG Version: 6.00 Build 0)  -->
<!DOCTYPE svg PUBLIC "-//W3C//DTD SVG 1.1//EN" "http://www.w3.org/Graphics/SVG/1.1/DTD/svg11.dtd">
<svg version="1.1" id="Layer_1" xmlns="http://www.w3.org/2000/svg" xmlns:xlink="http://www.w3.org/1999/xlink" x="0px" y="0px"
	 width="65.2px" height="87.87px" viewBox="0 0 65.2 87.87" enable-background="new 0 0 65.2 87.87" xml:space="preserve">
<g id="_x31_">
	<path fill="#5A4C36" d="M10.867,19.483c4.2-3.367,9.117-5.05,14.75-5.05c5.733,0,10.733,1.75,15,5.25l1.85,1.7
		c3,3,5.034,6.4,6.101,10.2l0.649,2.9l-0.5-2.051h-4.7l-7.649,15.601l-8-12.75v-9.8h7.899v2.8h6.051v-6.85
		c-0.734-0.467-1.484-1.117-2.25-1.95H10.867 M49.417,36.083l0.05,2.2c0,6.6-2.333,12.216-7,16.85c-1.7,1.7-3.517,3.083-5.45,4.15
		L49.417,36.083 M36.467,59.583c-3.267,1.7-6.884,2.55-10.85,2.55c-4.133,0-7.883-0.917-11.25-2.75l11.25-18.3L36.467,59.583
		 M13.767,59.083c-1.8-1.066-3.483-2.383-5.05-3.95c-2.4-2.399-4.167-5.05-5.3-7.95c-1.1-2.732-1.65-5.699-1.65-8.899l0.1-2.101
		L13.767,59.083 M1.917,35.833c0.1-1.467,0.35-2.883,0.75-4.25c1.067-3.8,3.083-7.2,6.05-10.2l0.75-0.7l-0.9,0.9v6.7h6.05v-2.8h7.7
		v10.05l-7.55,12.5l-7.2-15.601h-5.1L1.917,35.833"/>
	<path fill="#FFFFFF" d="M1.917,35.833l0.55-3.4h5.1l7.2,15.601l7.55-12.5v-10.05h-7.7v2.8h-6.05v-6.7l0.9-0.9l0.75-0.8l0.4-0.4
		h0.25h29.2c0.766,0.833,1.516,1.483,2.25,1.95v6.85h-6.051v-2.8h-7.899v9.8l8,12.75l7.649-15.601h4.7l0.5,2.051l0.3,1.35l-0.1,0.25
		l-12.4,23.2l-0.35,0.649l-0.2-0.35l-10.85-18.5l-11.25,18.3l-0.25,0.351l-0.35-0.65l-11.9-22.9l-0.05-0.1L1.917,35.833"/>
	<path fill="none" stroke="#5A4C36" stroke-linecap="round" stroke-linejoin="round" d="M42.567,55.233
		c-4.667,4.699-10.301,7.05-16.9,7.05c-6.6,0-12.233-2.351-16.9-7.05c-4.667-4.667-7-10.301-7-16.9s2.333-12.233,7-16.9
		c4.667-4.667,10.3-7,16.9-7c6.6,0,12.233,2.333,16.9,7c4.699,4.667,7.05,10.3,7.05,16.9S47.267,50.566,42.567,55.233"/>
</g>
<path fill="#FFFFFF" d="M32.118,63.387l18-33.75c0,0,2.5,15.188-1.188,21.875C41.892,64.277,32.118,63.387,32.118,63.387z"/>
<g>
	<polygon fill="#5A4D37" points="20,85.959 19.014,85.953 64.209,2.66 65.2,2.667 	"/>
</g>
</svg>
