<?xml version="1.0" encoding="utf-8"?>
<!-- Generator: Adobe Illustrator 15.0.0, SVG Export Plug-In . SVG Version: 6.00 Build 0)  -->
<!DOCTYPE svg PUBLIC "-//W3C//DTD SVG 1.1//EN" "http://www.w3.org/Graphics/SVG/1.1/DTD/svg11.dtd">
<svg version="1.1" id="Layer_1" xmlns="http://www.w3.org/2000/svg" xmlns:xlink="http://www.w3.org/1999/xlink" x="0px" y="0px"
	 width="65.2px" height="87.87px" viewBox="0 0 65.2 87.87" enable-background="new 0 0 65.2 87.87" xml:space="preserve">
<g id="_x31_0">
	<path fill="none" stroke="#5A4C36" stroke-linecap="round" stroke-linejoin="round" d="M42.542,21.641
		c4.7,4.667,7.05,10.301,7.05,16.9c0,6.599-2.35,12.234-7.05,16.9c-4.667,4.699-10.3,7.051-16.9,7.051
		c-6.6,0-12.233-2.352-16.899-7.051c-4.667-4.666-7-10.301-7-16.9c0-6.6,2.333-12.233,7-16.9c4.666-4.666,10.3-7,16.899-7
		C32.242,14.641,37.875,16.975,42.542,21.641"/>
	<path fill="none" stroke="#5A4C36" stroke-linecap="round" stroke-linejoin="round" d="M18.592,17.492h13.3 M20.992,58.992h11.3
		 M17.942,37.891h15.699 M20.992,45.592h10.55 M20.392,29.341h11.301"/>
	<path fill="none" stroke="#5A4C36" stroke-width="2" stroke-linecap="round" stroke-linejoin="round" d="M34.592,16.942
		c-22.667,11.866-22.75,26.283-0.25,43.25"/>
	<path fill="none" stroke="#5A4C36" stroke-width="1.5" stroke-linecap="round" stroke-linejoin="round" d="M15.942,16.891
		c24.166,12.101,24.883,26.7,2.149,43.8"/>
	<path fill="#5A4C36" d="M21.492,31.292c-0.533,0.566-1.184,0.85-1.95,0.85s-1.434-0.283-2-0.85c-0.533-0.533-0.8-1.184-0.8-1.95
		s0.267-1.434,0.8-2c0.566-0.533,1.233-0.8,2-0.8s1.417,0.267,1.95,0.8c0.566,0.566,0.85,1.233,0.85,2S22.059,30.758,21.492,31.292"
		/>
	<path fill="#5A4C36" d="M31.792,26.942c0.767,0,1.417,0.267,1.95,0.8c0.566,0.566,0.85,1.233,0.85,2s-0.283,1.416-0.85,1.95
		c-0.533,0.566-1.184,0.85-1.95,0.85s-1.434-0.283-2-0.85c-0.533-0.534-0.8-1.184-0.8-1.95s0.267-1.434,0.8-2
		C30.358,27.208,31.025,26.942,31.792,26.942"/>
	<path fill="#5A4C36" d="M16.992,40.292c-0.767,0-1.434-0.283-2-0.85c-0.533-0.534-0.8-1.184-0.8-1.95s0.267-1.434,0.8-2
		c0.566-0.533,1.233-0.8,2-0.8s1.416,0.267,1.95,0.8c0.566,0.566,0.85,1.233,0.85,2s-0.283,1.416-0.85,1.95
		C18.408,40.008,17.759,40.292,16.992,40.292"/>
	<path fill="#5A4C36" d="M36.542,40.042c-0.533,0.566-1.184,0.85-1.95,0.85s-1.434-0.283-2-0.85c-0.533-0.533-0.8-1.184-0.8-1.95
		s0.267-1.434,0.8-2c0.566-0.533,1.233-0.8,2-0.8s1.417,0.267,1.95,0.8c0.566,0.566,0.85,1.233,0.85,2S37.108,39.508,36.542,40.042"
		/>
	<path fill="#5A4C36" d="M21.492,47.242c-0.533,0.566-1.184,0.85-1.95,0.85s-1.434-0.283-2-0.85c-0.533-0.533-0.8-1.184-0.8-1.951
		c0-0.766,0.267-1.433,0.8-2c0.566-0.533,1.233-0.8,2-0.8s1.417,0.267,1.95,0.8c0.566,0.566,0.85,1.233,0.85,2
		C22.342,46.059,22.059,46.709,21.492,47.242"/>
	<path fill="#5A4C36" d="M31.792,43.292c0.767,0,1.417,0.267,1.95,0.8c0.566,0.566,0.85,1.233,0.85,2
		c0,0.766-0.283,1.416-0.85,1.949c-0.533,0.566-1.184,0.85-1.95,0.85s-1.434-0.283-2-0.85c-0.533-0.533-0.8-1.184-0.8-1.949
		c0-0.768,0.267-1.434,0.8-2C30.358,43.558,31.025,43.292,31.792,43.292"/>
	<path fill="#5A4C36" d="M28.992,52.891c0,0.768-0.283,1.418-0.851,1.951c-0.533,0.566-1.183,0.85-1.949,0.85
		c-0.768,0-1.434-0.283-2-0.85c-0.534-0.533-0.801-1.184-0.801-1.951c0-0.766,0.267-1.432,0.801-2c0.566-0.533,1.232-0.799,2-0.799
		c0.767,0,1.416,0.266,1.949,0.799C28.709,51.459,28.992,52.125,28.992,52.891"/>
	<path fill="#5A4C36" d="M17.792,61.141c-0.533-0.533-0.8-1.182-0.8-1.949s0.267-1.434,0.8-2c0.566-0.533,1.233-0.801,2-0.801
		s1.417,0.268,1.95,0.801c0.566,0.566,0.85,1.232,0.85,2s-0.283,1.416-0.85,1.949c-0.533,0.568-1.184,0.852-1.95,0.852
		S18.358,61.709,17.792,61.141"/>
	<path fill="#5A4C36" d="M36.192,58.791c0,0.768-0.284,1.418-0.851,1.951c-0.533,0.566-1.184,0.85-1.95,0.85s-1.433-0.283-2-0.85
		c-0.533-0.533-0.8-1.184-0.8-1.951c0-0.766,0.267-1.434,0.8-2c0.567-0.533,1.233-0.799,2-0.799s1.417,0.266,1.95,0.799
		C35.908,57.357,36.192,58.025,36.192,58.791"/>
	<path fill="#5A4C36" d="M27.942,22.391c0,0.767-0.284,1.417-0.851,1.95c-0.533,0.566-1.184,0.851-1.95,0.851s-1.433-0.284-2-0.851
		c-0.533-0.533-0.8-1.184-0.8-1.95s0.267-1.433,0.8-2c0.567-0.533,1.233-0.8,2-0.8s1.417,0.267,1.95,0.8
		C27.658,20.958,27.942,21.625,27.942,22.391"/>
	<path fill="#5A4C36" d="M17.542,21.242c-0.767,0-1.434-0.283-2-0.851c-0.533-0.533-0.8-1.183-0.8-1.949c0-0.768,0.267-1.434,0.8-2
		c0.566-0.534,1.233-0.801,2-0.801s1.417,0.267,1.95,0.801c0.566,0.566,0.85,1.232,0.85,2c0,0.767-0.283,1.416-0.85,1.949
		C18.959,20.958,18.309,21.242,17.542,21.242"/>
	<path fill="#5A4C36" d="M33.592,21.242c-0.767,0-1.434-0.283-2-0.851c-0.533-0.533-0.8-1.183-0.8-1.949c0-0.768,0.267-1.434,0.8-2
		c0.566-0.534,1.233-0.801,2-0.801s1.417,0.267,1.95,0.801c0.566,0.566,0.85,1.232,0.85,2c0,0.767-0.283,1.416-0.85,1.949
		C35.009,20.958,34.358,21.242,33.592,21.242"/>
</g>
<path fill="#FFFFFF" d="M32.118,63.387l18-33.75c0,0,2.5,15.188-1.188,21.875C41.892,64.277,32.118,63.387,32.118,63.387z"/>
<g>
	<polygon fill="#5A4D37" points="20,85.959 19.014,85.953 64.209,2.66 65.2,2.667 	"/>
</g>
</svg>
