<?xml version="1.0" encoding="utf-8"?>
<!-- Generator: Adobe Illustrator 15.0.0, SVG Export Plug-In . SVG Version: 6.00 Build 0)  -->
<!DOCTYPE svg PUBLIC "-//W3C//DTD SVG 1.1//EN" "http://www.w3.org/Graphics/SVG/1.1/DTD/svg11.dtd">
<svg version="1.1" id="Layer_1" xmlns="http://www.w3.org/2000/svg" xmlns:xlink="http://www.w3.org/1999/xlink" x="0px" y="0px"
	 width="65.2px" height="87.87px" viewBox="0 0 65.2 87.87" enable-background="new 0 0 65.2 87.87" xml:space="preserve">
<g id="_x31_1">
	<path fill="#5A4C36" d="M40.626,48.582l0.737,0.664c-0.412,0.455-0.844,1.029-1.294,1.725c-2.49,3.705-3.696,6.008-3.616,6.906
		c-0.791-0.137-1.539-0.48-2.247-1.029c-1.154-0.896-1.82-2.057-1.999-3.477c-0.179-1.422,0.179-2.711,1.076-3.865
		c0.896-1.154,2.056-1.82,3.478-1.998C38.185,47.328,39.472,47.686,40.626,48.582"/>
	<path fill="none" stroke="#5A4C36" stroke-linecap="round" stroke-linejoin="round" d="M29.868,41.57l-6.637,8.543 M24.045,34.541
		L11.027,51.244 M25.864,36.983L12.845,53.686 M27.807,39.611L14.788,56.316 M22.016,32.427L8.997,49.131 M19.968,30.165
		L6.949,46.869"/>
	<path fill="none" stroke="#5A4C36" stroke-linecap="round" stroke-linejoin="round" d="M2.438,33.829
		c4.174-14.903,11.523-16.163,22.05-3.779c10.523,12.351,16.732,17.381,18.627,15.095l0.224-0.229
		c1.822-2.078,3.538-2.328,5.146-0.749 M43.34,44.917c-5.366,11.021-9.397,16.651-12.088,16.89"/>
	<path fill="none" stroke="#5A4C36" stroke-linecap="round" stroke-linejoin="round" d="M44.864,53.039
		c-4.044,5.246-9.34,8.279-15.888,9.102c-6.549,0.822-12.431-0.805-17.648-4.887c-5.212-4.049-8.229-9.348-9.052-15.895
		C1.452,34.811,3.065,28.93,7.113,23.717c4.049-5.212,9.346-8.229,15.896-9.053c6.548-0.823,12.43,0.79,17.641,4.838
		c5.245,4.044,8.28,9.341,9.103,15.889C50.575,41.94,48.946,47.822,44.864,53.039"/>
	<path fill="#5A4C36" d="M45.429,43.091c-1.24,0.29-1.984,0.787-2.231,1.489l-0.632,1.391c-2.442,0.877-8.452-4.296-18.026-15.523
		C14.012,18.063,6.663,19.323,2.488,34.227c0.65-3.643,2.207-7.031,4.669-10.162c4.02-5.175,9.271-8.17,15.752-8.985
		c6.515-0.819,12.361,0.781,17.535,4.802c5.176,4.019,8.173,9.286,8.992,15.801c0.386,3.076,0.235,6.018-0.454,8.825l-0.874-0.947
		C47.563,42.957,46.669,42.801,45.429,43.091"/>
</g>
<path fill="#FFFFFF" d="M32.118,63.387l18-33.75c0,0,2.5,15.188-1.188,21.875C41.892,64.277,32.118,63.387,32.118,63.387z"/>
<g>
	<polygon fill="#5A4D37" points="20,85.959 19.014,85.953 64.209,2.66 65.2,2.667 	"/>
</g>
</svg>
