<?xml version="1.0" encoding="utf-8"?>
<!-- Generator: Adobe Illustrator 15.0.0, SVG Export Plug-In . SVG Version: 6.00 Build 0)  -->
<!DOCTYPE svg PUBLIC "-//W3C//DTD SVG 1.1//EN" "http://www.w3.org/Graphics/SVG/1.1/DTD/svg11.dtd">
<svg version="1.1" id="Layer_1" xmlns="http://www.w3.org/2000/svg" xmlns:xlink="http://www.w3.org/1999/xlink" x="0px" y="0px"
	 width="65.2px" height="87.87px" viewBox="0 0 65.2 87.87" enable-background="new 0 0 65.2 87.87" xml:space="preserve">
<g id="_x31_2">
	<path fill="none" stroke="#5A4C36" stroke-linecap="round" stroke-linejoin="round" d="M2.505,33.762
		c4.438-14.828,11.81-15.957,22.116-3.387c10.3,12.536,16.419,17.677,18.356,15.423l0.227-0.226c1.858-2.044,3.578-2.263,5.16-0.656
		 M43.204,45.572c-5.563,10.925-9.691,16.482-12.385,16.672"/>
	<path fill="none" stroke="#5A4C36" stroke-linecap="round" stroke-linejoin="round" d="M40.966,20.116
		c5.173,4.136,8.111,9.486,8.818,16.047c0.707,6.563-1.026,12.415-5.199,17.558c-4.138,5.173-9.485,8.112-16.049,8.819
		c-6.562,0.707-12.415-1.027-17.557-5.2c-5.14-4.14-8.063-9.49-8.769-16.054c-0.707-6.562,1.01-12.413,5.15-17.552
		c4.14-5.14,9.491-8.063,16.053-8.769C29.976,14.259,35.826,15.975,40.966,20.116"/>
	<path fill="#5A4C36" d="M23.307,15.378c6.529-0.703,12.344,1.002,17.448,5.112c5.103,4.111,8.006,9.43,8.709,15.959
		c0.332,3.083,0.129,6.021-0.609,8.816l-0.858-0.964c-0.535-0.613-1.426-0.785-2.672-0.517c-1.244,0.268-1.996,0.751-2.257,1.45
		l-0.657,1.378c-2.457,0.835-8.373-4.446-17.747-15.841C14.358,18.204,6.986,19.332,2.549,34.159
		c0.716-3.631,2.331-6.99,4.849-10.077C11.508,18.98,16.812,16.078,23.307,15.378"/>
	<path fill="#FFFFFF" d="M37.259,17.448c1.542,0,2.728,0.426,3.558,1.276c0.799,0.886,1.073,2.03,0.822,3.432
		c-0.252,1.402-1.021,3.144-2.305,5.227L28.728,45.169l-2.432,4.034l-0.414-0.105l-3.617,0.036l-2.089,0.678L18.6,44.047
		l12.686-20.425l1.672-3.147C34.25,18.458,35.684,17.449,37.259,17.448"/>
	<path fill="none" stroke="#5A4C36" stroke-linecap="round" stroke-linejoin="round" d="M20.037,49.927l-1.494-5.471l14.572-24.4
		l0.338-0.589l0.389-0.595c0.872-0.933,1.942-1.416,3.214-1.453c1.27-0.036,2.368,0.366,3.296,1.205
		c0.899,0.875,1.384,1.946,1.454,3.212l-0.3,1.893l-0.812,1.345L27.072,48.467l-6.084,1.409 M40.694,25.073l-0.094,0.062
		c-0.868,0.964-1.937,1.465-3.207,1.501c-1.172,0.026-2.179-0.302-3.022-0.982L19.063,52.547l6.813-1.186 M21.877,46.461
		l-1.138-4.957 M16.302,57.27l2.761-4.723"/>
</g>
<path fill="#FFFFFF" d="M32.118,63.387l18-33.75c0,0,2.5,15.188-1.188,21.875C41.892,64.277,32.118,63.387,32.118,63.387z"/>
<g>
	<polygon fill="#5A4D37" points="20,85.959 19.014,85.953 64.209,2.66 65.2,2.667 	"/>
</g>
</svg>
