<?xml version="1.0" encoding="utf-8"?>
<!-- Generator: Adobe Illustrator 15.0.0, SVG Export Plug-In . SVG Version: 6.00 Build 0)  -->
<!DOCTYPE svg PUBLIC "-//W3C//DTD SVG 1.1//EN" "http://www.w3.org/Graphics/SVG/1.1/DTD/svg11.dtd">
<svg version="1.1" id="Layer_1" xmlns="http://www.w3.org/2000/svg" xmlns:xlink="http://www.w3.org/1999/xlink" x="0px" y="0px"
	 width="65.2px" height="87.87px" viewBox="0 0 65.2 87.87" enable-background="new 0 0 65.2 87.87" xml:space="preserve">
<g id="_x31_3_1_">
	<path fill="none" stroke="#5A4C36" stroke-linecap="round" stroke-linejoin="round" d="M9.35,21.311h28.649l0.75,4.899
		c0.434,4.033,0.483,7.9,0.15,11.601c-0.367,3.899-1.117,7.399-2.25,10.5c-2.334,6.3-6.3,10.883-11.9,13.75 M28.199,23.061
		c-0.9,0.533-0.9,1.383,0,2.55l0.45,0.45c1.033,1,1.833,2.533,2.399,4.6c0.533,2.033,0.317,4.283-0.649,6.75l1.7,0.2l0.699,2.5
		l3.5-0.05l0.051-0.051l-2-3.05 M11.6,32.46c2.633-0.434,5.883,0.583,9.75,3.05l6.25-9.05l-0.45-0.5 M28.199,25.61l-0.6,0.85
		c0.833,1,1.482,2.367,1.949,4.101c0.533,2.066,0.317,4.316-0.649,6.75l1.5,0.1 M4.699,26.811l0.9,1.649
		c2.232,0.167,4.183,1.417,5.85,3.75 M29.549,42.66c1,0,1.884-0.367,2.65-1.1l0.6-1.45l-11.6,0.1l0.9,0.351v0.649l5.75,1.101
		L29.549,42.66c1.533,5-0.583,9.533-6.35,13.6l-0.3-0.949l-1.3,0.949 M21.35,35.51c1.199,0.767,2.982,1.667,5.35,2.7
		c-0.2-0.6,0.533-0.899,2.2-0.899 M12.6,42.96c-0.134-0.7,0.366-1.467,1.5-2.3c0.133-0.566,0.366-0.917,0.699-1.05l0.65-0.2l0.3-0.2
		c-3.233-0.267-5.866-1.217-7.899-2.85H7.749c-0.1,0.533-0.316,1-0.649,1.399c-0.233,0.301-0.5,0.533-0.801,0.7
		c0.533,0.033,1,0.25,1.4,0.65c0.5,0.5,0.75,1.083,0.75,1.75l-0.25,1.1c0.333,0.467,0.5,1,0.5,1.601l-0.15,0.949l1.4-0.35l2.5-0.95
		 M15.749,39.21h0.2l2-0.399 M15.949,39.21h0.15l-0.65,0.2 M18.1,39.061l0.649,0.25l2.601-3.801 M22.1,41.21
		c-0.101,1.066-0.483,1.9-1.15,2.5l-2.3,1.3l4.25,10.301c4.767-3.834,6.45-8.051,5.05-12.65 M17.949,40.71h3.25 M18.749,39.311
		l2.45,0.899 M10.85,34.21l-0.75,0.75 M6.299,38.46L5.6,38.561H5.249l-0.25,0.05l0.15,0.899c0,0.634-0.184,1.184-0.55,1.65
		c0.399-0.233,0.85-0.35,1.35-0.35c0.767,0,1.417,0.267,1.95,0.8l0.3,0.35 M7.749,36.36l-3.5-0.8L3.6,36.811v0.05l0.05,0.149
		l0.649,0.5l0.65,0.95l0.3,0.101l0.75-0.15l0.3,0.05 M1.85,38.311l1.649-1.351L3.6,36.811V36.76l0.55-1.25l0.1,0.051
		c-0.6-0.834-0.733-1.834-0.399-3c0.333-1.2,0.333-2.301,0-3.301 M3.6,36.86l-0.101,0.1l0.15,0.05 M4.6,41.16l-0.301,0.3l-0.5,0.45
		l-0.05,0.05l0.2,1.2c0,0.866-0.25,1.6-0.75,2.2 M3.799,41.91h-0.05v0.05h-0.05l0.05-0.05l-0.55-1
		c-0.333-0.434-0.733-0.717-1.2-0.85 M8.549,44.51l-2.25,0.45c-0.933,0.167-1.649,0.4-2.149,0.7c-0.334,0.2-0.567,0.434-0.7,0.7
		 M18.649,45.01l-4.2,0.7l-2.5,3.55c0.434,0.434,0.65,0.95,0.65,1.551c0,0.6-0.217,1.1-0.65,1.5l-0.6,0.5
		c0.267,0.066,0.3,0.699,0.1,1.899l-0.3,2.4l-0.55-0.15 M8.499,54.561l0.2-0.75l0.6-0.5l0.4-0.45l0.35-1.3l-0.05-0.5L8.6,51.91
		l-2,0.7 M11.35,52.811l-0.9,0.149l-0.75-0.1 M11.949,49.26l-1.95,1.801 M4.949,38.46l0.05,0.15 M22.699,59.061
		c-0.8-1.167-0.717-2.034,0.25-2.601 M36.35,40.01v0.051h-0.051l-2.25,2.85"/>
	<path fill="none" stroke="#5A4C36" stroke-linecap="round" stroke-linejoin="round" d="M25.649,14.61c6.6,0,12.233,2.333,16.899,7
		c4.7,4.666,7.051,10.3,7.051,16.899c0,6.601-2.351,12.233-7.051,16.9c-4.666,4.7-10.3,7.05-16.899,7.05
		c-6.601,0-12.233-2.35-16.9-7.05c-4.667-4.667-7-10.3-7-16.9c0-6.6,2.333-12.233,7-16.899C13.416,16.943,19.049,14.61,25.649,14.61
		"/>
	<path fill="#5A4C36" d="M38.749,24.96c-0.233-3.333-0.883-4.483-1.95-3.45H8.749c2.367-2.366,5-4.116,7.9-5.25
		c2.767-1.1,5.75-1.649,8.95-1.649c3.199,0,6.183,0.55,8.949,1.649c2.9,1.167,5.533,2.934,7.9,5.301c4.667,4.666,7,10.3,7,16.899
		c0,6.601-2.333,12.217-7,16.851c-4.634,4.666-10.25,7-16.85,7l-5.851-0.65l4.4,0.2c7.866-3.8,12.383-10,13.55-18.601
		c0.8-0.566,1.2-2.05,1.2-4.449v-0.65l0.1-2.95C39.032,31.677,38.949,28.26,38.749,24.96"/>
</g>
<path fill="#FFFFFF" d="M32.118,63.387l18-33.75c0,0,2.5,15.188-1.188,21.875C41.892,64.277,32.118,63.387,32.118,63.387z"/>
<g>
	<polygon fill="#5A4D37" points="20,85.959 19.014,85.953 64.209,2.66 65.2,2.667 	"/>
</g>
</svg>
