<?xml version="1.0" encoding="utf-8"?>
<!-- Generator: Adobe Illustrator 15.0.0, SVG Export Plug-In . SVG Version: 6.00 Build 0)  -->
<!DOCTYPE svg PUBLIC "-//W3C//DTD SVG 1.1//EN" "http://www.w3.org/Graphics/SVG/1.1/DTD/svg11.dtd">
<svg version="1.1" id="Layer_1" xmlns="http://www.w3.org/2000/svg" xmlns:xlink="http://www.w3.org/1999/xlink" x="0px" y="0px"
	 width="65.2px" height="87.87px" viewBox="0 0 65.2 87.87" enable-background="new 0 0 65.2 87.87" xml:space="preserve">
<g id="_x31_4">
	<path fill="#5A4C36" d="M31.185,15.7l0.051,0.05l0.35,0.05l-0.35,0.05c-6,0.5-10.018,2.283-12.051,5.35
		C20.318,18.467,24.318,16.633,31.185,15.7c-6.866,0.933-10.866,2.767-12,5.5l-0.25,0.75l-0.55,0.7l-0.3,0.149l-2.9,0.5l-7.5,1.25
		c2.5-0.933,5-1.35,7.5-1.25c-2.5-0.1-5,0.317-7.5,1.25L7.235,24.6c-2.334-0.133-0.051-2.732,6.85-7.8
		C19.785,14.3,25.485,13.933,31.185,15.7 M39.035,52.15l-0.2-0.601l1-0.55l7.25-3.95l-5.25,7.75h-1l-0.95-1.2l-0.7-0.949l0.7,0.949
		l0.95,1.2h-1l-0.35-1.1l-0.301-1.05L39.035,52.15l0.05-0.051l0.75-1.1l-0.75,1.1L39.035,52.15 M40.535,55.2
		c1.033-0.233,0.399,0.716-1.9,2.85c-8.533,3.634-15.384,4.634-20.55,3l-0.75-0.25l22-5.25v0.05
		C39.835,55.367,40.235,55.233,40.535,55.2 M39.335,55.6l-21.25,5.45L39.335,55.6 M39.485,53.7l0.399-0.101L39.485,53.7
		 M10.835,56.8c-2.6-0.6-4.883-3.183-6.85-7.75c-2.667-6.333-3.384-10.083-2.15-11.25L10.835,56.8"/>
	<path fill="none" stroke="#5A4C36" stroke-linecap="round" stroke-linejoin="round" d="M31.185,15.7
		c-6.866,0.933-10.866,2.767-12,5.5l-0.25,0.75l-0.55,0.7l-0.55,0.899l-0.7-0.3l-0.1,0.1l-0.2,0.051l-1.65-0.101
		c-2.5-0.1-5,0.317-7.5,1.25c-0.967,0.333-1.934,0.75-2.899,1.25 M39.835,51l0.3-0.35c1.733-2.033,3.866-3.316,6.4-3.851
		 M40.835,54.8l0.2,0.3l0.3-0.05 M38.835,52.2l0.05,0.05l0.15-0.1L38.835,52.2l-23.55,6.1 M38.885,52.25l0.3,0.4l0.7,0.949l0.95,1.2
		 M39.035,52.15l0.05-0.051l0.75-1.1 M39.335,55.6c0.5-0.232,0.9-0.366,1.2-0.399 M39.485,53.7l-23.45,6.1 M39.885,53.6L39.485,53.7
		 M18.085,61.05l21.25-5.45 M1.285,36.55l10.75,21.75 M1.785,33.05l13.05,25"/>
	<path fill="none" stroke="#5A4C36" stroke-linecap="round" stroke-linejoin="round" d="M41.435,21.75
		c4.566,4.6,6.851,10.15,6.851,16.65s-2.284,12.05-6.851,16.649c-4.6,4.567-10.149,6.851-16.649,6.851s-12.05-2.283-16.65-6.851
		C3.568,50.45,1.285,44.9,1.285,38.4s2.283-12.051,6.85-16.65c4.601-4.567,10.15-6.85,16.65-6.85S36.835,17.183,41.435,21.75"/>
	<path fill="#5A4C36" d="M42.135,37.75c0.333,1.1,0.25,2.05-0.25,2.85c0.567,0,1.101,0.217,1.601,0.65l0.899,1.55l0.05,1.75
		c-0.199,0.601-0.566,1.067-1.1,1.4l-0.8,0.399c-1.067,0.234-1.917,0.101-2.55-0.399l-0.5,1.25l-0.9,0.95
		c-0.9,0.6-1.834,0.766-2.8,0.5c-0.833-0.268-1.5-0.801-2-1.601c-0.5-0.866-0.667-1.716-0.5-2.55c0.233-0.967,0.85-1.7,1.85-2.2
		h-0.649l-0.65,0.05l-0.25-0.3l-0.2-0.45l-0.5,0.4h-0.7l-0.449-0.35c-0.134-0.234-0.15-0.484-0.051-0.75L7.485,32.1l-0.101-0.25
		l0.05-0.3l-1.6-0.1l-0.25-0.4c-0.1-0.3-0.05-0.566,0.15-0.8c0.133-0.267,0.35-0.434,0.649-0.5l0.851,0.1
		c0.266,0.134,0.416,0.384,0.449,0.75l1.2-0.1l0.65,0.35l0.75,0.15c0-0.166,0.05-0.316,0.149-0.45c-0.166-0.233-0.533-0.433-1.1-0.6
		l-1.25-0.45l0.3-0.55l0.2-0.55h0.4l0.35-0.15c0.1-0.166,0.066-0.316-0.1-0.45l-0.351-0.35l0.5-1.3l0.5-1.301l1,0.351l1,0.5
		L11.485,26.6l-0.301,0.95l0.45,0.101l0.5,0.199l0.3-0.949l0.4-0.9l0.85,0.25l0.75,0.3c0.066,0.134-0.066,0.467-0.399,1
		c-0.267,0.5-0.351,0.817-0.25,0.95l0.45,0.15l0.449,0.05l0.301-1c0.133-0.5,0.25-0.767,0.35-0.8c0.166-0.066,0.517,0.033,1.05,0.3
		l0.95,0.45l-0.45,1.3l-0.55,1.3h-0.45c-0.134,0.033-0.216,0.117-0.25,0.25c-0.1,0.3,0.05,0.5,0.45,0.6l-0.2,0.65l-0.25,0.55
		l-1.2-0.45c-0.633-0.333-1.016-0.434-1.149-0.3l-0.2,0.5l19.3,7.101c0.067-0.367,0.284-0.566,0.65-0.601l0.85,0.3l0.101,0.5
		l0.1,0.301l0.45-0.15l0.35-0.1l0.45,0.55l0.5,0.399c-0.434-0.833-0.483-1.666-0.15-2.5c0.334-0.732,0.9-1.316,1.7-1.75
		c0.767-0.434,1.55-0.6,2.351-0.5c0.899,0.134,1.566,0.566,2,1.301L42.135,37.75 M41.785,41.9c-0.4,0-0.817,0.116-1.25,0.35
		l-0.351-0.6L39.835,41c0.566-0.3,0.95-0.75,1.15-1.35c0.199-0.533,0.199-1.033,0-1.5c-0.234-0.601-0.65-0.984-1.25-1.15l-1.65,0.05
		c-0.566,0.233-0.967,0.601-1.2,1.101c-0.233,0.533-0.183,1.133,0.15,1.8l0.35,0.5l0.55,0.45l-0.05,0.25l0.05,0.25l1.15,0.05
		c0.2,0.267,0.217,0.649,0.05,1.149c-0.134,0.5-0.333,0.783-0.6,0.851c-0.4,0.134-0.767-0.101-1.101-0.7l-0.199,0.2l-0.15,0.3
		c-0.633-0.133-1.2-0.033-1.7,0.3c-0.433,0.333-0.7,0.767-0.8,1.3c-0.133,0.566-0.084,1.084,0.15,1.551
		c0.266,0.533,0.699,0.883,1.3,1.05c0.866,0.267,1.6,0.033,2.2-0.7c0.6-0.733,0.732-1.533,0.399-2.4l0.75-0.35l0.65-0.1
		c0.167,0.666,0.517,1.066,1.05,1.199l1.4-0.25c0.434-0.3,0.684-0.699,0.75-1.199c0.1-0.533-0.101-1.018-0.601-1.45
		C42.401,41.967,42.118,41.867,41.785,41.9"/>
</g>
<path fill="#FFFFFF" d="M32.118,63.387l18-33.75c0,0,2.5,15.188-1.188,21.875C41.892,64.277,32.118,63.387,32.118,63.387z"/>
<g>
	<polygon fill="#5A4D37" points="20,85.959 19.014,85.953 64.209,2.66 65.2,2.667 	"/>
</g>
</svg>
