<?xml version="1.0" encoding="utf-8"?>
<!-- Generator: Adobe Illustrator 15.0.0, SVG Export Plug-In . SVG Version: 6.00 Build 0)  -->
<!DOCTYPE svg PUBLIC "-//W3C//DTD SVG 1.1//EN" "http://www.w3.org/Graphics/SVG/1.1/DTD/svg11.dtd">
<svg version="1.1" id="Layer_1" xmlns="http://www.w3.org/2000/svg" xmlns:xlink="http://www.w3.org/1999/xlink" x="0px" y="0px"
	 width="65.2px" height="87.87px" viewBox="0 0 65.2 87.87" enable-background="new 0 0 65.2 87.87" xml:space="preserve">
<g id="_x31_5">
	<path fill="#FFFFFF" d="M34.7,40.552l0.15-0.051l0.05-0.05l0.15-0.05l0.25-0.15h0.1h0.05c0.3,0,0.533,0.1,0.7,0.301
		c0.233,0.232,0.35,0.5,0.35,0.799l-0.35,0.75c-0.167,0.201-0.4,0.301-0.7,0.301c-0.267,0-0.533-0.1-0.8-0.301l-0.2-0.35l-0.1-0.4
		l-1.45,1.101l1.45-1.3l0.1-0.45l0.15-0.101l0.05-0.049H34.7 M34.45,41.751l0.15,0.1l0.7,0.25l0.6-0.25l0.25-0.699l-0.25-0.6
		l-0.5-0.301l0.5,0.301l0.25,0.6l-0.25,0.699l-0.6,0.25l-0.7-0.25L34.45,41.751"/>
	<path fill="none" stroke="#5A4C36" stroke-linecap="round" stroke-linejoin="round" d="M25.2,27.601l2.15,0.101l0.25,0.8
		l2.899,0.75l0.9-0.699c1.667,1.399,3.45,2.149,5.35,2.25l-0.75-1 M36.75,30.802h0.75l0.2,1.549 M36.101,32.951l-1.8,0.101
		c-0.4,2.433-0.934,2.866-1.601,1.299c0.601,1.634,1.333,2.217,2.2,1.75l2.25-3l-0.9-1.299 M34.301,33.052l-5-2.101
		c2.066,2,2.433,3.683,1.1,5.05l2.3-1.65 M34.7,40.552l0.15-0.051l0.05-0.05 M35.301,40.251l-0.4,0.15l-0.05,0.05l-0.25,0.101h0.05
		 M34.9,36.101l-2.15,2.851h-1.949L30.7,39.851l0.101,0.4l0.6,1.85l3.1-1.449l0.101-0.051v-0.049 M34.5,40.651l-0.05,0.05
		 M30.801,38.951h-0.25l0.149,0.899 M27.5,48.901l3.9,1.199l0.25-7.049l-0.25-0.951 M34.45,41.751
		c-0.267-0.066-0.783,0.167-1.55,0.7l-0.3,0.2 M32.9,42.451l1.45-1.3l0.1-0.45 M35.4,40.251l0.5,0.301l0.25,0.6l-0.25,0.699
		l-0.6,0.25l-0.7-0.25l-0.15-0.1 M35.301,40.251h0.1 M32.101,53.901l-2.8-1.051l-3.9,0.351c-1.2-0.533-2.3-1.116-3.3-1.75
		c0.533,2.866-0.167,4.134-2.101,3.8l0.9,0.75h1.85c1.4-0.3,2.417-0.15,3.051,0.45c-0.601-1.033,0.482-1.434,3.25-1.2l3.05-0.55
		V53.901l-0.45-10.85 M6,20.151l1.301,0.5l0.949,0.35l0.9,0.4c4.667-4.6,10.267-6.9,16.8-6.9c6.601,0,12.233,2.333,16.9,7
		c4.7,4.667,7.05,10.301,7.05,16.9s-2.35,12.232-7.05,16.9c-2.567,2.6-5.434,4.482-8.601,5.649c0.4,0.467-0.333,0.7-2.199,0.7
		l-6.101,0.699l-5.6-0.6l0.75,1.1c-0.5,0.934-2.101,0.367-4.8-1.699l-0.75-1.15v0.051c-2.334-1.168-4.5-2.75-6.5-4.75l-0.95-1
		l-0.15-0.15c-3.934-4.434-5.899-9.684-5.899-15.75c0-6.434,2.216-11.934,6.649-16.5l-0.95-0.45l-1.899-0.851 M31.801,42.351
		l0.649,2.451 M29.051,55.251l-0.351,3.45l5.15,1.95h0.05l0.35,0.3 M8.7,21.901l0.351-0.4l0.1-0.1l-0.95-0.35l-0.45,0.399
		 M7.301,20.651l0.899,0.4l0.05-0.051 M19.351,22.651l-0.5-0.551l-2.05-2.2l2.55-2.85c2.767-0.2,5.649,0.233,8.649,1.3l0.351,0.65
		l0.3,0.2l0.5,1.2v0.05c0.1,0.533-0.033,1.399-0.4,2.601l0.45-0.351c-0.1,1.3-0.316,2.316-0.649,3.05l0.949-0.4
		c0.567-0.366,0.884-0.799,0.95-1.299 M29.15,20.401l-0.2-0.4l-2.45-0.4c-2.166,0.267-3.133,0.75-2.899,1.451l-0.5,0.35l-0.65,0.3
		c0,0.433,0.184,1.25,0.55,2.45c0.367,0.5,0.617,1.066,0.75,1.699l0.301,0.351c0.6,0.7,1.283,1.05,2.05,1.05
		c0.8,0,1.467-0.35,2-1.05l0.45-0.45l-1.2,0.1l-2.15-0.5l-0.6-0.549 M25.15,22.052h1.35 M25.551,22.901l0.5-0.301 M29.15,20.451
		c-1.867,1.134-2.167,2.649-0.9,4.55 M28.351,22.251c0.3,0.1,0.433,0.367,0.399,0.801 M26.5,24.901l1.2,0.5 M23,24.151l-2.6-0.95
		c-0.267-0.101-0.45-0.2-0.55-0.3c-0.467-0.301,0.1-0.566,1.7-0.801l0.8-0.399h0.1 M22.601,27.251l1.149-1.4 M21.101,27.601
		L18,29.401c-1.8,3.3-2.5,6.583-2.1,9.85l2,0.5l0.9,1.45c0.466,0.533,0.666-1.116,0.6-4.95l0.6,0.9
		c0.867,0.533,1.417-2.518,1.65-9.15l0.05-0.15L21.101,27.601l-11.5-4.699 M21.101,27.601l0.649-0.149l0.45,0.05l-0.399,0.4
		c0.533,1.333,1.8,1.833,3.8,1.5l0.1,0.05c1.267-0.333,2.066,0.017,2.4,1.05l-0.5-1.949v-0.051 M21.75,27.451l-0.05,0.399
		l0.101,0.051l-0.15,0.1 M28.101,30.501l1.2,0.45l-0.801-1.75 M28.95,20.001l-0.6-1 M18.851,22.101l1.7-2.2 M19.851,22.901
		l1.7-0.801 M17.95,20.601l1.5-1.7 M22.75,26.552l-13.6-5.15 M8.7,21.901l2.7,1.15 M23.9,33.951h2.15l-0.15-1.95h-2.45 M25.7,29.451
		l0.2,2.55h1.7 M28,35.701h-1.85l0.15,2.149H28 M27.801,33.951h-1.75l0.1,1.75h-2 M20.95,42.601l0.7,0.75l1.25-0.949 M22.801,41.351
		l2.899,1.5l0.55-4.899l-1.699-0.101 M20,37.151l2.601,3.75l-2.75,2.15l-1.05-1.851 M26.25,37.951l0.051-0.101L27.2,48.701
		 M17.9,39.751c-1.2,3.7-2.884,5.983-5.05,6.85l3.45,1.351L19,49.001l4.45-1.6l0.65-2.35l-0.7,0.049l-1.75-1.75 M16.301,47.951
		l-0.551,2.149l0.051-0.1l0.1-0.05l-0.6,1.851l0.199-0.851l0.25-0.851c-2.467,2.5-5.066,3.851-7.8,4.051 M18.75,48.251l0.95-2.449
		 M15.551,60.052l-0.101-0.25l0.101,0.199l0.899-4.85l-2.05,0.1l0.75-3.3c-2.1,1.933-4.45,2.717-7.05,2.351 M15.801,50.001
		l-0.301,0.95 M25.75,44.651l-0.05-1.801l-1.6,2.201L25.75,44.651 M22.101,51.451L19,49.001 M16.45,55.151l3.55,0.1l-1.699,3.801
		l2.05,2.699 M25.801,56.451l0.35,0.5l0.1,0.101l0.051,0.199l0.05,0.301v0.049l0.1,0.5v0.101l0.55,3.05l2.9,0.5l2.15-0.1
		 M26.45,58.101l-0.05-0.1l-0.1-0.25l-0.25-0.75l0.05,0.1l0.1-0.049l-0.05-0.101 M26.351,57.601l0.05,0.4 M26.101,57.101l0.2,0.65
		 M26.25,57.052H26.2l0.101,0.199 M18.301,59.052l-0.051,1.549 M28.101,30.501c1.666,2.301,2.483,5.117,2.45,8.45 M30.801,40.251
		c0.166,0.834-0.2,2.717-1.101,5.65"/>
	<path fill="#5A4C36" d="M5.601,36.151H4.65v-1.4h2.6v6.25H5.601V36.151"/>
	<path fill="#5A4C36" d="M10.25,36.201l-0.25,0.7v1.949l0.2,0.701c0.134,0.232,0.316,0.35,0.55,0.35s0.417-0.117,0.551-0.35
		l0.199-0.701v-1.949l-0.199-0.7c-0.134-0.233-0.317-0.351-0.551-0.351S10.351,35.968,10.25,36.201 M8.351,37.851l0.1-1l0.3-1.049
		l0.7-0.9c0.333-0.233,0.767-0.35,1.3-0.35s0.967,0.116,1.301,0.35l0.75,0.9l0.3,1.049v2.051l-0.3,1.05l-0.75,0.899l-1.301,0.301
		l-1.3-0.301l-0.7-0.899l-0.3-1.05L8.351,37.851"/>
	<path fill="#5A4C36" d="M38.301,34.901c0.333-0.233,0.767-0.35,1.3-0.35s0.967,0.116,1.3,0.35l0.75,0.9l0.3,1.049v2.051l-0.3,1.05
		l-0.75,0.899l-1.3,0.301l-1.3-0.301l-0.7-0.899l-0.3-1.05L37.2,37.851l0.101-1l0.3-1.049L38.301,34.901 M39.601,35.851
		c-0.233,0-0.4,0.117-0.5,0.351l-0.25,0.7v1.949l0.2,0.701c0.133,0.232,0.316,0.35,0.55,0.35l0.55-0.35l0.2-0.701v-1.949l-0.2-0.7
		L39.601,35.851"/>
	<path fill="#5A4C36" d="M43.9,34.901c0.333-0.233,0.767-0.35,1.3-0.35s0.967,0.116,1.3,0.35l0.75,0.9l0.301,1.049v2.051
		l-0.301,1.05l-0.75,0.899l-1.3,0.301l-1.3-0.301l-0.7-0.899l-0.3-1.05l-0.1-1.051l0.1-1l0.3-1.049L43.9,34.901 M45.2,35.851
		c-0.233,0-0.399,0.117-0.5,0.351l-0.25,0.7v1.949l0.2,0.701c0.133,0.232,0.316,0.35,0.55,0.35l0.55-0.35l0.2-0.701v-1.949l-0.2-0.7
		C45.617,35.968,45.434,35.851,45.2,35.851"/>
</g>
<path fill="#FFFFFF" d="M32.118,63.387l18-33.75c0,0,2.5,15.188-1.188,21.875C41.892,64.277,32.118,63.387,32.118,63.387z"/>
<g>
	<polygon fill="#5A4D37" points="20,85.959 19.014,85.953 64.209,2.66 65.2,2.667 	"/>
</g>
</svg>
