<?xml version="1.0" encoding="utf-8"?>
<!-- Generator: Adobe Illustrator 15.0.0, SVG Export Plug-In . SVG Version: 6.00 Build 0)  -->
<!DOCTYPE svg PUBLIC "-//W3C//DTD SVG 1.1//EN" "http://www.w3.org/Graphics/SVG/1.1/DTD/svg11.dtd">
<svg version="1.1" id="Layer_1" xmlns="http://www.w3.org/2000/svg" xmlns:xlink="http://www.w3.org/1999/xlink" x="0px" y="0px"
	 width="65.2px" height="87.87px" viewBox="0 0 65.2 87.87" enable-background="new 0 0 65.2 87.87" xml:space="preserve">
<g id="_x31_6">
	<path fill="none" stroke="#5A4C36" stroke-linecap="round" stroke-linejoin="round" d="M34,38l-1.95,0.351l5.25,5.05L37.199,42.8
		l5.4-2.5l-4.65-9.5l-3.25,1.4c-2.399-0.367-4-0.9-4.8-1.6c-1.767-1.101-3.75-1.534-5.95-1.301l-0.25,0.101l-0.649,0.2l-0.2,0.1
		l-0.3,0.4l-2.351,3.1c-0.3,0.3-0.449,0.65-0.449,1.05c0,0.4,0.166,0.733,0.5,1c0.3,0.267,0.716,0.384,1.25,0.351l1.449-0.301
		l1.2-1.1l3-0.15L27.1,34.4c0,1.033,0.467,1.916,1.4,2.649c0.899,0.733,1.966,1.117,3.199,1.15h0.2l0.15,0.15 M23.05,29.601
		l0.899-0.301 M37.949,30.8l2.25-1l3.4,10l6,0.601 M40,29.601l0.1-1.5l5.85-2.301 M7.75,23.2l5,3.6l-0.101,2.351L12.75,29
		l0.899,0.55l3.101,1.95c1.8,0.3,3.833-0.3,6.1-1.8 M13.649,29.55L12.75,31.4c0.199,0.1,0.399,0.25,0.6,0.45
		c0.6,0.6,0.9,1.316,0.9,2.149s-0.301,1.533-0.9,2.101C12.783,36.7,12.083,37,11.25,37l-1.15-0.2L9.05,38.9 M10.1,36.8l-1-0.699
		l-0.65-1.051l-1.8,2.45l7.4,5.5c0-0.033,0.6-0.483,1.8-1.35H16c0.433,0.033,0.833,0.166,1.199,0.399
		c0.367,0.233,0.551,0.517,0.551,0.851l-0.15,0.55c0.6-0.7,1.1-1.066,1.5-1.1c0.467-0.067,0.95,0.216,1.45,0.85l0.5,0.8l0.3-0.149
		c0.566-0.268,1.083-0.051,1.55,0.649l0.351,0.65l0.449,0.05c0.601,0.133,0.917,0.434,0.95,0.9L24.25,47.75
		c-0.268,0.634-0.084,1.134,0.55,1.5l2.399,1.9c1.9,0.267,2.634-0.351,2.2-1.851L26,46 M8.449,35.05L11.3,31l1.35-1.85 M21.05,44
		l-1.351,1.101c-0.566,0.566-0.883,1.1-0.949,1.6v1.2v-0.05l0.3,1l0.3,0.649l0.4,0.45c0.399,0.333,0.916,0.267,1.55-0.2
		c-0.2-0.5-0.184-1.149,0.05-1.95c0.2-0.8,0.483-1.483,0.85-2.05c0.301-0.399,0.65-0.6,1.051-0.6 M19.05,48.851H19l0.35,0.649
		 M19,48.851l-0.25-0.95l-1.101,0.7c-0.399,0.1-0.733,0-1-0.301l-0.5-1.1L15.5,47.25c-0.601,0.066-1.117-0.75-1.551-2.45L14.05,43
		 M17.6,43.45l-0.45,0.6l-0.25,0.25c-0.667,0.9-0.95,1.584-0.85,2.051l0.1,0.85l-0.1-0.25L16,47.101l-0.5,0.149 M16.899,44.3
		l0.25-0.3l0.45-0.55 M24.8,49.25l-0.5,1.101l-0.851,0.899l-0.5,0.101c-0.5,0-0.933-0.284-1.3-0.851l-0.5,0.05
		c-0.533,0-1-0.199-1.399-0.6 M21.649,50.5l-0.1-0.149L21.3,49.75 M11.449,34.2l2.2-0.6 M11.3,31l1.45,0.4 M6.35,37.7l-4.4,0.4
		 M37.3,43.4v0.2c0.1,1.833-0.8,2.366-2.7,1.6l0.05,0.2c0.5,2.066-0.184,2.95-2.05,2.649v0.101c0.033,1.566-0.867,2-2.7,1.3
		l-0.2-0.1h-0.05l-0.25-0.051v-0.05l0.25,0.101 M30.399,41.3l4.25,4.101 M32.6,48.15l-4.9-4.75 M43.6,39.8l-1,0.5"/>
	<path fill="none" stroke="#5A4C36" stroke-linecap="round" stroke-linejoin="round" d="M42.649,21.55
		c4.7,4.667,7.05,10.301,7.05,16.9s-2.35,12.233-7.05,16.9c-4.667,4.699-10.3,7.05-16.899,7.05c-6.601,0-12.233-2.351-16.9-7.05
		c-4.667-4.667-7-10.301-7-16.9s2.333-12.233,7-16.9c4.667-4.666,10.3-7,16.9-7C32.35,14.55,37.982,16.884,42.649,21.55"/>
</g>
<path fill="#FFFFFF" d="M32.118,63.387l18-33.75c0,0,2.5,15.188-1.188,21.875C41.892,64.277,32.118,63.387,32.118,63.387z"/>
<g>
	<polygon fill="#5A4D37" points="20,85.959 19.014,85.953 64.209,2.66 65.2,2.667 	"/>
</g>
</svg>
