<?xml version="1.0" encoding="utf-8"?>
<!-- Generator: Adobe Illustrator 15.0.0, SVG Export Plug-In . SVG Version: 6.00 Build 0)  -->
<!DOCTYPE svg PUBLIC "-//W3C//DTD SVG 1.1//EN" "http://www.w3.org/Graphics/SVG/1.1/DTD/svg11.dtd">
<svg version="1.1" id="Layer_1" xmlns="http://www.w3.org/2000/svg" xmlns:xlink="http://www.w3.org/1999/xlink" x="0px" y="0px"
	 width="65.2px" height="87.87px" viewBox="0 0 65.2 87.87" enable-background="new 0 0 65.2 87.87" xml:space="preserve">
<g id="_x31_7">
	<path fill="#5A4C36" d="M25.725,19.575l-0.449,0.25l-2.801,1.45c-3.199,1.566-5.083,2.533-5.649,2.899l-5.101,2.8l-1.3,0.801h-1.05
		c-0.333-0.034-0.6,0.1-0.8,0.399l-0.2,0.5h-0.3c-0.567-0.133-1.017-0.05-1.351,0.25c-0.233,0.2-0.35,0.45-0.35,0.75v0.101
		c0,0.666,0.35,1,1.05,1l0.5-0.101h0.101c0.066,0.467,0.383,0.7,0.949,0.7l0.851,0.85c0.967,0.834,1.483,1.733,1.55,2.7
		c0.033,0.267,0.4,0.667,1.1,1.2l1.301,1.25l0.3,1.2l0.3,1.3v3.6h-0.75h-2.55l-0.351,0.101h-7.05c-0.333-0.033-0.6,0.1-0.8,0.399
		l-0.05,0.15c-0.367-1.7-0.55-3.467-0.55-5.3l0.1-2.3c0.133-1.534,0.4-3,0.8-4.4c1.066-3.8,3.083-7.2,6.05-10.2l1.9-1.7
		c4.267-3.5,9.267-5.25,15-5.25s10.733,1.75,15,5.25l1.85,1.7c3,3,5.033,6.4,6.101,10.2c0.6,2.1,0.899,4.333,0.899,6.7
		c0,1.8-0.166,3.517-0.5,5.149c-0.166-0.3-0.467-0.467-0.899-0.5h-8.9v-0.199l-0.2-3.25l-0.05-1.25c0-0.467,0.101-0.834,0.3-1.101
		l1.4-1.3l1.05-1.2l0.101-1.25c0.033-0.5,0.166-0.883,0.399-1.149c0.134-0.134,0.617-0.367,1.45-0.7
		c0.733-0.4,1.116-0.917,1.15-1.55c0.333-0.167,0.5-0.45,0.5-0.851c0-0.6-0.334-0.934-1-1h-0.15c-0.434-0.8-3.167-2.233-8.2-4.3
		l-5.55-3.2l-1.55-0.6C27.758,18.741,26.559,18.408,25.725,19.575"/>
	<path fill="#CDCCCC" d="M37.675,36.875l-0.05-0.05l0.15-0.05L37.675,36.875 M32.175,24.675l-0.2-0.35l3.45,1.85L32.175,24.675"/>
	<path fill="none" stroke="#5A4C36" stroke-linecap="round" stroke-linejoin="round" d="M13.275,48.875h-8.4 M3.625,46.275h9.7
		 M2.975,43.675h10.801 M10.675,52.275l3.2-2.4 M26.475,19.075l-20.6,10.6l4.8,3.2 M11.275,35.275l2.399,2.399 M39.675,48.875h8
		 M39.875,46.275h9.1 M40.025,43.675h9.449 M39.575,50.275l2.3,1.8 M39.475,37.675l2.601-2.2 M42.275,33.075l4.399-3.2
		 M27.075,18.975l19.6,10.5"/>
	<path fill="none" stroke="#5A4C36" stroke-linecap="round" stroke-linejoin="round" d="M25.075,29.875v-4.2
		c1.2-1.333,2.399-1.333,3.6,0v4.2 M33.425,61.525c-0.233-0.334-0.35-0.717-0.35-1.15c0-0.566,0.2-1.066,0.6-1.5
		c0.434-0.4,0.934-0.6,1.5-0.6s1.05,0.199,1.45,0.6c0.333,0.333,0.533,0.7,0.6,1.1 M24.875,62.475v-4.199h3.6v4.199 M15.875,60.325
		c0-0.533,0.2-1.017,0.6-1.45c0.434-0.4,0.934-0.6,1.5-0.6c0.567,0,1.051,0.199,1.45,0.6c0.434,0.434,0.65,0.934,0.65,1.5
		s-0.217,1.05-0.65,1.45"/>
	<path fill="none" stroke="#5A4C36" stroke-linecap="round" stroke-linejoin="round" d="M9.475,21.825c4.667-4.667,10.301-7,16.9-7
		s12.233,2.333,16.9,7c4.699,4.666,7.05,10.3,7.05,16.899c0,6.601-2.351,12.233-7.05,16.9c-4.667,4.7-10.301,7.05-16.9,7.05
		s-12.233-2.35-16.9-7.05c-4.666-4.667-7-10.3-7-16.9C2.475,32.125,4.809,26.491,9.475,21.825"/>
	<path fill="none" stroke="#5A4C36" stroke-linecap="round" stroke-linejoin="round" d="M11.075,32.025h31.2v3.3h-31.2V32.025
		 M13.875,37.125h3.65v13.2h-3.65V37.125 M32.375,37.125v13.2h-3.65v-13.2H32.375 M24.775,37.125v13.2h-3.65v-13.2H24.775
		 M36.025,50.325h3.6v-13.2h-3.6V50.325 M26.775,21.575l17.149,8.6H9.575L26.775,21.575 M10.725,52.275h31.2v3.3h-31.2V52.275"/>
</g>
<path fill="#FFFFFF" d="M32.118,63.387l18-33.75c0,0,2.5,15.188-1.188,21.875C41.892,64.277,32.118,63.387,32.118,63.387z"/>
<g>
	<polygon fill="#5A4D37" points="20,85.959 19.014,85.953 64.209,2.66 65.2,2.667 	"/>
</g>
</svg>
