<?xml version="1.0" encoding="utf-8"?>
<!-- Generator: Adobe Illustrator 15.0.0, SVG Export Plug-In . SVG Version: 6.00 Build 0)  -->
<!DOCTYPE svg PUBLIC "-//W3C//DTD SVG 1.1//EN" "http://www.w3.org/Graphics/SVG/1.1/DTD/svg11.dtd">
<svg version="1.1" id="Layer_1" xmlns="http://www.w3.org/2000/svg" xmlns:xlink="http://www.w3.org/1999/xlink" x="0px" y="0px"
	 width="65.2px" height="87.87px" viewBox="0 0 65.2 87.87" enable-background="new 0 0 65.2 87.87" xml:space="preserve">
<g id="_x31_8">
	<path fill="none" stroke="#5A4C36" stroke-linecap="round" stroke-linejoin="round" d="M50.175,38.975
		c0,6.601-2.35,12.233-7.05,16.9c-4.667,4.7-10.3,7.05-16.9,7.05c-6.6,0-12.233-2.35-16.899-7.05c-4.667-4.667-7-10.3-7-16.9
		c0-6.6,2.333-12.233,7-16.899c4.666-4.667,10.3-7,16.899-7c6.601,0,12.233,2.333,16.9,7C47.825,26.741,50.175,32.375,50.175,38.975
		"/>
	<path fill="#5A4C36" d="M24.575,28.775c-0.733-0.801-1.634-1.2-2.7-1.2c-1.5,0-3.05,0.783-4.65,2.35
		c-2.199,2.367-4.149,5.566-5.85,9.601c-1.233,3-1.85,5.35-1.85,7.05c0,1.366,0.366,2.416,1.1,3.149c0.733,0.801,1.566,1.2,2.5,1.2
		c1.1,0,2.316-0.434,3.65-1.3c1.3-0.9,2.683-2.267,4.149-4.1c1.333-1.801,2.333-3.684,3-5.65c1.2-3.134,1.8-5.767,1.8-7.9
		C25.725,30.708,25.342,29.642,24.575,28.775 M31.725,16.125l-0.199-0.1l0.8-0.25l0.55,0.199l3.45,1.101
		c1.767,1.5,3.2,3.283,4.3,5.35c1.733,3.367,2.6,6.917,2.6,10.65c0,3.666-0.816,7.35-2.449,11.05c-1.667,3.667-3.784,6.333-6.351,8
		s-5.233,2.5-8,2.5c-1.6,0-2.767-0.384-3.5-1.15c-0.767-0.733-1.149-1.733-1.149-3l0.55-4.5c-2.934,3.601-5.351,5.95-7.25,7.051
		c-1.867,1.1-3.467,1.649-4.8,1.649c-1.5,0-2.784-0.667-3.851-2c-1.133-1.267-1.7-2.983-1.7-5.149c0-3,0.95-6.317,2.851-9.95
		c1.899-3.601,4.45-6.567,7.649-8.9c2.467-1.733,4.584-2.6,6.351-2.6c1.333,0,2.467,0.383,3.399,1.149
		c0.867,0.667,1.467,1.7,1.801,3.101l1.05-3.3l4.75-0.75l-5.95,20.85l-0.45,2.95c0,0.566,0.2,1.133,0.601,1.7
		c0.433,0.399,0.982,0.6,1.649,0.6c1.533,0,3.333-0.717,5.4-2.15c2.166-1.566,3.967-3.983,5.399-7.25
		c1.434-3.333,2.15-6.816,2.15-10.449c0-3.5-0.816-6.717-2.45-9.65C37.125,19.809,34.725,17.559,31.725,16.125"/>
</g>
<path fill="#FFFFFF" d="M32.118,63.387l18-33.75c0,0,2.5,15.188-1.188,21.875C41.892,64.277,32.118,63.387,32.118,63.387z"/>
<g>
	<polygon fill="#5A4D37" points="20,85.959 19.014,85.953 64.209,2.66 65.2,2.667 	"/>
</g>
</svg>
