<?xml version="1.0" encoding="utf-8"?>
<!-- Generator: Adobe Illustrator 15.0.0, SVG Export Plug-In . SVG Version: 6.00 Build 0)  -->
<!DOCTYPE svg PUBLIC "-//W3C//DTD SVG 1.1//EN" "http://www.w3.org/Graphics/SVG/1.1/DTD/svg11.dtd">
<svg version="1.1" id="Layer_1" xmlns="http://www.w3.org/2000/svg" xmlns:xlink="http://www.w3.org/1999/xlink" x="0px" y="0px"
	 width="65.2px" height="87.87px" viewBox="0 0 65.2 87.87" enable-background="new 0 0 65.2 87.87" xml:space="preserve">
<g id="_x31_9">
	<path fill="#5A4C36" d="M33.525,48.125c-0.233,1.434-1.584,2.616-4.051,3.55c-2.399,0.9-5.3,1.4-8.699,1.5
		c-3.434,0.101-6.367-0.267-8.801-1.1c-2.433-0.8-3.767-2.017-4-3.65c-0.199-1.633,0.934-3.133,3.4-4.5
		c2.467-1.333,5.566-2.033,9.3-2.1c3.7-0.067,6.851,0.616,9.45,2.05C32.658,45.241,33.792,46.658,33.525,48.125"/>
	<path fill="none" stroke="#5A4C36" stroke-linecap="round" stroke-linejoin="round" d="M50.025,38.825
		c0,6.6-2.351,12.233-7.051,16.899c-4.666,4.7-10.3,7.051-16.899,7.051c-6.601,0-12.233-2.351-16.9-7.051
		c-4.667-4.666-7-10.3-7-16.899c0-6.601,2.333-12.233,7-16.9s10.3-7,16.9-7c6.6,0,12.233,2.333,16.899,7
		C47.675,26.592,50.025,32.225,50.025,38.825"/>
	<path fill="#FFFFFF" d="M36.775,43.175c2.5,1.434,3.6,2.884,3.3,4.351c-0.267,1.399-1.634,2.55-4.101,3.449
		c-2.399,0.867-5.3,1.317-8.699,1.351c-3.467,0.033-6.4-0.384-8.801-1.25c-2.433-0.834-3.75-2.084-3.949-3.75
		c-0.167-1.634,1-3.101,3.5-4.4s5.616-1.95,9.35-1.95C31.075,40.975,34.208,41.708,36.775,43.175"/>
	<path fill="none" stroke="#5A4C36" stroke-linecap="round" stroke-linejoin="round" d="M14.825,47.875v-2.1l-0.101-0.4l0.051-0.2
		c0.133-1.066,1.333-2.017,3.6-2.85c2.467-0.867,5.383-1.317,8.75-1.351c3.467-0.033,6.417,0.384,8.85,1.25
		c2.334,0.733,3.567,1.634,3.7,2.7v0.25l-0.1,0.4l0.05,2.8 M14.775,45.175l0.05,0.601c0.1,0.366,0.316,0.699,0.649,1
		c0.634,0.6,1.617,1.116,2.95,1.55l0.75,0.25h0.05c2.301,0.666,4.967,0.967,8,0.899l0.45,0.051l4.4-0.351l3.899-1l1.9-0.75l1.1-0.85
		l0.601-1l0.1-0.65 M15.375,48.175l0.05-0.35 M23.425,49.725l0.05,1.601 M19.225,50.725v-2.149 M37.875,47.425v2 M39.175,48.375v0.3
		"/>
	<path fill="none" stroke="#5A4C36" stroke-width="1.8" stroke-linecap="round" stroke-linejoin="round" d="M39.175,48.675
		c-0.399,0.9-1.517,1.684-3.35,2.351c-2.334,0.833-5.15,1.267-8.45,1.3s-6.083-0.351-8.35-1.15c-2.4-0.8-3.617-1.8-3.65-3"/>
	<path fill="#FFFFFF" d="M36.575,37.575c2.5,1.433,3.6,2.883,3.3,4.35c-0.267,1.4-1.634,2.55-4.1,3.45
		c-2.4,0.866-5.301,1.316-8.7,1.35c-3.467,0.033-6.4-0.383-8.8-1.25c-2.434-0.833-3.75-2.083-3.95-3.75
		c-0.167-1.633,1-3.1,3.5-4.399s5.616-1.95,9.35-1.95C30.875,35.375,34.008,36.108,36.575,37.575"/>
	<path fill="none" stroke="#5A4C36" stroke-linecap="round" stroke-linejoin="round" d="M37.475,41.725l1.101-0.899l0.649-1
		l0.051-0.65c-0.134-1.066-1.351-1.967-3.65-2.7c-2.467-0.866-5.417-1.283-8.85-1.25c-3.4,0.033-6.334,0.483-8.801,1.351
		c-2.267,0.833-3.449,1.783-3.55,2.85v0.65c0.101,0.333,0.316,0.666,0.65,1c0.633,0.566,1.616,1.066,2.95,1.5l0.8,0.25
		c2.3,0.666,4.983,0.983,8.05,0.95h0.4l4.399-0.351l3.9-1L37.475,41.725v1.95 M14.975,42.475l0.051-0.399 M18.825,44.975v-2.149
		 M23.025,43.975l0.05,1.601 M39.225,39.825l0.051-0.4v-0.25 M39.225,42.625v-2.8 M38.775,42.625v0.35 M14.425,42.125v-2.05
		l-0.05-0.45l0.05-0.2"/>
	<path fill="none" stroke="#5A4C36" stroke-width="1.8" stroke-linecap="round" stroke-linejoin="round" d="M38.775,42.975
		c-0.4,0.867-1.5,1.634-3.301,2.301c-2.366,0.866-5.199,1.3-8.5,1.3c-3.3,0.033-6.083-0.351-8.35-1.15
		c-2.4-0.8-3.617-1.783-3.65-2.95"/>
	<path fill="#FFFFFF" d="M38.375,31.825c2.5,1.433,3.6,2.883,3.3,4.35c-0.267,1.4-1.633,2.55-4.1,3.45
		c-2.4,0.866-5.3,1.316-8.7,1.35c-3.467,0.033-6.4-0.383-8.8-1.25c-2.434-0.833-3.75-2.083-3.95-3.75c-0.167-1.633,1-3.1,3.5-4.399
		s5.616-1.95,9.35-1.95C32.675,29.625,35.809,30.358,38.375,31.825"/>
	<path fill="none" stroke="#5A4C36" stroke-linecap="round" stroke-linejoin="round" d="M16.875,36.825l0.05-0.4 M33.575,37.775
		l3.899-1l1.9-0.7l1.1-0.9l0.65-1l0.05-0.649c-0.133-1.067-1.35-1.967-3.649-2.7c-2.467-0.867-5.417-1.283-8.851-1.25
		c-3.399,0.033-6.333,0.483-8.8,1.35c-2.267,0.833-3.45,1.783-3.55,2.851v0.649c0.1,0.333,0.316,0.667,0.649,1
		c0.634,0.566,1.617,1.066,2.95,1.5l0.8,0.25c2.301,0.667,4.983,0.983,8.051,0.95h0.399L33.575,37.775 M24.925,38.325l0.05,1.6
		 M20.725,39.325v-2.15 M41.175,33.525v0.25l-0.05,0.399v2.8 M39.375,36.075v1.95 M40.675,36.975v0.351 M16.325,36.475v-2.05
		l-0.05-0.45l0.05-0.199"/>
	<path fill="none" stroke="#5A4C36" stroke-width="1.8" stroke-linecap="round" stroke-linejoin="round" d="M40.675,37.325
		c-0.399,0.866-1.5,1.633-3.3,2.3c-2.367,0.866-5.2,1.3-8.5,1.3c-3.3,0.033-6.083-0.35-8.35-1.149c-2.4-0.801-3.617-1.784-3.65-2.95
		"/>
	<path fill="#FFFFFF" d="M37.125,32.025c-0.233,1.433-1.583,2.616-4.05,3.55c-2.4,0.899-5.3,1.399-8.7,1.5
		c-3.434,0.1-6.367-0.267-8.8-1.101c-2.434-0.8-3.767-2.017-4-3.649c-0.2-1.634,0.933-3.134,3.399-4.5
		c2.467-1.334,5.567-2.033,9.301-2.101c3.699-0.066,6.85,0.617,9.449,2.051C36.258,29.142,37.392,30.559,37.125,32.025"/>
	<path fill="none" stroke="#5A4C36" stroke-linecap="round" stroke-linejoin="round" d="M36.775,29.475
		c-0.167-1.066-1.4-1.949-3.7-2.649c-2.5-0.834-5.467-1.2-8.9-1.101c-3.399,0.101-6.316,0.601-8.75,1.5
		c-2.267,0.867-3.434,1.834-3.5,2.9v0.65l0.7,1c0.633,0.566,1.616,1.05,2.95,1.449l0.8,0.25c2.333,0.634,5.017,0.9,8.05,0.801h0.4
		l4.399-0.45l3.9-1.05l1.9-0.75l1.05-0.9l0.649-1L36.775,29.475v0.25l-0.051,0.4l0.051,2.8 M12.525,33.175l0.05-0.399
		 M36.325,32.925v0.351 M35.025,32.025v1.949 M20.625,34.525l0.05,1.6 M16.425,35.625l-0.05-2.15 M11.975,32.825l-0.05-2.05
		l-0.05-0.45l0.05-0.2"/>
	<path fill="none" stroke="#5A4C36" stroke-width="1.8" stroke-linecap="round" stroke-linejoin="round" d="M36.325,33.275
		c-0.367,0.866-1.45,1.649-3.25,2.35c-2.367,0.9-5.2,1.383-8.5,1.45c-3.267,0.1-6.05-0.233-8.351-1
		c-2.399-0.767-3.633-1.733-3.699-2.9"/>
	<path fill="none" stroke="#5A4C36" stroke-linecap="round" stroke-linejoin="round" d="M26.525,34.125l-10.801-6.8"/>
</g>
<path fill="#FFFFFF" d="M32.118,63.387l18-33.75c0,0,2.5,15.188-1.188,21.875C41.892,64.277,32.118,63.387,32.118,63.387z"/>
<g>
	<polygon fill="#5A4D37" points="20,85.959 19.014,85.953 64.209,2.66 65.2,2.667 	"/>
</g>
</svg>
