<?xml version="1.0" encoding="utf-8"?>
<!-- Generator: Adobe Illustrator 15.0.0, SVG Export Plug-In . SVG Version: 6.00 Build 0)  -->
<!DOCTYPE svg PUBLIC "-//W3C//DTD SVG 1.1//EN" "http://www.w3.org/Graphics/SVG/1.1/DTD/svg11.dtd">
<svg version="1.1" id="Layer_1" xmlns="http://www.w3.org/2000/svg" xmlns:xlink="http://www.w3.org/1999/xlink" x="0px" y="0px"
	 width="65.2px" height="87.87px" viewBox="0 0 65.2 87.87" enable-background="new 0 0 65.2 87.87" xml:space="preserve">
<g id="_x32_">
	<path fill="#5A4C36" d="M19.35,23.066l-0.1,0.05l-0.3,0.05l-2.601,0.45l-7.5,1.25L8.4,24.916c-2.334-0.133-0.051-2.733,6.85-7.8
		c5.7-2.5,11.4-2.867,17.1-1.1c-5.6,1.033-9.684,3.117-12.25,6.25l-0.55,0.7L19.35,23.066l-0.399,0.1L19.35,23.066 M40.2,52.465
		l-0.2-0.6l1-0.549l0.15-0.201l0.149-0.15c1.467-1.699,3.717-3.1,6.75-4.199c-0.267,0.301-0.2,0.5,0.2,0.6L43,55.115h-1l-0.05-0.049
		l-0.05-0.051l0.1-0.1l-0.15,0.049l-0.1-0.148l0.1,0.148L42,54.916l-0.1,0.1l0.05,0.051l-2.15,3.299
		C31.267,62,24.416,63,19.25,61.365l9.7-2.75l-9.7,2.75l-0.75-0.25l10.45-2.5l11.55-2.75l0.4-0.199l0.05-0.051l0.399-0.25
		l0.301-0.199l0.25-0.15l-0.051-0.051l-0.199,0.201l-0.25,0.1l0.25-0.1l0.199-0.201l0.051,0.051l-0.25,0.15l-0.301,0.199l0.051-0.1
		l0.35-0.449l-0.7-0.9l-0.399,0.1l-0.101-0.4l-0.2-0.65L40.2,52.465l0.05-0.049l0.75-1.1l-0.75,1.1L40.2,52.465 M16.35,23.616
		c-2.5-0.101-5,0.316-7.5,1.25C11.35,23.933,13.85,23.516,16.35,23.616 M3,38.116l9,18.999c-2.6-0.6-4.883-3.184-6.85-7.75
		C2.483,43.033,1.767,39.283,3,38.116 M40.35,52.965l0.7,0.951L40.35,52.965"/>
	<path fill="none" stroke="#5A4C36" stroke-linecap="round" stroke-linejoin="round" d="M18.95,23.166l-2.601,0.45 M8.85,24.866
		c-0.967,0.333-1.934,0.75-2.899,1.25 M19.35,23.066l0.4-0.101l-1.45,0.65l1.2,0.05h0.35l0.15,0.2l20,28.649l0.2-0.051l-0.15,0.102
		L40,52.516l-23.55,6.1 M41,51.316l0.15-0.201l0.149-0.15c1.467-1.699,3.717-3.1,6.75-4.199 M42,55.115l0.2,0.301l0.3-0.051
		 M19.55,22.966l0.55-0.7c2.566-3.133,6.65-5.216,12.25-6.25 M8.85,24.866c2.5-0.934,5-1.351,7.5-1.25 M18.3,23.616l-0.1,0.05h1.3
		 M18.2,23.666l0.1-0.1v0.05 M18.95,23.166l0.399-0.1 M40.35,52.965l-0.3-0.398 M40.2,52.465l0.05-0.049l0.75-1.1 M17.2,60.115
		l23.25-6.049l0.1-0.451 M40.65,54.016l0.399-0.1l-0.7-0.951 M41.75,54.816l0.1,0.148L42,54.916l-0.1,0.1l0.05,0.051L42,55.115
		 M41.4,55.266l0.25-0.1l0.199-0.201l0.051,0.051l-0.25,0.15l-0.301,0.199l-0.1,0.051l-0.3,0.199l-0.05,0.051l-0.4,0.199
		 M28.95,58.615l-9.7,2.75 M41.75,54.816l-0.7-0.9 M41.4,55.266l-0.15,0.15l-12.3,3.199 M40.65,54.016l-0.2,0.051 M5.8,26.466
		c5.866-2.3,10.601-3.167,14.2-2.6 M2.95,33.366L16,58.365 M2.45,36.866L13.2,58.615"/>
	<path fill="none" stroke="#5A4C36" stroke-linecap="round" stroke-linejoin="round" d="M42.6,22.066
		c4.566,4.6,6.851,10.15,6.851,16.65s-2.284,12.05-6.851,16.649c-4.6,4.566-10.149,6.85-16.649,6.85S13.9,59.932,9.3,55.365
		c-4.566-4.6-6.85-10.149-6.85-16.649s2.283-12.05,6.85-16.65c4.601-4.566,10.15-6.85,16.65-6.85S38,17.5,42.6,22.066"/>
</g>
<path fill="#FFFFFF" d="M32.118,63.387l18-33.75c0,0,2.5,15.188-1.188,21.875C41.892,64.277,32.118,63.387,32.118,63.387z"/>
<g>
	<polygon fill="#5A4D37" points="20,85.959 19.014,85.953 64.209,2.66 65.2,2.667 	"/>
</g>
</svg>
