<?xml version="1.0" encoding="utf-8"?>
<!-- Generator: Adobe Illustrator 15.0.0, SVG Export Plug-In . SVG Version: 6.00 Build 0)  -->
<!DOCTYPE svg PUBLIC "-//W3C//DTD SVG 1.1//EN" "http://www.w3.org/Graphics/SVG/1.1/DTD/svg11.dtd">
<svg version="1.1" id="Layer_1" xmlns="http://www.w3.org/2000/svg" xmlns:xlink="http://www.w3.org/1999/xlink" x="0px" y="0px"
	 width="65.2px" height="87.87px" viewBox="0 0 65.2 87.87" enable-background="new 0 0 65.2 87.87" xml:space="preserve">
<g id="_x32_0">
	<path fill="none" stroke="#5A4C36" stroke-linecap="round" stroke-linejoin="round" d="M12.28,31.858l25.666-1.079l0.88-1.735
		 M37.945,30.779l0.411-0.038 M12.771,33.275l12.682,15.179 M26.926,51.172l11.019-20.393"/>
	<path fill="#5A4C36" d="M40.176,26.987c1.314,0.637,2.207,1.633,2.678,2.987c0.47,1.354,0.388,2.689-0.25,4.004
		s-1.633,2.208-2.987,2.678c-1.354,0.47-2.689,0.387-4.004-0.25c-1.315-0.637-2.208-1.633-2.678-2.987
		c-0.47-1.354-0.387-2.689,0.25-4.004s1.634-2.208,2.987-2.678C37.526,26.266,38.86,26.35,40.176,26.987 M18.358,31.07
		c0.47,1.354,0.386,2.689-0.25,4.004c-0.637,1.315-1.633,2.207-2.987,2.678c-1.354,0.47-2.689,0.387-4.004-0.25
		c-1.315-0.637-2.208-1.633-2.678-2.987c-0.47-1.354-0.387-2.689,0.25-4.004c0.637-1.315,1.633-2.208,2.987-2.678
		c1.354-0.471,2.688-0.388,4.004,0.25C16.995,28.72,17.888,29.716,18.358,31.07 M31.137,52.78c-0.637,1.314-1.633,2.207-2.987,2.677
		c-1.354,0.471-2.689,0.387-4.004-0.25s-2.208-1.633-2.678-2.987c-0.47-1.354-0.386-2.688,0.25-4.003
		c0.637-1.315,1.633-2.208,2.987-2.678c1.354-0.471,2.689-0.388,4.004,0.25c1.315,0.637,2.208,1.632,2.678,2.986
		S31.774,51.465,31.137,52.78"/>
	<path fill="none" stroke="#5A4C36" stroke-linecap="round" stroke-linejoin="round" d="M48.693,30.327
		c2.165,6.235,1.792,12.328-1.116,18.278c-2.866,5.971-7.417,10.039-13.652,12.204c-6.235,2.165-12.327,1.794-18.278-1.115
		c-5.94-2.879-9.992-7.434-12.157-13.669c-2.165-6.234-1.809-12.322,1.069-18.26c2.877-5.94,7.433-9.992,13.668-12.157
		c6.234-2.166,12.322-1.81,18.259,1.068C42.459,19.542,46.528,24.093,48.693,30.327"/>
</g>
<path fill="#FFFFFF" d="M32.118,63.387l18-33.75c0,0,2.5,15.188-1.188,21.875C41.892,64.277,32.118,63.387,32.118,63.387z"/>
<g>
	<polygon fill="#5A4D37" points="20,85.959 19.014,85.953 64.209,2.66 65.2,2.667 	"/>
</g>
</svg>
