<?xml version="1.0" encoding="utf-8"?>
<!-- Generator: Adobe Illustrator 15.0.0, SVG Export Plug-In . SVG Version: 6.00 Build 0)  -->
<!DOCTYPE svg PUBLIC "-//W3C//DTD SVG 1.1//EN" "http://www.w3.org/Graphics/SVG/1.1/DTD/svg11.dtd">
<svg version="1.1" id="Layer_1" xmlns="http://www.w3.org/2000/svg" xmlns:xlink="http://www.w3.org/1999/xlink" x="0px" y="0px"
	 width="65.2px" height="87.87px" viewBox="0 0 65.2 87.87" enable-background="new 0 0 65.2 87.87" xml:space="preserve">
<g id="_x32_1">
	<path fill="#5A4C36" d="M27.425,52.775v9.6h-4.399v-9.6H27.425 M27.825,14.525v9.6h-4.4v-9.6H27.825"/>
	<path fill="none" stroke="#5A4C36" stroke-linecap="round" stroke-linejoin="round" d="M42.975,21.525
		c4.7,4.666,7.051,10.3,7.051,16.899c0,6.601-2.351,12.233-7.051,16.9c-4.666,4.7-10.3,7.05-16.899,7.05
		c-6.601,0-12.233-2.35-16.9-7.05c-4.667-4.667-7-10.3-7-16.9c0-6.6,2.333-12.233,7-16.899c4.667-4.667,10.3-7,16.9-7
		C32.675,14.525,38.309,16.858,42.975,21.525"/>
	<path fill="#5A4C36" d="M11.325,39.075c0-3.233,0.483-6.15,1.45-8.75c1-2.567,2.466-4.55,4.399-5.95c1.967-1.434,4.3-2.15,7-2.15
		c3.9,0,6.65,1.283,8.25,3.851h0.101v-3.101h5.149v11.15h-5.149c-0.101-2.3-0.817-4.1-2.15-5.4c-1.367-1.233-3.1-1.85-5.2-1.85
		c-2.733,0-4.7,1.2-5.899,3.6c-1.233,2.4-1.851,5.434-1.851,9.101c0,3.233,0.684,5.899,2.05,8c1.4,2.066,3.467,3.1,6.2,3.1
		c1.934,0,3.533-0.684,4.8-2.05c1.334-1.4,2.017-3.267,2.051-5.6h-4v-4.601h12.05v4.601h-2.7v11.649h-5.1v-3.55h-0.101
		c-1.399,2.767-3.833,4.15-7.3,4.15c-4.6,0-8.083-1.467-10.45-4.4C12.525,47.809,11.325,43.875,11.325,39.075"/>
</g>
<path fill="#FFFFFF" d="M32.118,63.387l18-33.75c0,0,2.5,15.188-1.188,21.875C41.892,64.277,32.118,63.387,32.118,63.387z"/>
<g>
	<polygon fill="#5A4D37" points="20,85.959 19.014,85.953 64.209,2.66 65.2,2.667 	"/>
</g>
</svg>
