<?xml version="1.0" encoding="utf-8"?>
<!-- Generator: Adobe Illustrator 15.0.0, SVG Export Plug-In . SVG Version: 6.00 Build 0)  -->
<!DOCTYPE svg PUBLIC "-//W3C//DTD SVG 1.1//EN" "http://www.w3.org/Graphics/SVG/1.1/DTD/svg11.dtd">
<svg version="1.1" id="Layer_1" xmlns="http://www.w3.org/2000/svg" xmlns:xlink="http://www.w3.org/1999/xlink" x="0px" y="0px"
	 width="65.2px" height="87.87px" viewBox="0 0 65.2 87.87" enable-background="new 0 0 65.2 87.87" xml:space="preserve">
<g id="_x33_">
	<path fill="none" stroke="#5A4C36" stroke-linecap="round" stroke-linejoin="round" d="M11.633,34.126l25.852-3.597 M12.258,35.489
		l14.07,13.903"/>
	<path fill="#5A4C36" d="M34.926,26.751c1.306-0.596,2.641-0.642,4.01-0.131c1.371,0.508,2.354,1.415,2.952,2.716
		c0.598,1.304,0.639,2.641,0.131,4.01c-0.508,1.371-1.416,2.354-2.716,2.95c-1.305,0.598-2.642,0.642-4.01,0.133
		c-1.371-0.508-2.354-1.415-2.951-2.717c-0.598-1.303-0.642-2.639-0.132-4.009C32.719,28.332,33.625,27.347,34.926,26.751
		 M8.063,37.137c-0.597-1.303-0.641-2.639-0.133-4.008c0.509-1.372,1.414-2.355,2.719-2.952c1.302-0.597,2.639-0.642,4.01-0.131
		c1.368,0.509,2.353,1.414,2.949,2.717c0.598,1.303,0.641,2.641,0.133,4.01c-0.51,1.37-1.416,2.353-2.717,2.95
		c-1.304,0.598-2.641,0.642-4.012,0.132C9.645,39.347,8.66,38.44,8.063,37.137 M32.266,49.146c0.598,1.303,0.641,2.639,0.131,4.01
		c-0.509,1.369-1.414,2.352-2.717,2.949s-2.64,0.643-4.01,0.131c-1.369-0.508-2.354-1.414-2.95-2.717s-0.641-2.639-0.133-4.008
		c0.51-1.371,1.416-2.354,2.719-2.953c1.303-0.596,2.638-0.639,4.009-0.129C30.685,46.939,31.668,47.844,32.266,49.146"/>
	<path fill="none" stroke="#5A4C36" stroke-linecap="round" stroke-linejoin="round" d="M16.25,16.72
		c6.002-2.75,12.094-2.975,18.281-0.677C40.748,18.328,45.23,22.47,47.98,28.47c2.749,6.001,2.959,12.101,0.63,18.302
		c-2.285,6.217-6.425,10.697-12.426,13.447c-6.001,2.752-12.101,2.961-18.3,0.631C11.697,58.553,7.23,54.404,4.48,48.404
		c-2.749-6-2.975-12.095-0.678-18.281C6.102,23.938,10.251,19.469,16.25,16.72"/>
</g>
<path fill="#FFFFFF" d="M32.118,63.387l18-33.75c0,0,2.5,15.188-1.188,21.875C41.892,64.277,32.118,63.387,32.118,63.387z"/>
<g>
	<polygon fill="#5A4D37" points="20,85.959 19.014,85.953 64.209,2.66 65.2,2.667 	"/>
</g>
</svg>
