<?xml version="1.0" encoding="utf-8"?>
<!-- Generator: Adobe Illustrator 15.0.0, SVG Export Plug-In . SVG Version: 6.00 Build 0)  -->
<!DOCTYPE svg PUBLIC "-//W3C//DTD SVG 1.1//EN" "http://www.w3.org/Graphics/SVG/1.1/DTD/svg11.dtd">
<svg version="1.1" id="Layer_1" xmlns="http://www.w3.org/2000/svg" xmlns:xlink="http://www.w3.org/1999/xlink" x="0px" y="0px"
	 width="65.2px" height="87.87px" viewBox="0 0 65.2 87.87" enable-background="new 0 0 65.2 87.87" xml:space="preserve">
<g id="_x34_">
	<path fill="none" stroke="#5A4C36" stroke-linecap="round" stroke-linejoin="round" d="M25.784,14.867c6.6,0,12.232,2.333,16.9,7
		c4.699,4.666,7.049,10.3,7.049,16.899c0,6.601-2.35,12.233-7.049,16.9c-4.668,4.7-10.3,7.05-16.9,7.05
		c-6.601,0-12.233-2.35-16.9-7.05c-4.667-4.667-7-10.3-7-16.9c0-6.6,2.333-12.233,7-16.899C13.55,17.2,19.183,14.867,25.784,14.867"
		/>
	<path fill="none" stroke="#5A4C36" stroke-linecap="round" stroke-linejoin="round" d="M16.483,34.917l3.101,20.8"/>
	<path fill="none" stroke="#5A4C36" stroke-linecap="round" stroke-linejoin="round" d="M42.482,31.767
		c-1.033,1.367-2.398,2.167-4.1,2.4c-0.832,0.133-1.65,0.133-2.449,0c-0.434,0.3-0.9,0.467-1.4,0.5h-1.4l-0.3,0.35l-0.75,0.5
		c-0.134,0.533-0.167,1.367-0.101,2.5c0.101,1.833-0.75,2.783-2.55,2.851l-1-0.051c1.3,1.834,2.217,3.7,2.75,5.601
		c0.267,1.033,0.4,1.983,0.4,2.85v0.2l-0.5,1.95l-0.75,2.899l-0.25,1c-0.167,0.533-0.467,0.983-0.9,1.351
		c-1.467,1.399-3.8,1.467-7,0.2c-3.167-1.2-6.25-3.367-9.25-6.5c-3.033-3.134-5.116-6.301-6.25-9.5c-1.1-3.134-0.917-5.4,0.55-6.801
		c0.634-0.6,1.434-0.949,2.4-1.05h0.55l3.95-0.45l4.05,0.4c1.967,0.667,3.884,1.733,5.75,3.2l0.05-0.9
		c0.2-1.8,1.233-2.583,3.101-2.35h2.5l0.5-0.7l0.55-0.4c-0.134-0.767,0.05-1.533,0.55-2.3v-0.45c-0.267-1.666,0.083-3.183,1.05-4.55
		c1.033-1.366,2.4-2.2,4.101-2.5c1.732-0.2,3.299,0.184,4.699,1.15c1.4,1,2.232,2.316,2.5,3.95
		C43.801,28.85,43.449,30.4,42.482,31.767 M41.184,27.467c-0.133-1-0.617-1.783-1.451-2.35c-0.832-0.601-1.766-0.817-2.799-0.65
		c-0.967,0.133-1.768,0.6-2.4,1.4c-0.467,0.699-0.7,1.466-0.7,2.3c0.766-0.067,1.483,0.133,2.149,0.6
		c0.768,0.533,1.234,1.233,1.4,2.101v0.85l0.75-0.15c1.033-0.1,1.85-0.566,2.451-1.399C41.184,29.367,41.383,28.467,41.184,27.467
		 M10.183,33.017l2.101,0.25l1.949,0.601c3.2,1.232,6.317,3.416,9.351,6.55c3,3.133,5.05,6.283,6.149,9.45
		c0.334,0.966,0.533,1.85,0.601,2.649l0.75-1.1 M31.183,29.517l0.05-0.05c0.567-0.733,1.317-1.184,2.25-1.35l0.351,0.05
		 M30.633,31.816l0.85-0.149c0.567,0,1.033,0.2,1.4,0.6c0.4,0.4,0.583,0.867,0.55,1.4l-0.3,1 M37.383,31.717l-0.65,1.65l-0.799,0.8
		 M28.433,40.816l-2.2-2.55l-2.3-2.1 M30.333,52.517v1.8"/>
</g>
<path fill="#FFFFFF" d="M32.118,63.387l18-33.75c0,0,2.5,15.188-1.188,21.875C41.892,64.277,32.118,63.387,32.118,63.387z"/>
<g>
	<polygon fill="#5A4D37" points="20,85.959 19.014,85.953 64.209,2.66 65.2,2.667 	"/>
</g>
</svg>
