<?xml version="1.0" encoding="utf-8"?>
<!-- Generator: Adobe Illustrator 15.0.0, SVG Export Plug-In . SVG Version: 6.00 Build 0)  -->
<!DOCTYPE svg PUBLIC "-//W3C//DTD SVG 1.1//EN" "http://www.w3.org/Graphics/SVG/1.1/DTD/svg11.dtd">
<svg version="1.1" id="Layer_1" xmlns="http://www.w3.org/2000/svg" xmlns:xlink="http://www.w3.org/1999/xlink" x="0px" y="0px"
	 width="65.2px" height="87.87px" viewBox="0 0 65.2 87.87" enable-background="new 0 0 65.2 87.87" xml:space="preserve">
<g id="_x35_">
	<path fill="none" stroke="#5A4C36" stroke-linecap="round" stroke-linejoin="round" d="M42.5,21.617c4.667,4.667,7,10.3,7,16.899
		c0,6.601-2.333,12.234-7,16.9c-4.666,4.668-10.3,7-16.9,7c-6.6,0-12.233-2.332-16.899-7c-4.667-4.666-7-10.299-7-16.9
		c0-6.6,2.333-12.233,7-16.899c4.667-4.667,10.3-7,16.899-7C32.2,14.617,37.834,16.95,42.5,21.617"/>
	<path fill="#5A4C36" d="M27.2,26.917l-5.2,10l-2.3,6.6c-0.733,2.101-1.1,3.966-1.1,5.601l0.25,2.85
		c0.133,1.033,0.667,1.549,1.6,1.549c0.967,0,1.867-0.566,2.7-1.699c0.833-0.834,1.6-2.133,2.3-3.9l1.5-5.199l0.55-5V26.917H27.2
		 M38.15,30.267c0,5.701,0.383,10.9,1.15,15.601c0.566,3.699,1.283,7.182,2.149,10.449c-0.8,0.467-1.934,1.268-3.399,2.4
		c-0.601,0.467-2.334,1.199-5.201,2.199l-1.1,0.451l-0.449-0.301l-2.701-14.4h-0.299l-1.101,5.15l-1.85,4.85
		c-1.167,1.668-2.283,2.834-3.35,3.5c-1.167,0.668-2.517,1.066-4.05,1.201L16,60.666c-0.767-0.266-1.483-0.816-2.15-1.65
		c-0.8-1.633-1.2-3.467-1.2-5.5c0-4.166,0.784-8.133,2.35-11.899c1.367-3.533,3.033-6.917,5-10.15l5.15-9.1
		c1.567-2.8,2.35-5.4,2.35-7.8l1.75-0.15l0.7,0.3c2.2,0.966,4.083,1.533,5.649,1.7l2.551,1.1V30.267 M42.6,60.467h-0.25l0.201-0.15
		L42.6,60.467"/>
</g>
<path fill="#FFFFFF" d="M32.118,63.387l18-33.75c0,0,2.5,15.188-1.188,21.875C41.892,64.277,32.118,63.387,32.118,63.387z"/>
<g>
	<polygon fill="#5A4D37" points="20,85.959 19.014,85.953 64.209,2.66 65.2,2.667 	"/>
</g>
</svg>
