<?xml version="1.0" encoding="utf-8"?>
<!-- Generator: Adobe Illustrator 15.0.0, SVG Export Plug-In . SVG Version: 6.00 Build 0)  -->
<!DOCTYPE svg PUBLIC "-//W3C//DTD SVG 1.1//EN" "http://www.w3.org/Graphics/SVG/1.1/DTD/svg11.dtd">
<svg version="1.1" id="Layer_1" xmlns="http://www.w3.org/2000/svg" xmlns:xlink="http://www.w3.org/1999/xlink" x="0px" y="0px"
	 width="65.2px" height="87.87px" viewBox="0 0 65.2 87.87" enable-background="new 0 0 65.2 87.87" xml:space="preserve">
<g id="_x36_">
	<path fill="none" stroke="#5A4C36" stroke-linecap="round" stroke-linejoin="round" d="M17.575,28.008v4.95h8.2l0.149-13.3
		l13.8,13.3h-13.95v13.95h7.199v-4.25 M32.974,46.908h6.85 M25.775,46.908v10.201l-13.45-10.201H25.775 M32.974,51.408v-4.5
		 M12.125,32.958h5.45v4.5"/>
	<path fill="none" stroke="#5A4C36" stroke-linecap="round" stroke-linejoin="round" d="M42.924,21.659
		c4.701,4.666,7.051,10.3,7.051,16.899c0,6.6-2.35,12.233-7.051,16.901c-4.666,4.699-10.299,7.049-16.899,7.049
		c-6.601,0-12.233-2.35-16.9-7.049c-4.667-4.668-7-10.301-7-16.901c0-6.6,2.333-12.233,7-16.899c4.667-4.667,10.3-7,16.9-7
		C32.625,14.659,38.258,16.992,42.924,21.659"/>
</g>
<path fill="#FFFFFF" d="M32.118,63.387l18-33.75c0,0,2.5,15.188-1.188,21.875C41.892,64.277,32.118,63.387,32.118,63.387z"/>
<g>
	<polygon fill="#5A4D37" points="20,85.959 19.014,85.953 64.209,2.66 65.2,2.667 	"/>
</g>
</svg>
