<?xml version="1.0" encoding="utf-8"?>
<!-- Generator: Adobe Illustrator 15.0.0, SVG Export Plug-In . SVG Version: 6.00 Build 0)  -->
<!DOCTYPE svg PUBLIC "-//W3C//DTD SVG 1.1//EN" "http://www.w3.org/Graphics/SVG/1.1/DTD/svg11.dtd">
<svg version="1.1" id="Layer_1" xmlns="http://www.w3.org/2000/svg" xmlns:xlink="http://www.w3.org/1999/xlink" x="0px" y="0px"
	 width="65.2px" height="87.87px" viewBox="0 0 65.2 87.87" enable-background="new 0 0 65.2 87.87" xml:space="preserve">
<g id="_x37_">
	<path fill="none" stroke="#5A4C36" stroke-linecap="round" stroke-linejoin="round" d="M42.351,55.568
		c-4.668,4.699-10.3,7.049-16.901,7.049c-6.6,0-12.233-2.35-16.899-7.049c-4.667-4.668-7-10.301-7-16.901c0-6.6,2.333-12.233,7-16.9
		c2.199-2.199,4.616-3.883,7.25-5.05c2.966-1.3,6.183-1.95,9.649-1.95c3.5,0,6.717,0.65,9.651,1.95
		c2.633,1.167,5.049,2.851,7.25,5.05c4.699,4.667,7.049,10.301,7.049,16.9C49.399,45.268,47.05,50.9,42.351,55.568 M40.499,34.217
		l-1.398,1.351l0.398,0.1"/>
	<path fill="#5A4C36" d="M42.45,32.717c1.033,1.033,1.549,2.267,1.549,3.7s-0.516,2.667-1.549,3.7s-2.268,1.55-3.701,1.55
		c-1.432,0-2.666-0.517-3.699-1.55s-1.551-2.267-1.551-3.7s0.518-2.667,1.551-3.7s2.268-1.55,3.699-1.55
		C40.183,31.167,41.417,31.684,42.45,32.717 M18.95,25.717c1.033,1.033,1.55,2.267,1.55,3.7s-0.517,2.667-1.55,3.7
		s-2.267,1.55-3.7,1.55c-1.433,0-2.666-0.517-3.699-1.55C10.516,32.084,10,30.851,10,29.417s0.517-2.667,1.551-3.7
		c1.033-1.033,2.267-1.55,3.699-1.55C16.683,24.167,17.917,24.684,18.95,25.717 M21.75,55.668c-1.433,0-2.666-0.518-3.699-1.551
		c-1.034-1.033-1.551-2.266-1.551-3.699s0.517-2.668,1.551-3.701c1.033-1.033,2.267-1.549,3.699-1.549
		c1.434,0,2.667,0.516,3.7,1.549S27,48.984,27,50.418s-0.517,2.666-1.55,3.699S23.183,55.668,21.75,55.668"/>
	<path fill="none" stroke="#5A4C36" stroke-linecap="round" stroke-linejoin="round" d="M35.101,28.667
		c2.633,2.633,3.949,5.816,3.949,9.55s-1.316,6.918-3.949,9.551c-2.634,2.633-5.818,3.949-9.55,3.949
		c-3.733,0-6.917-1.316-9.551-3.949c-2.633-2.633-3.949-5.817-3.949-9.551S13.367,31.3,16,28.667c2.634-2.634,5.817-3.95,9.551-3.95
		C29.283,24.717,32.466,26.033,35.101,28.667"/>
</g>
<path fill="#FFFFFF" d="M32.118,63.387l18-33.75c0,0,2.5,15.188-1.188,21.875C41.892,64.277,32.118,63.387,32.118,63.387z"/>
<g>
	<polygon fill="#5A4D37" points="20,85.959 19.014,85.953 64.209,2.66 65.2,2.667 	"/>
</g>
</svg>
