<?xml version="1.0" encoding="utf-8"?>
<!-- Generator: Adobe Illustrator 15.0.0, SVG Export Plug-In . SVG Version: 6.00 Build 0)  -->
<!DOCTYPE svg PUBLIC "-//W3C//DTD SVG 1.1//EN" "http://www.w3.org/Graphics/SVG/1.1/DTD/svg11.dtd">
<svg version="1.1" id="Layer_1" xmlns="http://www.w3.org/2000/svg" xmlns:xlink="http://www.w3.org/1999/xlink" x="0px" y="0px"
	 width="65.2px" height="87.87px" viewBox="0 0 65.2 87.87" enable-background="new 0 0 65.2 87.87" xml:space="preserve">
<g id="_x38_">
	<path fill="#5A4C36" d="M15.875,31.841h-1.5v5.05h2.8v2.25c0.733-0.666,1.417-0.666,2.05,0v-3.199h2.25v-9.5h-1.699v-5.051h2.449
		v2.051c0.634,0.6,1.25,0.6,1.851,0v-2.051h2.45v2.051c0.633,0.633,1.25,0.633,1.85,0v-2.051h2.4v5.051h-1.65v9.5h2.4v3.199
		c0.633-0.767,1.383-0.767,2.25,0v-2.25h2.65v-5.25h-1.5v-3.899h2.199v1.5c0.701,0.566,1.334,0.566,1.9,0v-1.5h1.85v1.5
		c0.834,0.566,1.467,0.566,1.9,0v-1.5h1.85v3.899h-1.5v5.25h3.551v2.25c0.9-0.8,1.75-0.8,2.549,0v0.301H27.675v-0.25
		c0-0.667-0.233-1.233-0.7-1.7s-1.033-0.7-1.699-0.7c-0.667,0-1.233,0.233-1.7,0.7s-0.7,1.033-0.7,1.7v0.25h-21.2v-0.301
		c0.934-0.666,1.8-0.666,2.601,0v-2.25h3.35v-5.05h-1.5v-3.899h2.05v1.3c0.7,0.467,1.333,0.467,1.9,0v-1.3h2.25v1.3
		c0.666,0.5,1.283,0.5,1.85,0v-1.3h1.7V31.841 M6.076,52.141c-0.7-0.865-1.217-1.699-1.55-2.5h16.199v-0.898h-16.5l-0.949-2.352
		h45.05l-1,2.15l-0.15,0.25h-17.55v0.9h17l-1.549,2.5H29.625v0.9h14.849l-2.25,2.35H29.625v0.9h11.55l-1.451,1.049l-2.25,1.551
		h-7.849v0.9h5.9l-0.4,0.299l-1.25,0.701c-0.766,0.266-1.25,0.449-1.45,0.549l-3.35,0.75l-0.05-12.949c-2.667-1.5-5.2-1.5-7.601,0
		l-0.05,12.949c2.434-0.898,5-0.898,7.7,0l-0.3,0.051l-1.351,0.199h-4.85l-3.05-0.449l-1.95-0.699l-2-1.051l-0.601-0.4h5.75v-0.9h-8
		c-0.033-0.398-0.233-0.732-0.6-1l-1.8-1.199l-0.45-0.4h10.85v-0.9H9.076l-1.15-1.299l-1.05-1.051h13.85v-0.9H6.076 M1.925,41.091
		l-0.05-0.649h21.35l0.351,0.449c0.467,0.467,1.033,0.7,1.7,0.7c0.666,0,1.232-0.233,1.699-0.7l0.351-0.449h22.1l-0.1,2.1H2.276
		L1.925,41.091 M2.425,43.591v-0.2h46.799l-0.148,0.95c-0.201,0.167-0.352,0.417-0.451,0.75l-0.15,0.449h-45.5
		C2.675,44.742,2.492,44.091,2.425,43.591 M11.725,31.641c-0.633-0.633-1.267-0.633-1.899,0v3.551h1.899V31.641 M40.676,31.641
		c-0.566-0.699-1.201-0.699-1.9,0v3.551h1.9V31.641 M26.326,26.641c-0.667-0.6-1.351-0.6-2.05,0v3.9h2.05V26.641"/>
	<path fill="none" stroke="#5A4C36" stroke-linecap="round" stroke-linejoin="round" d="M42.475,21.391
		c4.701,4.667,7.051,10.301,7.051,16.9s-2.35,12.234-7.051,16.9c-4.666,4.699-10.299,7.051-16.899,7.051
		c-6.601,0-12.233-2.352-16.9-7.051c-4.667-4.666-7-10.3-7-16.9s2.333-12.233,7-16.9c4.667-4.666,10.3-7,16.9-7
		C32.175,14.391,37.809,16.725,42.475,21.391"/>
</g>
<path fill="#FFFFFF" d="M32.118,63.387l18-33.75c0,0,2.5,15.188-1.188,21.875C41.892,64.277,32.118,63.387,32.118,63.387z"/>
<g>
	<polygon fill="#5A4D37" points="20,85.959 19.014,85.953 64.209,2.66 65.2,2.667 	"/>
</g>
</svg>
