<?xml version="1.0" encoding="utf-8"?>
<!-- Generator: Adobe Illustrator 15.0.0, SVG Export Plug-In . SVG Version: 6.00 Build 0)  -->
<!DOCTYPE svg PUBLIC "-//W3C//DTD SVG 1.1//EN" "http://www.w3.org/Graphics/SVG/1.1/DTD/svg11.dtd">
<svg version="1.1" id="Layer_1" xmlns="http://www.w3.org/2000/svg" xmlns:xlink="http://www.w3.org/1999/xlink" x="0px" y="0px"
	 width="65.2px" height="87.87px" viewBox="0 0 65.2 87.87" enable-background="new 0 0 65.2 87.87" xml:space="preserve">
<g id="_x39_">
	<path fill="#5A4C36" d="M42.709,55.458c-4.635,4.667-10.25,7-16.85,7c-6.601,0-12.233-2.333-16.9-7
		c-4.634-4.634-6.95-10.25-6.95-16.85c0-6.601,2.316-12.233,6.95-16.9l1.9-1.7c4.267-3.5,9.267-5.25,15-5.25
		c5.732,0,10.733,1.75,15,5.25l1.85,1.7c4.666,4.667,7,10.3,7,16.9C49.709,45.208,47.375,50.824,42.709,55.458"/>
	<path fill="#FFFFFF" d="M7.808,22.858h7.75v0.949c-2,0.067-3,0.667-3,1.801c0,0.6,0.417,1.966,1.25,4.1l6.75,16.7l5.45-13.05
		l-2.7-6.65c-0.633-1.3-1.3-2.117-2-2.45c-0.533-0.3-1.333-0.45-2.399-0.45v-0.949h16.65v0.949l-1.8,0.101
		c-0.733,0.133-1.25,0.383-1.55,0.75c-0.2,0.3-0.3,0.633-0.3,1c0,0.5,0.383,1.683,1.149,3.55l6.25,16.3l5.65-14.75
		c0.832-2.2,1.266-3.7,1.299-4.5c0.566,0.867,1.066,1.783,1.5,2.75l-11.199,29h-0.949l-8.601-22.149l-9.35,22.149h-0.95l-11.3-28
		l-0.95-2.35C5.359,25.958,6.475,24.358,7.808,22.858"/>
	<path fill="none" stroke="#FFFFFF" stroke-linecap="round" stroke-linejoin="round" d="M7.808,22.858
		c-1.333,1.5-2.449,3.1-3.35,4.8 M47.758,29.008c-0.434-0.967-0.934-1.883-1.5-2.75"/>
	<path fill="none" stroke="#5A4C36" stroke-linecap="round" stroke-linejoin="round" d="M25.758,14.758c6.601,0,12.234,2.333,16.9,7
		c4.701,4.667,7.051,10.3,7.051,16.9c0,6.6-2.35,12.233-7.051,16.899c-4.666,4.7-10.299,7.051-16.9,7.051
		c-6.6,0-12.233-2.351-16.899-7.051c-4.667-4.666-7-10.3-7-16.899c0-6.601,2.333-12.233,7-16.9
		C13.525,17.091,19.159,14.758,25.758,14.758"/>
</g>
<path fill="#FFFFFF" d="M32.118,63.387l18-33.75c0,0,2.5,15.188-1.188,21.875C41.892,64.277,32.118,63.387,32.118,63.387z"/>
<g>
	<polygon fill="#5A4D37" points="20,85.959 19.014,85.953 64.209,2.66 65.2,2.667 	"/>
</g>
</svg>
