<?xml version="1.0" encoding="UTF-8" standalone="no"?>
<svg width="190px" height="61px" viewBox="0 0 190 61" version="1.1" xmlns="http://www.w3.org/2000/svg" xmlns:xlink="http://www.w3.org/1999/xlink">
    <title>ABOUT</title>
    <desc>Created with NINJA.</desc>
    <defs></defs>
    <g id="Page-1" stroke="none" stroke-width="1" fill="none" fill-rule="evenodd">
        <path d="M10.56,36.8 L25.92,36.8 L18.32,7.68 L18.16,7.68 L10.56,36.8 Z M15.36,1.36 L21.12,1.36 L36.56,58.96 L31.52,58.96 L26.96,41.2 L9.52,41.2 L4.8,58.96 L0,58.96 L15.36,1.36 Z M47.68,5.76 L47.68,26.56 L54.8,26.56 C60.72,26.56 66.24,24.8 66.24,15.6 C66.24,7.04 60.24,5.76 54.32,5.76 L47.68,5.76 Z M47.68,30.96 L47.68,54.56 L55.84,54.56 C62.64,54.56 67.84,51.84 67.84,42.32 C67.84,32.8 61.52,30.96 55.84,30.96 L47.68,30.96 Z M42.72,58.96 L42.72,1.36 L56.32,1.36 C64.72,1.36 71.2,5.6 71.2,15.44 C71.2,21.2 69.04,26.4 63.36,28.56 C70.08,30.4 72.8,35.6 72.8,42.4 C72.8,56.96 62.72,58.96 55.28,58.96 L42.72,58.96 Z M96.88,60.32 C81.6,60.32 80,44.88 80,30.08 C80,16.56 81.6,0 96.88,0 C112.72,0 113.84,16.56 113.84,30.08 C113.84,44.64 112.64,60.32 96.88,60.32 Z M96.88,55.92 C107.68,55.92 108.88,43.68 108.88,30.08 C108.88,18.56 107.84,4.4 96.88,4.4 C86.16,4.4 84.96,17.6 84.96,30.08 C84.96,42.8 86.16,55.92 96.88,55.92 Z M121.82,1.36 L121.82,43.76 C121.82,54.32 126.38,60.32 137.42,60.32 C149.9,60.32 153.18,52.64 153.18,41.36 L153.18,1.36 L148.22,1.36 L148.22,42.72 C148.22,50.48 146.22,55.92 137.26,55.92 C128.62,55.92 126.78,51.28 126.78,43.2 L126.78,1.36 L121.82,1.36 Z M176.28,5.76 L189.32,5.76 L189.32,1.36 L158.28,1.36 L158.28,5.76 L171.32,5.76 L171.32,58.96 L176.28,58.96 L176.28,5.76 Z" id="ABOUT" fill="#FFFFFF"></path>
    </g>
</svg>