<?xml version="1.0" encoding="utf-8"?>
<!-- Generator: Adobe Illustrator 15.0.0, SVG Export Plug-In . SVG Version: 6.00 Build 0)  -->
<!DOCTYPE svg PUBLIC "-//W3C//DTD SVG 1.1//EN" "http://www.w3.org/Graphics/SVG/1.1/DTD/svg11.dtd">
<svg version="1.1" id="Layer_1" xmlns="http://www.w3.org/2000/svg" xmlns:xlink="http://www.w3.org/1999/xlink" x="0px" y="0px"
	 width="530.7px" height="91.4px" viewBox="0 0 530.7 91.4" enable-background="new 0 0 530.7 91.4" xml:space="preserve">
<g>
	<g>
		<path fill="#F1F2F2" d="M27.895,14.963l19.973,74.509h-6.52l-5.899-22.974h-22.56L6.783,89.472H0.574l19.869-74.509H27.895z
			 M34.104,60.807l-9.831-37.669h-0.207l-9.831,37.669H34.104z"/>
		<path fill="#F1F2F2" d="M63.076,46.732h28.769v-31.77h6.416v74.509h-6.416V52.424H63.076v37.048H56.66V14.963h6.416V46.732z"/>
		<path fill="#F1F2F2" d="M110.779,52.114c0-17.489,2.069-38.911,21.835-38.911c20.49,0,21.939,21.422,21.939,38.911
			c0,18.834-1.553,39.116-21.939,39.116C112.849,91.23,110.779,71.259,110.779,52.114z M148.138,52.114
			c0-14.902-1.346-33.219-15.523-33.219c-13.866,0-15.419,17.074-15.419,33.219c0,16.453,1.553,33.425,15.419,33.425
			C146.585,85.539,148.138,69.706,148.138,52.114z"/>
		<path fill="#F1F2F2" d="M173.28,46.732h28.77v-31.77h6.416v74.509h-6.416V52.424h-28.77v37.048h-6.416V14.963h6.416V46.732z"/>
		<path fill="#F1F2F2" d="M263.517,64.222c0,14.487-6.105,27.009-21.008,27.009c-19.766,0-21.524-19.766-21.524-41.083
			c0-15.315,1.966-36.944,21.731-36.944c13.35,0,20.387,10.556,20.387,23.181h-6.623c-0.518-8.796-3.933-17.488-13.971-17.488
			c-13.66,0-15.108,18.316-15.108,32.701c0,16.35,1.448,33.942,15.833,33.942c11.072,0,13.867-12.418,13.867-21.317H263.517z"/>
		<path fill="#F1F2F2" d="M339.676,14.963v74.509h-6.416V20.654h-28.769v68.817h-6.416V14.963H339.676z"/>
		<path fill="#F1F2F2" d="M351.884,52.114c0-17.489,2.07-38.911,21.836-38.911c20.489,0,21.938,21.422,21.938,38.911
			c0,18.834-1.552,39.116-21.938,39.116C353.954,91.23,351.884,71.259,351.884,52.114z M389.242,52.114
			c0-14.902-1.346-33.219-15.522-33.219c-13.867,0-15.42,17.074-15.42,33.219c0,16.453,1.553,33.425,15.42,33.425
			C387.689,85.539,389.242,69.706,389.242,52.114z"/>
		<path fill="#F1F2F2" d="M450.399,14.963V83.78h5.278v7.069h-6.21v-1.378h-42.222v1.378h-6.209V83.78h4.657
			c6.209-10.659,8.382-19.766,8.382-42.636V14.963H450.399z M420.492,20.654v22.249c0,16.972-2.069,31.356-7.864,40.877h31.355
			V20.654H420.492z"/>
		<path fill="#F1F2F2" d="M473.679,89.472h-6.416V14.963h6.416V89.472z"/>
		<path fill="#F1F2F2" d="M517.603-0.025c-1.4,3.636-3.99,5.468-7.913,5.468s-6.579-1.832-7.897-5.468h-4.943
			c1.574,6.333,5.999,10.124,12.323,10.124c6.554,0,11.499-3.449,13.159-10.124H517.603z"/>
		<polygon fill="#F1F2F2" points="495.305,78.916 495.098,78.916 495.098,14.963 488.682,14.963 488.682,89.472 496.443,89.472 
			524.073,25.725 524.28,25.725 524.28,89.472 530.696,89.472 530.696,14.963 522.729,14.963 		"/>
	</g>
	<g>
		<polygon fill="#F1F2F2" points="530.7,15.035 20.435,15.035 20.935,13.004 530.7,13.004 		"/>
	</g>
	<g>
		<polygon fill="#F1F2F2" points="530.694,91.4 -0.023,91.4 0.6,89.327 530.694,89.327 		"/>
	</g>
</g>
</svg>
