<?xml version="1.0" encoding="utf-8"?>
<!-- Generator: Adobe Illustrator 15.0.0, SVG Export Plug-In . SVG Version: 6.00 Build 0)  -->
<!DOCTYPE svg PUBLIC "-//W3C//DTD SVG 1.1//EN" "http://www.w3.org/Graphics/SVG/1.1/DTD/svg11.dtd">
<svg version="1.1" id="Layer_1" xmlns="http://www.w3.org/2000/svg" xmlns:xlink="http://www.w3.org/1999/xlink" x="0px" y="0px"
	 width="455px" height="78.5px" viewBox="0 0 455 78.5" enable-background="new 0 0 455 78.5" xml:space="preserve">
<g>
	<path fill="#39383D" d="M34.253,1.947v5.691H6.416v68.818H0V1.947H34.253z"/>
	<path fill="#39383D" d="M44.496,1.947h34.253v5.691H50.912v26.078h24.836v5.691H50.912v31.357h27.837v5.691H44.496V1.947z"/>
	<path fill="#39383D" d="M95.407,33.717h28.769V1.947h6.416v74.51h-6.416V39.408H95.407v37.049h-6.416V1.947h6.416V33.717z"/>
	<path fill="#39383D" d="M144.249,1.947h34.253v5.691h-27.837v26.078h24.836v5.691h-24.836v31.357h27.837v5.691h-34.253V1.947z"/>
	<path fill="#39383D" d="M210.476,1.947l19.973,74.51h-6.52l-5.899-22.975h-22.56l-6.105,22.975h-6.209l19.869-74.51H210.476z
		 M216.685,47.791l-9.831-37.668h-0.207l-9.831,37.668H216.685z"/>
	<path fill="#39383D" d="M282.912,1.947v74.51h-6.416V7.639H251.66v34.254c0,22.871-3.104,35.289-12.936,35.289
		c-2.277,0-3.829-0.104-5.588-0.621v-5.691c0.725,0.207,2.689,0.621,4.656,0.621c5.484,0,7.451-11.385,7.451-31.771V1.947H282.912z"
		/>
	<path fill="#39383D" d="M295.224,39.099c0-17.489,2.07-38.911,21.836-38.911c20.489,0,21.938,21.422,21.938,38.911
		c0,18.835-1.552,39.116-21.938,39.116C297.294,78.215,295.224,58.244,295.224,39.099z M332.582,39.099
		c0-14.901-1.346-33.219-15.522-33.219c-13.867,0-15.42,17.075-15.42,33.219c0,16.454,1.553,33.425,15.42,33.425
		C331.029,72.523,332.582,56.691,332.582,39.099z"/>
	<path fill="#39383D" d="M385.355,1.947v5.691h-27.838v68.818h-6.416V1.947H385.355z"/>
	<path fill="#39383D" d="M404.049,76.457h-6.416V1.947h6.416V76.457z"/>
	<path fill="#39383D" d="M438.317,43.652l-17.282,32.805h-7.658l17.696-33.219c-9.417-2.07-14.592-9.107-14.592-20.18
		c0-15.316,8.693-21.111,20.18-21.111h18.11v74.51h-6.416V43.652H438.317z M448.355,7.639h-9.831
		c-10.245,0-15.627,4.657-15.627,15.109c0,11.693,6.52,15.212,17.075,15.212h8.383V7.639z"/>
</g>
<g>
	<rect y="-0.053" fill="#39383D" width="454.771" height="2.031"/>
</g>
<g>
	<rect y="76.427" fill="#39383D" width="454.771" height="2.073"/>
</g>
</svg>
