<?xml version="1.0" encoding="utf-8"?>
<!-- Generator: Adobe Illustrator 15.0.0, SVG Export Plug-In . SVG Version: 6.00 Build 0)  -->
<!DOCTYPE svg PUBLIC "-//W3C//DTD SVG 1.1//EN" "http://www.w3.org/Graphics/SVG/1.1/DTD/svg11.dtd">
<svg version="1.1" id="Layer_1" xmlns="http://www.w3.org/2000/svg" xmlns:xlink="http://www.w3.org/1999/xlink" x="0px" y="0px"
	 width="497px" height="78px" viewBox="0 0 497 78" enable-background="new 0 0 497 78" xml:space="preserve">
<g>
	<g>
		<path fill="#F1F2F2" d="M34.523,2.027v5.691H6.686v68.817H0.27V2.027H34.523z"/>
		<path fill="#F1F2F2" d="M44.765,2.027h34.253v5.691H51.181v26.078h24.836v5.691H51.181v31.356h27.837v5.691H44.765V2.027z"/>
		<path fill="#F1F2F2" d="M95.676,76.536H89.26V2.027h16.868c11.487,0,21.421,4.76,21.421,20.076
			c0,13.35-7.451,20.696-20.904,20.696H95.676V76.536z M95.676,37.108h8.382c10.556,0,17.075-3.001,17.075-14.694
			c0-10.867-5.795-14.695-16.041-14.695h-9.417V37.108z"/>
		<path fill="#F1F2F2" d="M155.351,2.027l19.973,74.509h-6.52l-5.899-22.974h-22.56l-6.105,22.974h-6.209L147.9,2.027H155.351z
			 M161.56,47.871l-9.831-37.669h-0.207l-9.831,37.669H161.56z"/>
		<path fill="#F1F2F2" d="M227.788,2.027v74.509h-6.416V7.719h-24.836v34.253c0,22.871-3.104,35.289-12.936,35.289
			c-2.277,0-3.829-0.104-5.588-0.621v-5.691c0.725,0.207,2.69,0.621,4.657,0.621c5.485,0,7.451-11.384,7.451-31.771V2.027H227.788z"
			/>
		<path fill="#F1F2F2" d="M247.239,33.797h11.28c13.453,0,20.593,8.278,20.593,21.628c0,15.316-8.692,21.111-20.179,21.111h-18.11
			V2.027h6.416V33.797z M247.239,70.845h9.831c10.245,0,15.626-4.761,15.626-15.213c0-11.693-6.209-16.144-16.764-16.144h-8.693
			V70.845z"/>
		<path fill="#F1F2F2" d="M332.095,2.027v68.817h5.278v6.819h-6.21v-1.128h-42.222v1.128h-6.209v-6.819h4.657
			c6.209-10.659,8.382-19.766,8.382-42.636V2.027H332.095z M302.188,7.719v22.249c0,16.972-2.069,31.356-7.864,40.877h31.355V7.719
			H302.188z"/>
		<path fill="#F1F2F2" d="M354.339,65.98h0.207L381.97,2.027h7.968v74.509h-6.416V12.789h-0.207l-27.63,63.747h-7.762V2.027h6.416
			V65.98z"/>
		<path fill="#F1F2F2" d="M410.011,39.281l27.113-37.254h7.451l-22.043,30.113l23.181,44.396h-7.037l-20.283-39.117l-8.382,10.866
			v28.251h-6.416V2.027h6.416V39.281z"/>
		<path fill="#F1F2F2" d="M476.65,2.027l19.973,74.509h-6.52l-5.898-22.974h-22.56l-6.105,22.974h-6.209L469.2,2.027H476.65z
			 M482.859,47.871l-9.831-37.669h-0.206l-9.832,37.669H482.859z"/>
	</g>
	<g>
		<polygon fill="#F1F2F2" points="476.668,2.049 0.261,2.049 0.261,0.018 476.167,0.018 		"/>
	</g>
	<g>
		<polygon fill="#F1F2F2" points="497,78.103 0.261,78.103 0.261,76.029 496.5,76.029 		"/>
	</g>
</g>
</svg>
