<?xml version="1.0" encoding="utf-8"?>
<!-- Generator: Adobe Illustrator 15.0.0, SVG Export Plug-In . SVG Version: 6.00 Build 0)  -->
<!DOCTYPE svg PUBLIC "-//W3C//DTD SVG 1.1//EN" "http://www.w3.org/Graphics/SVG/1.1/DTD/svg11.dtd">
<svg version="1.1" id="Layer_1" xmlns="http://www.w3.org/2000/svg" xmlns:xlink="http://www.w3.org/1999/xlink" x="0px" y="0px"
	 width="166.5px" height="80px" viewBox="0 0 166.5 80" enable-background="new 0 0 166.5 80" xml:space="preserve">
<g>
	<g>
		<path fill="#6D5D3E" d="M6.663,78.623H0.029V1.586h6.633V78.623z"/>
		<path fill="#6D5D3E" d="M44.539,1.586l20.65,77.037h-6.741L52.35,54.869H29.024l-6.313,23.754h-6.42L36.835,1.586H44.539z
			 M50.958,48.984L40.794,10.039H40.58L30.416,48.984H50.958z"/>
		<path fill="#6D5D3E" d="M104.779,20.203c0-8.881-4.602-14.551-13.268-14.551c-8.774,0-13.268,6.526-13.268,14.979
			c0,8.881,4.28,11.77,13.268,15.087c15.086,5.456,21.826,11.341,21.826,23.11c0,13.268-8.666,21.613-22.147,21.613
			c-14.017,0-21.185-10.164-21.185-23.646h6.634c0,9.736,3.852,17.762,14.445,17.762c9.415,0,15.514-5.992,15.514-15.514
			c0-11.662-8.453-13.482-17.227-17.013C78.993,37.965,71.61,33.363,71.61,20.953c0-12.52,7.49-21.186,20.008-21.186
			c11.983,0,19.58,8.024,19.58,20.436H104.779z"/>
		<path fill="#6D5D3E" d="M130.139,34.434h29.744V1.586h6.634v77.037h-6.634V40.318h-29.744v38.305h-6.634V1.586h6.634V34.434z"/>
	</g>
</g>
</svg>
