<?xml version="1.0" encoding="utf-8"?>
<!-- Generator: Adobe Illustrator 15.0.0, SVG Export Plug-In . SVG Version: 6.00 Build 0)  -->
<!DOCTYPE svg PUBLIC "-//W3C//DTD SVG 1.1//EN" "http://www.w3.org/Graphics/SVG/1.1/DTD/svg11.dtd">
<svg version="1.1" id="Layer_1" xmlns="http://www.w3.org/2000/svg" xmlns:xlink="http://www.w3.org/1999/xlink" x="0px" y="0px"
	 width="681px" height="93px" viewBox="0 0 681 93" enable-background="new 0 0 681 93" xml:space="preserve">
<g>
	<g>
		<path fill="#C0262E" d="M41.613,16.662v74.509h-6.416V22.354H6.428v68.817H0.012V16.662H41.613z"/>
		<path fill="#C0262E" d="M62.307,91.171h-6.416V16.662h16.868c11.486,0,21.421,4.76,21.421,20.076
			c0,13.35-7.451,20.697-20.904,20.697H62.307V91.171z M62.307,51.743h8.382c10.556,0,17.075-3.001,17.075-14.695
			c0-10.866-5.795-14.695-16.04-14.695h-9.417V51.743z"/>
		<path fill="#C0262E" d="M104.836,16.662h34.254v5.692h-27.838v26.078h24.837v5.691h-24.837v31.356h27.838v5.691h-34.254V16.662z"
			/>
		<path fill="#C0262E" d="M161.438,16.662l17.696,64.989h0.207l18.11-64.989h10.451v74.509h-6.416V23.078h-0.207l-18.42,68.093
			h-6.934L157.3,23.078h-0.207v68.093h-6.416V16.662H161.438z"/>
		<path fill="#C0262E" d="M229.735,91.171h-6.416V16.662h6.416V91.171z"/>
		<path fill="#C0262E" d="M237.908,0h6.416v10.142h-6.416V0z M252.189,91.171h-6.416V16.662h6.416V91.171z M253.638,0h6.417v10.142
			h-6.417V0z"/>
		<path fill="#C0262E" d="M310.343,91.171h-6.416V22.354h-16.868v-5.692h40.152v5.692h-16.868V91.171z"/>
		<path fill="#C0262E" d="M351.839,16.662l19.973,74.509h-6.52l-5.898-22.974h-22.56l-6.105,22.974h-6.209l19.869-74.509H351.839z
			 M358.049,62.506l-9.832-37.669h-0.206l-9.831,37.669H358.049z"/>
		<path fill="#C0262E" d="M436.072,16.662v5.692h-27.838v68.817h-6.416V16.662H436.072z"/>
		<path fill="#C0262E" d="M452.729,91.171h-6.416V16.662h16.868c11.486,0,21.421,4.76,21.421,20.076
			c0,13.35-7.45,20.697-20.903,20.697h-10.97V91.171z M452.729,51.743h8.382c10.556,0,17.075-3.001,17.075-14.695
			c0-10.866-5.795-14.695-16.04-14.695h-9.417V51.743z"/>
		<path fill="#C0262E" d="M511.714,16.662l19.973,74.509h-6.52l-5.898-22.974h-22.56l-6.105,22.974h-6.209l19.869-74.509H511.714z
			 M517.924,62.506l-9.832-37.669h-0.206l-9.831,37.669H517.924z"/>
		<path fill="#C0262E" d="M546.068,48.432h28.769v-31.77h6.416v74.509h-6.416V54.123h-28.769v37.048h-6.416V16.662h6.416V48.432z"/>
		<path fill="#C0262E" d="M613.33,91.171h-6.416V22.354h-16.868v-5.692h40.152v5.692H613.33V91.171z"/>
		<path fill="#C0262E" d="M645.408,80.615h0.207l27.424-63.954h7.968v74.509h-6.416V27.424h-0.207l-27.63,63.747h-7.762V16.662
			h6.416V80.615z"/>
	</g>
	<g>
		<rect y="15.003" fill="#C0262E" width="681.011" height="2.031"/>
	</g>
	<g>
		<rect x="0.008" y="90.943" fill="#C0262E" width="681.006" height="2.074"/>
	</g>
</g>
</svg>
