<?xml version="1.0" encoding="utf-8"?>
<!-- Generator: Adobe Illustrator 15.0.0, SVG Export Plug-In . SVG Version: 6.00 Build 0)  -->
<!DOCTYPE svg PUBLIC "-//W3C//DTD SVG 1.1//EN" "http://www.w3.org/Graphics/SVG/1.1/DTD/svg11.dtd">
<svg version="1.1" id="Layer_1" xmlns="http://www.w3.org/2000/svg" xmlns:xlink="http://www.w3.org/1999/xlink" x="0px" y="0px"
	 width="340px" height="78.4px" viewBox="0 0 340 78.4" enable-background="new 0 0 340 78.4" xml:space="preserve">
<g>
	<g>
		<path fill="#F1F2F2" d="M41.606,2.005v74.51H35.19V7.697H6.421v68.817H0.005V2.005H41.606z"/>
		<path fill="#F1F2F2" d="M61.368,76.515h-6.416V2.005H71.82c11.487,0,21.422,4.761,21.422,20.076
			c0,13.35-7.451,20.697-20.904,20.697h-10.97V76.515z M61.368,37.086h8.383c10.556,0,17.075-3,17.075-14.694
			c0-10.866-5.796-14.694-16.041-14.694h-9.417V37.086z"/>
		<path fill="#F1F2F2" d="M103.07,39.156c0-17.489,2.069-38.91,21.835-38.91c20.49,0,21.938,21.421,21.938,38.91
			c0,18.835-1.552,39.116-21.938,39.116C105.14,78.272,103.07,58.302,103.07,39.156z M140.428,39.156
			c0-14.902-1.345-33.219-15.522-33.219c-13.867,0-15.419,17.074-15.419,33.219c0,16.454,1.552,33.425,15.419,33.425
			C138.876,72.581,140.428,56.749,140.428,39.156z"/>
		<path fill="#F1F2F2" d="M158.845,2.005h34.253v5.692h-27.837v26.078h24.836v5.691h-24.836v31.356h27.837v5.691h-34.253V2.005z"/>
		<path fill="#F1F2F2" d="M209.859,39.26l27.113-37.255h7.451l-22.043,30.114l23.181,44.396h-7.036l-20.283-39.118l-8.383,10.866
			v28.252h-6.416V2.005h6.416V39.26z"/>
		<path fill="#F1F2F2" d="M272.153,76.515h-6.416V7.697h-16.868V2.005h40.152v5.692h-16.868V76.515z"/>
		<path fill="#F1F2F2" d="M304.23,65.958h0.207l27.424-63.953h7.968v74.51h-6.416V12.768h-0.207l-27.63,63.747h-7.762V2.005h6.416
			V65.958z"/>
	</g>
	<g>
		<rect y="0.004" fill="#F1F2F2" width="339.838" height="2.031"/>
	</g>
	<g>
		<rect x="0.01" y="76.327" fill="#F1F2F2" width="339.822" height="2.073"/>
	</g>
</g>
</svg>
