<?xml version="1.0" encoding="utf-8"?>
<!-- Generator: Adobe Illustrator 15.0.0, SVG Export Plug-In . SVG Version: 6.00 Build 0)  -->
<!DOCTYPE svg PUBLIC "-//W3C//DTD SVG 1.1//EN" "http://www.w3.org/Graphics/SVG/1.1/DTD/svg11.dtd">
<svg version="1.1" id="Layer_1" xmlns="http://www.w3.org/2000/svg" xmlns:xlink="http://www.w3.org/1999/xlink" x="0px" y="0px"
	 width="345px" height="78.37px" viewBox="0 0 345 78.37" enable-background="new 0 0 345 78.37" xml:space="preserve">
<g>
	<g>
		<path fill="#F1F2F2" d="M7.238,76.395H0.822V1.885H17.69c11.487,0,21.421,4.76,21.421,20.076c0,13.35-7.451,20.697-20.904,20.697
			H7.238V76.395z M7.238,36.967h8.382c10.556,0,17.075-3.002,17.075-14.695c0-10.866-5.795-14.695-16.041-14.695H7.238V36.967z"/>
		<path fill="#F1F2F2" d="M50.285,1.885h34.253v5.691H56.701v26.078h24.836v5.691H56.701v31.357h27.837v5.691H50.285V1.885z"/>
		<path fill="#F1F2F2" d="M136.175,51.145c0,14.486-6.105,27.008-21.007,27.008c-19.766,0-21.525-19.766-21.525-41.082
			c0-15.316,1.966-36.945,21.731-36.945c13.35,0,20.387,10.557,20.387,23.182h-6.623c-0.518-8.797-3.933-17.489-13.97-17.489
			c-13.66,0-15.109,18.317-15.109,32.701c0,16.351,1.449,33.942,15.833,33.942c11.073,0,13.867-12.418,13.867-21.316H136.175z"/>
		<path fill="#F1F2F2" d="M148.383,1.885l18.523,50.914l16.972-50.914h6.934l-22.974,64.988c-2.483,7.037-6.727,10.35-11.28,10.35
			c-2.173,0-3.829-0.207-5.381-0.725V70.91c0.518,0.207,2.07,0.619,4.139,0.619c2.07,0,4.657-0.619,6.209-4.863l2.069-5.691
			l-22.146-59.09H148.383z"/>
		<path fill="#F1F2F2" d="M206.745,76.395h-6.416V1.885h16.868c11.487,0,21.422,4.76,21.422,20.076
			c0,13.35-7.451,20.697-20.904,20.697h-10.97V76.395z M206.745,36.967h8.383c10.556,0,17.075-3.002,17.075-14.695
			c0-10.866-5.796-14.695-16.041-14.695h-9.417V36.967z"/>
		<path fill="#F1F2F2" d="M290.875,51.145c0,14.486-6.105,27.008-21.007,27.008c-19.766,0-21.524-19.766-21.524-41.082
			c0-15.316,1.966-36.945,21.731-36.945c13.35,0,20.387,10.557,20.387,23.182h-6.623c-0.518-8.797-3.933-17.489-13.971-17.489
			c-13.66,0-15.108,18.317-15.108,32.701c0,16.351,1.448,33.942,15.833,33.942c11.072,0,13.866-12.418,13.866-21.316H290.875z"/>
		<path fill="#F1F2F2" d="M309.396,65.838h0.207l27.424-63.953h7.968v74.51h-6.416V12.646h-0.207l-27.63,63.748h-7.762V1.885h6.416
			V65.838z"/>
	</g>
	<g>
		<rect x="0.824" fill="#F1F2F2" width="344.167" height="2.031"/>
	</g>
	<g>
		<rect x="0.813" y="76.323" fill="#F1F2F2" width="344.187" height="2.073"/>
	</g>
</g>
</svg>
