<?xml version="1.0" encoding="utf-8"?>
<!-- Generator: Adobe Illustrator 15.0.0, SVG Export Plug-In . SVG Version: 6.00 Build 0)  -->
<!DOCTYPE svg PUBLIC "-//W3C//DTD SVG 1.1//EN" "http://www.w3.org/Graphics/SVG/1.1/DTD/svg11.dtd">
<svg version="1.1" id="Layer_1" xmlns="http://www.w3.org/2000/svg" xmlns:xlink="http://www.w3.org/1999/xlink" x="0px" y="0px"
	 width="546px" height="78px" viewBox="0 0 546 78" enable-background="new 0 0 546 78" xml:space="preserve">
<g>
	<g>
		<polygon fill="#F1F2F2" points="518.835,2.036 28.729,2.036 28.729,0.005 518.334,0.005 		"/>
	</g>
	<g>
		<polygon fill="#F1F2F2" points="539.146,77.986 28.438,77.986 28.438,75.913 538.646,75.913 		"/>
	</g>
	<g>
		<path fill="#F1F2F2" d="M49.803,51.018c0,14.488-6.105,27.01-21.007,27.01c-19.766,0-21.525-19.766-21.525-41.083
			C7.271,21.629,9.237,0,29.002,0c13.35,0,20.387,10.556,20.387,23.181h-6.623c-0.518-8.796-3.932-17.489-13.97-17.489
			c-13.66,0-15.109,18.317-15.109,32.701c0,16.35,1.449,33.943,15.833,33.943c11.073,0,13.867-12.418,13.867-21.318H49.803z"/>
		<path fill="#F1F2F2" d="M94.299,1.76v8.175h2.276c13.557,0,26.182,8.589,26.182,28.044c0,20.49-11.59,29.701-25.975,29.701h-2.483
			v8.588h-6.417V67.68h-2.483c-14.384,0-25.975-9.211-25.975-29.701c0-19.455,12.625-28.044,26.182-28.044h2.276V1.76H94.299z
			 M87.882,15.627h-2.069c-10.452,0-19.973,6.313-19.973,22.973c0,17.074,8.899,23.387,19.973,23.387h2.069V15.627z M94.299,61.986
			h2.069c11.073,0,19.973-6.313,19.973-23.387c0-16.66-9.521-22.973-19.973-22.973h-2.069V61.986z"/>
		<path fill="#F1F2F2" d="M139.931,76.268h-6.416V1.76h16.868c11.487,0,21.421,4.76,21.421,20.076
			c0,13.35-7.451,20.695-20.904,20.695h-10.969V76.268z M139.931,36.841h8.382c10.556,0,17.075-3.001,17.075-14.694
			c0-10.867-5.795-14.695-16.041-14.695h-9.417V36.841z"/>
		<path fill="#F1F2F2" d="M197.881,1.76l19.973,74.508h-6.52l-5.898-22.973h-22.56l-6.105,22.973h-6.209L190.43,1.76H197.881z
			 M204.09,47.604l-9.83-37.669h-0.207l-9.832,37.669H204.09z"/>
		<path fill="#F1F2F2" d="M260.072,1.76v5.691h-27.837v68.816h-6.416V1.76H260.072z"/>
		<path fill="#F1F2F2" d="M277.766,76.268h-6.416V1.76h6.416V76.268z"/>
		<path fill="#F1F2F2" d="M333.438,51.018c0,14.488-6.105,27.01-21.007,27.01c-19.766,0-21.525-19.766-21.525-41.083
			C290.905,21.629,292.872,0,312.638,0c13.35,0,20.387,10.556,20.387,23.181h-6.623c-0.518-8.796-3.933-17.489-13.971-17.489
			c-13.66,0-15.109,18.317-15.109,32.701c0,16.35,1.449,33.943,15.834,33.943c11.072,0,13.866-12.418,13.866-21.318H333.438z"/>
		<path fill="#F1F2F2" d="M364.066,76.268h-6.416V7.451h-16.868V1.76h40.152v5.691h-16.868V76.268z"/>
		<path fill="#F1F2F2" d="M396.455,65.713h0.207L424.086,1.76h7.968v74.508h-6.416V12.521h-0.207l-27.63,63.746h-7.762V1.76h6.416
			V65.713z"/>
		<path fill="#F1F2F2" d="M452.126,39.014L479.239,1.76h7.451l-22.043,30.113l23.181,44.395h-7.037l-20.283-39.116l-8.382,10.866
			v28.25h-6.416V1.76h6.416V39.014z"/>
		<path fill="#F1F2F2" d="M518.766,1.76l19.973,74.508h-6.52l-5.898-22.973h-22.56l-6.105,22.973h-6.209L511.315,1.76H518.766z
			 M524.976,47.604l-9.832-37.669h-0.206l-9.831,37.669H524.976z"/>
	</g>
</g>
</svg>
