<?xml version="1.0" encoding="utf-8"?>
<!-- Generator: Adobe Illustrator 15.0.0, SVG Export Plug-In . SVG Version: 6.00 Build 0)  -->
<!DOCTYPE svg PUBLIC "-//W3C//DTD SVG 1.1//EN" "http://www.w3.org/Graphics/SVG/1.1/DTD/svg11.dtd">
<svg version="1.1" id="Layer_1" xmlns="http://www.w3.org/2000/svg" xmlns:xlink="http://www.w3.org/1999/xlink" x="0px" y="0px"
	 width="571px" height="78px" viewBox="0 0 571 78" enable-background="new 0 0 571 78" xml:space="preserve">
<g>
	<g>
		<path fill="#F1F2F2" d="M0.074,1.759h17.593c10.866,0,19.248,5.485,19.248,18.213c0,7.451-2.794,14.177-10.142,16.972
			c8.692,2.38,12.211,9.106,12.211,17.903c0,18.834-13.039,21.422-22.663,21.422H0.074V1.759z M6.49,34.357h9.21
			c7.658,0,14.799-2.276,14.799-14.177c0-11.073-7.762-12.729-15.419-12.729H6.49V34.357z M6.49,70.578h10.556
			c8.796,0,15.522-3.52,15.522-15.834c0-12.315-8.175-14.695-15.522-14.695H6.49V70.578z"/>
		<path fill="#F1F2F2" d="M57.194,65.713h0.207L84.825,1.759h7.968v74.51h-6.416V12.521H86.17L58.54,76.27h-7.762V1.759h6.416
			V65.713z"/>
		<path fill="#F1F2F2" d="M151.776,1.759v68.819h5.277V77h-6.209v-0.73h-42.222V77h-6.209v-6.422h4.656
			c6.209-10.66,8.383-19.766,8.383-42.637V1.759H151.776z M121.869,7.451V29.7c0,16.972-2.069,31.356-7.865,40.878h31.356V7.451
			H121.869z"/>
		<path fill="#F1F2F2" d="M189.337,1.759l19.973,74.51h-6.52l-5.899-22.975h-22.56l-6.105,22.975h-6.209l19.869-74.51H189.337z
			 M195.546,47.604l-9.831-37.669h-0.207l-9.831,37.669H195.546z"/>
		<path fill="#F1F2F2" d="M217.274,1.759h17.593c10.866,0,19.248,5.485,19.248,18.213c0,7.451-2.794,14.177-10.142,16.972
			c8.692,2.38,12.211,9.106,12.211,17.903c0,18.834-13.039,21.422-22.663,21.422h-16.247V1.759z M223.69,34.357h9.21
			c7.658,0,14.799-2.276,14.799-14.177c0-11.073-7.762-12.729-15.419-12.729h-8.59V34.357z M223.69,70.578h10.556
			c8.796,0,15.522-3.52,15.522-15.834c0-12.315-8.175-14.695-15.522-14.695H223.69V70.578z"/>
		<path fill="#F1F2F2" d="M274.395,33.529h28.769V1.759h6.416v74.51h-6.416V39.221h-28.769V76.27h-6.417V1.759h6.417V33.529z"/>
		<path fill="#F1F2F2" d="M329.445,65.713h0.207l27.424-63.954h7.968v74.51h-6.416V12.521h-0.207l-27.63,63.748h-7.762V1.759h6.416
			V65.713z"/>
		<path fill="#F1F2F2" d="M384.909,70.578h28.976V1.759h6.416v68.819h5.485v6.589h-6.209V76.27h-41.084V1.759h6.416V70.578z"/>
		<path fill="#F1F2F2" d="M453.517,76.27h-6.416V7.451h-16.868V1.759h40.152v5.692h-16.868V76.27z"/>
		<path fill="#F1F2F2" d="M478.972,1.759h17.593c10.865,0,19.248,5.485,19.248,18.213c0,7.451-2.794,14.177-10.142,16.972
			c8.692,2.38,12.211,9.106,12.211,17.903c0,18.834-13.039,21.422-22.663,21.422h-16.247V1.759z M485.388,34.357h9.21
			c7.658,0,14.799-2.276,14.799-14.177c0-11.073-7.762-12.729-15.42-12.729h-8.589V34.357z M485.388,70.578h10.556
			c8.796,0,15.522-3.52,15.522-15.834c0-12.315-8.175-14.695-15.522-14.695h-10.556V70.578z"/>
		<path fill="#F1F2F2" d="M527.226,38.911c0-17.489,2.07-38.911,21.836-38.911C569.551,0,571,21.421,571,38.911
			c0,18.835-1.552,39.117-21.938,39.117C529.296,78.027,527.226,58.057,527.226,38.911z M564.584,38.911
			c0-14.902-1.346-33.219-15.522-33.219c-13.867,0-15.42,17.075-15.42,33.219c0,16.455,1.553,33.425,15.42,33.425
			C563.031,72.336,564.584,56.504,564.584,38.911z"/>
	</g>
	<g>
		<rect x="0.063" y="0.018" fill="#F1F2F2" width="549.604" height="2.031"/>
	</g>
	<g>
		<rect x="0.07" y="75.959" fill="#F1F2F2" width="548.688" height="2.072"/>
	</g>
</g>
</svg>
